<svg width="316" height="632" viewBox="0 0 316 632" fill="none" xmlns="http://www.w3.org/2000/svg">
<g id="About Me" opacity="0.08">
<path id="images 1 (Traced)" fill-rule="evenodd" clip-rule="evenodd" d="M35.6275 86.5944L0 103.163V162.392C0 235.978 5.88629 240.39 61.8431 208.697C81.6767 197.462 99.5772 188.268 101.622 188.268C103.66 188.268 105.333 283.107 105.333 399.018C105.333 533.42 107.657 613.749 111.746 620.765C118.612 632.535 151.135 636.27 158 626.076C160.107 622.948 169.587 620.39 179.067 620.39C198.869 620.39 208.752 606.05 256.753 507.674L285.391 448.98L248.029 368.23C212.618 291.699 193.28 188.268 214.378 188.268C216.423 188.268 234.323 197.462 254.157 208.697C310.114 240.39 316 235.983 316 162.381V103.146L279.146 86.0713C258.872 76.684 240.711 71.3451 238.778 74.2107C236.851 77.0764 240.786 81.028 247.527 82.9896C257.311 85.8382 259.052 89.9263 256.158 103.214C253.488 115.456 255.186 120.8 262.577 123.404C271.624 126.588 278.136 165.525 269.622 165.525C267.968 165.525 251.939 157.206 233.995 147.046C205.332 130.807 196.112 128.567 158 128.567C119.888 128.567 110.668 130.807 82.0051 147.046C64.0613 157.206 48.032 165.525 46.3777 165.525C37.8642 165.525 44.3763 126.588 53.4226 123.404C60.734 120.829 62.506 115.444 59.9346 103.635C57.1216 90.7393 59.123 86.2874 69.6439 81.9775C76.9305 78.9925 80.2764 75.0863 77.073 73.2896C73.8759 71.4986 55.2195 77.4857 35.6275 86.5944ZM197.134 411.544C214.106 449.122 214.242 446.859 192.363 490.264L174.06 526.574L173.775 454.08C173.459 373.961 177.134 367.269 197.134 411.544Z" fill="#3F424D"/>
<path id="images 1 (Traced)_2" d="M185.244 100.439C126.14 128.487 70.722 53.4859 120.96 13.4294C158.099 -16.1823 216.863 6.33349 216.863 50.1711C216.863 75.7857 208.213 89.5397 185.244 100.439Z" fill="#656A7B"/>
</g>
</svg>
