<svg width="367" height="469" viewBox="0 0 367 469" fill="none" xmlns="http://www.w3.org/2000/svg">
<g opacity="0.08">
<path d="M92.8214 332.176C84.5162 324.216 88.8456 326.46 68.8137 321.321C59.7248 318.985 51.735 314.497 44.5097 309.12L1.14875 411.015C-3.04686 420.881 4.79004 431.598 15.8955 431.195L66.2524 429.354L100.888 464.418C108.533 472.149 121.952 469.74 126.147 459.875L175.892 342.975C165.532 348.508 154.035 351.75 142.146 351.75C123.509 351.75 106.001 344.798 92.8214 332.176ZM365.851 411.015L322.49 309.12C315.265 314.506 307.275 318.985 298.186 321.321C278.049 326.487 282.465 324.234 274.179 332.176C260.999 344.798 243.481 351.75 224.844 351.75C212.955 351.75 201.458 348.499 191.098 342.975L240.843 459.875C245.039 469.74 258.467 472.149 266.103 464.418L300.748 429.354L351.105 431.195C362.21 431.598 370.047 420.872 365.851 411.015Z" fill="#3F424D"/>
<path d="M255.632 311.446C270.235 297.203 271.908 298.43 292.704 292.998C305.979 289.527 316.358 279.405 319.914 266.453C327.062 240.438 325.208 243.58 344.714 224.546C354.434 215.065 358.228 201.243 354.673 188.291C347.534 162.295 347.524 165.922 354.673 139.898C358.228 126.946 354.434 113.124 344.714 103.643C325.208 84.6089 327.062 87.7416 319.914 61.7364C316.358 48.7842 305.979 38.6625 292.704 35.1908C266.059 28.2201 269.27 30.0429 249.745 10.9993C240.025 1.51878 225.852 -2.19101 212.577 1.28062C185.941 8.2422 189.659 8.25136 162.975 1.28062C149.7 -2.19101 135.527 1.50962 125.807 10.9993C106.301 30.0338 109.512 28.2201 82.8569 35.1908C69.5819 38.6625 59.2028 48.7842 55.6476 61.7364C48.5083 87.7416 50.3529 84.6089 30.8466 103.643C21.127 113.124 17.3232 126.946 20.888 139.898C28.0273 165.876 28.0368 162.249 20.888 188.281C17.3328 201.234 21.127 215.056 30.8466 224.546C50.3529 243.58 48.4988 240.438 55.6476 266.453C59.2028 279.405 69.5819 289.527 82.8569 292.998C104.246 298.586 105.842 297.706 119.92 311.446C132.564 323.785 152.261 325.992 167.457 316.777C173.534 313.08 180.583 311.117 187.781 311.117C194.978 311.117 202.027 313.08 208.104 316.777C223.29 325.992 242.988 323.785 255.632 311.446ZM97.6132 161.186C97.6132 112.611 137.983 73.2322 187.776 73.2322C237.569 73.2322 277.938 112.611 277.938 161.186C277.938 209.762 237.569 249.14 187.776 249.14C137.983 249.14 97.6132 209.762 97.6132 161.186Z" fill="#656A7B"/>
</g>
</svg>
