<svg width="517" height="366" viewBox="0 0 517 366" fill="none" xmlns="http://www.w3.org/2000/svg">
<g id="Projects-normal" opacity="0.08">
<path id="Vector" d="M137.47 148.437L433.533 147.869L433.451 103.508C433.407 79.0081 413.973 59.1848 390.044 59.2307L245.623 59.5078L187.747 0.471098L43.3262 0.748222C19.3975 0.794139 0.0363531 20.6919 0.0811986 45.192L0.551552 302.157L31.6268 247.377L47.1645 219.987L62.7021 192.598C78.1208 165.417 106.771 148.496 137.47 148.437Z" fill="#656A7B"/>
<path id="Vector_2" d="M513.752 220.958L448.59 335.825C443.52 344.765 436.249 352.187 427.503 357.352C418.758 362.518 408.842 365.246 398.746 365.266C398.746 365.266 54.4461 365.926 37.7267 365.958C21.0073 365.99 10.5561 347.441 18.9533 332.638L35.2438 303.921L51.5343 275.204L67.8248 246.488L84.1153 217.771C89.1864 208.832 96.4571 201.409 105.203 196.244C113.949 191.078 123.864 188.35 133.961 188.33L494.98 187.638C511.699 187.606 522.15 206.155 513.752 220.958Z" fill="#3F424D"/>
</g>
</svg>
