<svg width="1097" height="434" viewBox="0 0 1097 434" fill="none" xmlns="http://www.w3.org/2000/svg">
<path id="signature-original-removebg 1 (Traced)" fill-rule="evenodd" clip-rule="evenodd" d="M374.541 9.80677C369.859 17.0166 369.388 25.2555 369.95 89.9698C370.554 159.729 370.392 162.048 364.942 160.616C361.843 159.803 358.85 160.51 358.291 162.193C357.311 165.15 339.616 168.412 306.053 171.825C297.151 172.729 268.679 176.074 242.782 179.259C216.885 182.441 162.591 186.368 122.127 187.983C20.4605 192.043 0 193.824 0 198.606C0 204.766 5.54409 206.726 22.5096 206.555C31.1733 206.469 39.0423 207.664 39.9928 209.213C41.0846 210.988 42.9827 210.991 45.1399 209.219C47.0203 207.676 76.9485 204.872 111.651 202.988C146.35 201.108 175.872 198.863 177.252 198.005C179.986 196.311 282.366 195.82 284.032 197.497C284.594 198.062 278.232 203.195 269.892 208.906C239.436 229.77 228.395 254.56 239.742 276.61C251.57 299.597 314.566 341.481 344.31 346.133C366.316 349.578 367.852 350.453 367.852 359.568C367.852 364.211 370.536 379.757 373.814 394.118C377.093 408.478 380.43 423.22 381.227 426.881C382.575 433.065 393.973 436.847 394.582 431.317C394.717 430.099 395.285 425.772 395.841 421.706C397.245 411.471 397.972 359.009 396.783 353.91C395.721 349.359 402.659 347.041 431.258 342.383C463.02 337.211 487.71 322.56 494.382 304.923C508.169 268.483 473.22 229.261 407.23 207.111C386.451 200.135 386.309 199.032 404.343 184.269C430.726 162.672 448.044 161.755 449.074 181.903C450.466 209.113 463.591 213.422 481.521 192.558C495.856 175.876 500.582 175.855 509.072 192.446C524.64 222.864 537.932 220.564 542.847 186.602C545.772 166.404 546.613 165.33 561.092 163.334C589.132 159.472 588.563 159.126 588.563 180.096C588.563 209.769 603.928 216.811 615.673 192.517C622.5 178.399 625.145 176.476 627.885 183.645C632.614 196.03 649.17 186.368 657.36 166.436C664.564 148.914 675.494 151.656 682.574 172.762C690.873 197.494 700.655 201.383 704.872 181.628C707.891 167.495 707.874 167.501 721.949 174.661C731.575 179.558 744.594 182.095 773.957 184.789C795.499 186.768 814.577 188.648 816.349 188.971C818.123 189.296 819.574 187.575 819.574 185.147C819.574 180.235 795.861 174.888 761.021 171.943C740.236 170.186 715.104 161.305 715.104 155.716C715.104 152.179 720.639 151.7 768.075 151.144C801.859 150.748 871.826 147.841 910.801 145.215C922.131 144.452 952.589 143.115 978.486 142.246C1072.07 139.108 1099.47 135.79 1096.83 127.915C1095.36 123.55 1073.49 123.647 1002.03 128.344C971.276 130.363 935.521 132.555 922.573 133.211C909.624 133.871 885.125 135.29 868.131 136.367C851.136 137.446 802.951 139.209 761.053 140.285L684.872 142.243L681.859 135.589C677.869 126.779 673.151 127.199 661.501 137.399C647.084 150.02 626.408 152.481 619.81 142.361C613.789 133.125 611.8 133.052 601.297 141.687C594.493 147.282 589.093 148.625 571.642 149.059C548.017 149.648 548.467 149.961 554.906 137.449C563.267 121.199 547.423 113.016 535.958 127.663C531.208 133.729 530.59 136.795 532.882 142.858C536.537 152.519 539.748 151.493 498.469 153.835L462.82 155.861L461.022 146.832C458.656 134.944 454.189 135.379 432.238 149.636C418.106 158.812 411.159 161.465 401.238 161.465C394.205 161.465 387.46 161.799 386.245 162.204C382.089 163.597 382.634 112.682 387.322 61.5917C392.737 2.58799 389.017 -12.4853 374.541 9.80677ZM696.511 161.563C694.743 166.265 693.095 169.828 692.845 169.485C688.736 163.825 689.628 153.776 694.269 153.424C699.086 153.061 699.348 154.01 696.511 161.563ZM639.821 157.346C645.621 159.581 645.871 168.447 640.268 173.123C635.315 177.251 628.147 167.004 630.916 159.756C632.729 155.006 633.329 154.844 639.821 157.346ZM608.68 178.008C602.397 191.919 602.08 192.168 601 184.026C599.378 171.786 602.492 162.06 608.43 160.835C615.935 159.289 615.973 161.861 608.68 178.008ZM535.593 165.676C535.593 190.668 524.369 206.644 517.877 190.893C515.832 185.934 510.352 178.283 505.7 173.889L497.239 165.901L511.267 164.147C534.522 161.24 535.593 161.308 535.593 165.676ZM488.387 166.886C488.099 171.6 464.906 194.309 462.14 192.591C458.926 190.594 457.841 169.612 460.795 166.64C463.185 164.239 488.534 164.467 488.387 166.886ZM393.04 177.825C385.759 183.358 382.566 183.328 382.566 177.73C382.566 174.841 385.385 173.327 390.659 173.389C398.41 173.478 398.51 173.667 393.04 177.825ZM359.097 183.837C362.938 193.986 362.932 194.001 355.345 193.951C343.156 193.865 339.342 189.317 345.619 182.347C352.82 174.347 355.625 174.658 359.097 183.837ZM311.518 185.449C306.185 188.844 295.05 188.764 292.928 185.316C291.992 183.793 295.556 182.098 300.847 181.548C312.448 180.339 316.953 181.986 311.518 185.449ZM310.455 214.687C315.673 219.037 325.508 214.105 328.124 205.827C330.373 198.709 341.367 197.795 341.367 204.727C341.367 207.374 346.546 217.169 352.879 226.49L364.389 243.438L365.368 290.938C366.481 344.837 366.666 344.32 347.894 339.387C294.04 325.239 236.149 276.344 244.204 251.816C247.985 240.303 277.681 208.829 284.906 208.678C287.634 208.619 293.178 206.718 297.224 204.449C303.872 200.723 304.67 200.853 305.494 205.815C305.997 208.838 308.228 212.83 310.455 214.687ZM366.195 205.52C368.261 208.882 364.859 226.525 362.143 226.525C360.324 226.525 350.195 207.64 350.195 204.245C350.195 201.696 364.544 202.838 366.195 205.52ZM385.803 227.265C385.965 237.432 386.465 253.732 386.916 263.491C390.329 337.409 388.343 354.564 377.619 343.788C375.068 341.227 375.342 244.248 377.949 225.786C381.127 203.299 385.436 204.112 385.803 227.265ZM432.073 225.866C510.159 263.885 500.109 328.945 414.764 337.908C393.216 340.171 394.885 345.393 393.561 271.509L392.486 211.511L401.503 213.442C406.465 214.507 420.219 220.096 432.073 225.866ZM388.452 371.432C388.452 398.305 384.579 402.241 379.868 380.159C374.574 355.35 375.809 349.111 386.245 348.008C387.46 347.88 388.452 358.42 388.452 371.432Z" fill="url(#paint0_linear_10_3)" fill-opacity="0.05"/>
<defs>
<linearGradient id="paint0_linear_10_3" x1="-8.08844e-06" y1="204.235" x2="1097" y2="204.235" gradientUnits="userSpaceOnUse">
<stop offset="0.386824" stop-color="white"/>
<stop offset="1" stop-color="white" stop-opacity="0"/>
</linearGradient>
</defs>
</svg>
