<svg width="517" height="474" viewBox="0 0 517 474" fill="none" xmlns="http://www.w3.org/2000/svg">
<g id="Skills" opacity="0.08">
<path id="Vector" d="M517 281.438C517 253.943 502.37 230.243 480.828 217.467C485.495 207.654 496.32 171.64 496.32 159.975C496.32 159.975 465.3 202.635 444.62 223.965C423.94 245.294 382.58 245.294 382.58 245.294C382.58 245.294 361.9 245.294 330.88 234.63C299.86 223.965 272.861 202.635 272.861 202.635V407.344C272.861 444.19 301.763 474 337.486 474C366.029 474 389.904 454.837 398.521 428.452C402.021 429.1 405.612 429.563 409.292 429.563C445.015 429.563 473.917 399.753 473.917 362.907C473.917 358.463 473.468 354.112 472.66 349.853C498.69 338.744 517 312.267 517 281.438Z" fill="#3F424D"/>
<path id="Vector_2" d="M131.224 44.6225C137.597 18.9785 159.857 0 186.694 0C218.378 0 244.139 26.5698 244.139 59.2498V407.343C244.139 444.189 215.237 473.999 179.514 473.999C150.971 473.999 127.096 454.835 118.479 428.45C114.978 429.098 111.388 429.561 107.708 429.561C71.985 429.561 43.0833 399.751 43.0833 362.905C43.0833 358.461 43.5321 354.11 44.3399 349.852C18.3104 338.742 0 312.265 0 281.437C0 253.941 14.6304 230.241 36.172 217.465C31.5944 207.652 28.7222 196.821 28.7222 185.156C28.7222 154.235 47.1223 127.757 73.3313 116.648C72.344 112.482 71.8055 108.131 71.8055 103.687C71.8055 71.0072 97.5657 44.4374 129.25 44.4374C129.968 44.4374 130.506 44.6225 131.224 44.6225Z" fill="#656A7B"/>
<path id="Vector_3" d="M390.399 13.9978C385.061 -4.66592 359.418 -4.66592 354.08 13.9978L352.787 18.5304C351.99 21.3245 350.596 23.8991 348.708 26.0654C346.82 28.2316 344.486 29.9345 341.877 31.0492C339.268 32.164 336.45 32.6623 333.63 32.5076C330.81 32.3529 328.06 31.5491 325.58 30.1552L321.573 27.8889C304.991 18.5837 286.857 37.2874 295.891 54.378L298.076 58.524C303.84 69.4556 298.373 83.0668 286.805 86.5862L282.411 87.9193C264.316 93.4251 264.316 119.874 282.411 125.38L286.805 126.713C289.514 127.536 292.01 128.973 294.11 130.921C296.211 132.868 297.862 135.275 298.942 137.966C300.023 140.657 300.506 143.563 300.356 146.472C300.206 149.381 299.427 152.218 298.076 154.775L295.878 158.908C286.857 176.012 304.991 194.716 321.56 185.397L325.58 183.144C328.06 181.75 330.81 180.947 333.63 180.792C336.45 180.637 339.268 181.135 341.877 182.25C344.486 183.365 346.82 185.068 348.708 187.234C350.596 189.4 351.99 191.975 352.787 194.769L354.08 199.302C359.418 217.965 385.061 217.965 390.399 199.302L391.691 194.769C392.489 191.975 393.883 189.4 395.771 187.234C397.658 185.068 399.992 183.365 402.601 182.25C405.21 181.135 408.028 180.637 410.848 180.792C413.668 180.947 416.419 181.75 418.898 183.144L422.905 185.41C439.488 194.716 457.622 176.012 448.587 158.921L446.403 154.775C445.051 152.218 444.272 149.381 444.122 146.472C443.972 143.563 444.455 140.657 445.536 137.966C446.617 135.275 448.268 132.868 450.368 130.921C452.468 128.973 454.964 127.536 457.673 126.713L462.068 125.38C480.163 119.874 480.163 93.4251 462.068 87.9193L457.673 86.5862C454.964 85.7636 452.468 84.326 450.368 82.3788C448.268 80.4316 446.617 78.0243 445.536 75.3333C444.455 72.6423 443.972 69.7359 444.122 66.8273C444.272 63.9187 445.051 61.0816 446.403 58.524L448.6 54.3913C457.622 37.2874 439.488 18.5837 422.918 27.9022L418.898 30.1552C416.419 31.5491 413.668 32.3529 410.848 32.5076C408.028 32.6623 405.21 32.164 402.601 31.0492C399.992 29.9345 397.658 28.2316 395.771 26.0654C393.883 23.8991 392.489 21.3245 391.691 18.5304L390.399 13.9978ZM372.239 145.71C362.195 145.71 352.563 141.595 345.461 134.27C338.359 126.944 334.369 117.009 334.369 106.65C334.369 96.2902 338.359 86.355 345.461 79.0298C352.563 71.7045 362.195 67.5892 372.239 67.5892C382.28 67.5892 391.909 71.7031 399.008 79.0259C406.108 86.3486 410.097 96.2804 410.097 106.636C410.097 116.992 406.108 126.924 399.008 134.247C391.909 141.57 382.28 145.683 372.239 145.683V145.71Z" fill="#656A7B"/>
</g>
</svg>
