<svg width="12" height="24" viewBox="0 0 12 24" fill="none" xmlns="http://www.w3.org/2000/svg">
<g id="About Me">
<path id="images 1 (Traced)" fill-rule="evenodd" clip-rule="evenodd" d="M1.35294 3.28839L0 3.91758V6.16678C0 8.96118 0.22353 9.12873 2.34847 7.92521C3.10165 7.49856 3.78141 7.14942 3.85906 7.14942C3.93647 7.14942 4 10.7509 4 15.1526C4 20.2564 4.08824 23.3069 4.24353 23.5734C4.50424 24.0203 5.73929 24.1622 6 23.775C6.08 23.6563 6.44 23.5591 6.8 23.5591C7.552 23.5591 7.92729 23.0146 9.75012 19.2788L10.8376 17.0499L9.41882 13.9834C8.07412 11.0772 7.33976 7.14942 8.14094 7.14942C8.21859 7.14942 8.89835 7.49856 9.65153 7.92521C11.7765 9.12873 12 8.96139 12 6.16635V3.91693L10.6005 3.26853C9.83059 2.91205 9.14094 2.70931 9.06753 2.81813C8.99435 2.92695 9.14376 3.07701 9.39976 3.1515C9.77129 3.25968 9.83741 3.41492 9.72753 3.91952C9.62612 4.38439 9.69059 4.58735 9.9713 4.68624C10.3148 4.80715 10.5621 6.28575 10.2388 6.28575C10.176 6.28575 9.56729 5.96987 8.88588 5.58402C7.79741 4.96736 7.44729 4.88229 6 4.88229C4.55271 4.88229 4.20259 4.96736 3.11412 5.58402C2.43271 5.96987 1.824 6.28575 1.76118 6.28575C1.43788 6.28575 1.68518 4.80715 2.02871 4.68624C2.30635 4.58843 2.37365 4.38396 2.276 3.9355C2.16918 3.4458 2.24518 3.27674 2.64471 3.11307C2.92141 2.99971 3.04847 2.85138 2.92682 2.78315C2.80541 2.71514 2.09694 2.94249 1.35294 3.28839ZM7.48612 15.6283C8.13059 17.0553 8.13576 16.9693 7.30494 18.6176L6.60988 19.9965L6.59906 17.2435C6.58706 14.2011 6.72659 13.9469 7.48612 15.6283Z" fill="#AAAEB9"/>
<path id="images 1 (Traced)_2" d="M7.03459 3.81415C4.79012 4.87927 2.68565 2.03111 4.59341 0.509977C6.00377 -0.614518 8.23529 0.240512 8.23529 1.90523C8.23529 2.87794 7.90682 3.40024 7.03459 3.81415Z" fill="#AAAEB9"/>
</g>
</svg>
