<svg width="12" height="25" viewBox="0 0 12 25" fill="none" xmlns="http://www.w3.org/2000/svg">
<g id="About Me">
<path id="images 1 (Traced)" fill-rule="evenodd" clip-rule="evenodd" d="M1.35294 3.47699L0 4.10617V6.35538C0 9.14978 0.22353 9.31733 2.34847 8.11381C3.10165 7.68716 3.78141 7.33802 3.85906 7.33802C3.93647 7.33802 4 10.9395 4 15.3412C4 20.445 4.08824 23.4955 4.24353 23.762C4.50424 24.2089 5.73929 24.3508 6 23.9636C6.08 23.8449 6.44 23.7477 6.8 23.7477C7.552 23.7477 7.9273 23.2032 9.75012 19.4674L10.8376 17.2385L9.41882 14.172C8.07412 11.2658 7.33977 7.33802 8.14094 7.33802C8.21859 7.33802 8.89835 7.68716 9.65153 8.11381C11.7765 9.31733 12 9.14999 12 6.35495V4.10553L10.6005 3.45713C9.83059 3.10065 9.14094 2.8979 9.06753 3.00673C8.99435 3.11555 9.14376 3.26561 9.39977 3.3401C9.77129 3.44828 9.83741 3.60352 9.72753 4.10812C9.62612 4.57299 9.69059 4.77595 9.9713 4.87484C10.3148 4.99575 10.5621 6.47435 10.2388 6.47435C10.176 6.47435 9.56729 6.15846 8.88588 5.77262C7.79741 5.15596 7.44729 5.07089 6 5.07089C4.55271 5.07089 4.20259 5.15596 3.11412 5.77262C2.43271 6.15846 1.824 6.47435 1.76118 6.47435C1.43788 6.47435 1.68518 4.99575 2.02871 4.87484C2.30635 4.77703 2.37365 4.57255 2.276 4.1241C2.16918 3.6344 2.24518 3.46533 2.64471 3.30167C2.92141 3.18831 3.04847 3.03998 2.92682 2.97175C2.80541 2.90373 2.09694 3.13109 1.35294 3.47699ZM7.48612 15.8169C8.13059 17.2439 8.13577 17.1579 7.30494 18.8062L6.60988 20.1851L6.59906 17.4321C6.58706 14.3897 6.72659 14.1355 7.48612 15.8169Z" fill="#3F424D"/>
<path id="images 1 (Traced)_2" d="M7.03459 4.00275C4.79012 5.06787 2.68565 2.21971 4.59341 0.698575C6.00377 -0.42592 8.23529 0.429111 8.23529 2.09383C8.23529 3.06654 7.90682 3.58884 7.03459 4.00275Z" fill="#656A7B"/>
</g>
</svg>
