<svg width="19" height="24" viewBox="0 0 19 24" fill="none" xmlns="http://www.w3.org/2000/svg">
<g id="Certificate">
<path id="Vector" d="M4.74228 16.9983C4.31797 16.591 4.53916 16.7058 3.51572 16.4428C3.05137 16.3233 2.64316 16.0936 2.27402 15.8185L0.0586902 21.0328C-0.155665 21.5376 0.244725 22.086 0.812108 22.0654L3.38486 21.9712L5.15439 23.7655C5.54502 24.1611 6.23057 24.0378 6.44492 23.533L8.98642 17.5509C8.45713 17.8341 7.86972 18 7.2623 18C6.31015 18 5.41562 17.6442 4.74228 16.9983ZM18.6915 21.0328L16.4762 15.8185C16.107 16.0941 15.6988 16.3233 15.2345 16.4428C14.2057 16.7072 14.4312 16.5919 14.0079 16.9983C13.3346 17.6442 12.4395 18 11.4874 18C10.88 18 10.2926 17.8336 9.76328 17.5509L12.3048 23.533C12.5191 24.0378 13.2052 24.1611 13.5953 23.7655L15.3653 21.9712L17.9381 22.0654C18.5055 22.086 18.9059 21.5371 18.6915 21.0328Z" fill="#AAAEB9"/>
<path id="Vector_2" d="M13.0603 15.9376C13.8064 15.2087 13.8919 15.2715 14.9544 14.9935C15.6326 14.8159 16.1629 14.2979 16.3445 13.6351C16.7098 12.3039 16.615 12.4647 17.6116 11.4906C18.1082 11.0055 18.302 10.2981 18.1204 9.63534C17.7557 8.30506 17.7552 8.49068 18.1204 7.15898C18.302 6.49619 18.1082 5.78886 17.6116 5.30371C16.615 4.32967 16.7098 4.48998 16.3445 3.15922C16.1629 2.49642 15.6326 1.97846 14.9544 1.80081C13.5931 1.4441 13.7571 1.53738 12.7596 0.562867C12.263 0.0777201 11.5389 -0.11212 10.8606 0.0655329C9.49979 0.421776 9.68973 0.422245 8.32645 0.0655329C7.64823 -0.11212 6.92411 0.0772514 6.42753 0.562867C5.43094 1.53691 5.59501 1.4441 4.23319 1.80081C3.55497 1.97846 3.02469 2.49642 2.84305 3.15922C2.47831 4.48998 2.57254 4.32967 1.57596 5.30371C1.07938 5.78886 0.885045 6.49619 1.06717 7.15898C1.43192 8.48833 1.43241 8.30271 1.06717 9.63487C0.885533 10.2977 1.07938 11.005 1.57596 11.4906C2.57254 12.4647 2.47782 12.3039 2.84305 13.6351C3.02469 14.2979 3.55497 14.8159 4.23319 14.9935C5.32596 15.2794 5.40751 15.2344 6.12674 15.9376C6.77274 16.569 7.77909 16.6819 8.55545 16.2104C8.86591 16.0212 9.22605 15.9207 9.59379 15.9207C9.96152 15.9207 10.3217 16.0212 10.6321 16.2104C11.408 16.6819 12.4143 16.569 13.0603 15.9376ZM4.9871 8.24834C4.9871 5.76261 7.0496 3.74749 9.59354 3.74749C12.1375 3.74749 14.2 5.76261 14.2 8.24834C14.2 10.7341 12.1375 12.7492 9.59354 12.7492C7.0496 12.7492 4.9871 10.7341 4.9871 8.24834Z" fill="#AAAEB9"/>
</g>
</svg>
