<svg width="20" height="25" viewBox="0 0 20 25" fill="none" xmlns="http://www.w3.org/2000/svg">
<g id="Certificate">
<path id="Vector" d="M5.36716 17.1869C4.94285 16.7796 5.16404 16.8944 4.1406 16.6314C3.67624 16.5119 3.26804 16.2822 2.8989 16.0071L0.683568 21.2214C0.469213 21.7262 0.869603 22.2746 1.43699 22.254L4.00974 22.1598L5.77927 23.9541C6.1699 24.3497 6.85544 24.2264 7.0698 23.7216L9.6113 17.7395C9.082 18.0227 8.4946 18.1886 7.88718 18.1886C6.93503 18.1886 6.0405 17.8328 5.36716 17.1869ZM19.3164 21.2214L17.101 16.0071C16.7319 16.2827 16.3237 16.5119 15.8594 16.6314C14.8305 16.8958 15.0561 16.7805 14.6328 17.1869C13.9594 17.8328 13.0644 18.1886 12.1123 18.1886C11.5049 18.1886 10.9175 18.0222 10.3882 17.7395L12.9297 23.7216C13.144 24.2264 13.8301 24.3497 14.2202 23.9541L15.9902 22.1598L18.563 22.254C19.1303 22.2746 19.5307 21.7257 19.3164 21.2214Z" fill="#3F424D"/>
<path id="Vector_2" d="M13.6852 16.1262C14.4313 15.3973 14.5168 15.4601 15.5793 15.1821C16.2575 15.0045 16.7878 14.4865 16.9694 13.8237C17.3346 12.4925 17.2399 12.6533 18.2365 11.6792C18.7331 11.1941 18.9269 10.4867 18.7453 9.82394C18.3805 8.49365 18.38 8.67928 18.7453 7.34758C18.9269 6.68478 18.7331 5.97745 18.2365 5.49231C17.2399 4.51827 17.3346 4.67857 16.9694 3.34782C16.7878 2.68502 16.2575 2.16706 15.5793 1.98941C14.2179 1.6327 14.382 1.72598 13.3844 0.751465C12.8879 0.266319 12.1637 0.0764788 11.4855 0.254132C10.1247 0.610374 10.3146 0.610843 8.95133 0.254132C8.27311 0.0764788 7.54899 0.26585 7.0524 0.751465C6.05582 1.72551 6.21988 1.6327 4.85807 1.98941C4.17984 2.16706 3.64957 2.68502 3.46793 3.34782C3.10318 4.67857 3.19742 4.51827 2.20084 5.49231C1.70426 5.97745 1.50992 6.68478 1.69205 7.34758C2.0568 8.67693 2.05729 8.49131 1.69205 9.82347C1.51041 10.4863 1.70426 11.1936 2.20084 11.6792C3.19742 12.6533 3.1027 12.4925 3.46793 13.8237C3.64957 14.4865 4.17984 15.0045 4.85807 15.1821C5.95084 15.468 6.03238 15.423 6.75162 16.1262C7.39762 16.7576 8.40397 16.8705 9.18033 16.399C9.49079 16.2098 9.85093 16.1093 10.2187 16.1093C10.5864 16.1093 10.9465 16.2098 11.257 16.399C12.0329 16.8705 13.0392 16.7576 13.6852 16.1262ZM5.61197 8.43694C5.61197 5.95121 7.67447 3.93609 10.2184 3.93609C12.7624 3.93609 14.8249 5.95121 14.8249 8.43694C14.8249 10.9227 12.7624 12.9378 10.2184 12.9378C7.67447 12.9378 5.61197 10.9227 5.61197 8.43694Z" fill="#656A7B"/>
</g>
</svg>
