<svg width="26" height="26" viewBox="0 0 26 26" fill="none" xmlns="http://www.w3.org/2000/svg">
<g clip-path="url(#clip0_86_566)">
<path d="M21.9517 12.3069C22.1118 11.889 22.2017 11.4319 22.2017 10.9554C22.2017 8.88504 20.522 7.20536 18.4517 7.20536C17.6821 7.20536 16.9634 7.43973 16.3696 7.83817C15.2876 5.96317 13.2681 4.70536 10.9517 4.70536C7.49854 4.70536 4.70166 7.50223 4.70166 10.9554C4.70166 11.0608 4.70557 11.1663 4.70947 11.2718C2.52197 12.0413 0.95166 14.1272 0.95166 16.5804C0.95166 19.6858 3.47119 22.2054 6.57666 22.2054H20.9517C23.7134 22.2054 25.9517 19.9671 25.9517 17.2054C25.9517 14.7874 24.2329 12.7679 21.9517 12.3069ZM16.7603 15.7718L12.6431 19.889C12.4009 20.1311 12.0024 20.1311 11.7603 19.889L7.64307 15.7718C7.24854 15.3772 7.52979 14.7054 8.08447 14.7054H10.6392V10.3304C10.6392 9.98661 10.9204 9.70536 11.2642 9.70536H13.1392C13.4829 9.70536 13.7642 9.98661 13.7642 10.3304V14.7054H16.3188C16.8735 14.7054 17.1548 15.3772 16.7603 15.7718Z" fill="#3F424D"/>
</g>
<defs>
<clipPath id="clip0_86_566">
<rect width="25" height="25" fill="white" transform="translate(0.95166 0.955357)"/>
</clipPath>
</defs>
</svg>
