<svg width="24" height="24" viewBox="0 0 24 24" fill="none" xmlns="http://www.w3.org/2000/svg">
<path d="M12 0C5.37256 0 0 5.37256 0 12C0 18.6274 5.37256 24 12 24C18.6274 24 24 18.6274 24 12C24 5.37256 18.6274 0 12 0ZM17.6678 16.7784C17.5907 16.8687 15.7431 18.9912 12.3524 18.9912C8.2544 18.9912 5.36124 15.9302 5.36124 11.9476C5.36124 8.01358 8.36144 5.00884 12.3175 5.00884C15.5573 5.00884 17.2513 6.8144 17.3218 6.89129C17.4086 6.98598 17.4616 7.10681 17.4725 7.23485C17.4833 7.36289 17.4514 7.49091 17.3817 7.59885L16.2988 9.27571C16.1028 9.57895 15.6807 9.6314 15.4165 9.38676C15.4052 9.3764 14.1328 8.23127 12.4223 8.23127C10.1909 8.23127 8.84569 9.85587 8.84569 11.9127C8.84569 13.8289 10.0802 15.7687 12.4397 15.7687C14.3122 15.7687 15.5985 14.3975 15.6112 14.3836C15.8595 14.1144 16.2915 14.1401 16.5068 14.4346L17.6945 16.059C17.7716 16.1645 17.8109 16.2928 17.8061 16.4234C17.8012 16.5539 17.7525 16.679 17.6678 16.7784Z" fill="white"/>
</svg>
