<svg width="24" height="16" viewBox="0 0 24 16" fill="none" xmlns="http://www.w3.org/2000/svg">
<g id="Discord">
<path id="discord-black-icon-1 1 (Traced)" fill-rule="evenodd" clip-rule="evenodd" d="M8.01725 0.06944C6.52173 0.239035 4.92239 0.798521 3.55116 1.63183L2.97078 1.98454L2.60595 2.6921C1.13434 5.54599 0.234685 8.85583 0.0320417 12.1613C-0.0316831 13.2007 -0.0429382 13.1572 0.415462 13.6454C1.72061 15.0353 4.01197 16 6.00829 16H6.27991L6.89014 15.2917C7.2257 14.9022 7.52123 14.5575 7.54674 14.526C7.5789 14.4862 7.50606 14.4421 7.30947 14.3824C6.16827 14.0361 4.85438 13.2232 4.20299 12.4604C3.97065 12.1883 4.03368 12.1845 4.49267 12.4429C7.43215 14.098 11.5293 14.7489 14.9846 14.1098C16.5649 13.8175 18.4422 13.1492 19.7452 12.415C20.1838 12.168 20.1922 12.1825 19.84 12.5785C19.2673 13.2225 18.2688 13.8586 17.2313 14.2406C16.8947 14.3645 16.578 14.4811 16.5276 14.4998C16.4524 14.5276 16.5516 14.6655 17.0792 15.2668L17.7225 16H17.9763C20.1125 16 22.6393 14.8684 23.8588 13.3656L24 13.1916L23.9697 12.2224C23.8752 9.20064 22.8991 5.55951 21.4148 2.6918L21.0484 1.98395L20.4685 1.63303C19.0534 0.776699 17.354 0.195543 15.8422 0.0509495L15.333 0.00223833L15.1796 0.141762L15.0262 0.281235L15.394 0.39352C17.116 0.919156 19.1354 1.88334 19.969 2.57803C20.1953 2.76661 20.2115 2.77153 19.3794 2.39809C17.6647 1.62845 16.1753 1.21441 14.1003 0.930638C13.3465 0.827548 10.5946 0.843255 9.67871 0.955888C7.45402 1.22942 5.8661 1.66096 4.15378 2.45739C3.43834 2.79017 3.37467 2.77923 3.89942 2.4137C5.04357 1.61677 6.59553 0.897186 8.25843 0.392625C8.55321 0.303155 8.81405 0.2196 8.83806 0.206876C8.89412 0.177251 8.71646 -0.0069075 8.63869 0.000200385C8.60643 0.00318271 8.32677 0.0343479 8.01725 0.06944ZM9.05877 7.29269C10.1292 7.75724 10.5674 8.80637 10.1627 9.93593C9.4498 11.9261 6.68504 11.8347 6.11419 9.80207C5.62674 8.06651 7.38644 6.56689 9.05877 7.29269ZM16.5544 7.29269C17.6811 7.80709 18.1239 9.17022 17.5249 10.2806C16.4887 12.2014 13.569 11.4322 13.5748 9.24005C13.5789 7.66727 15.1401 6.64697 16.5544 7.29269Z" fill="#3F424D"/>
</g>
</svg>
