<svg width="77" height="68" viewBox="0 0 77 68" fill="none" xmlns="http://www.w3.org/2000/svg">
<g id="Group">
<path id="Vector" d="M76.358 34.0078C76.358 28.9494 70.0234 24.1556 60.3113 21.1829C62.5525 11.284 61.5564 3.40856 57.1673 0.887159C56.1556 0.295719 54.9728 0.015564 53.6809 0.015564V3.48638C54.3969 3.48638 54.9728 3.62646 55.4553 3.89105C57.572 5.10506 58.4903 9.72763 57.7743 15.6732C57.6031 17.1362 57.323 18.677 56.9805 20.249C53.93 19.5019 50.5992 18.9261 47.0973 18.5525C44.9961 15.6732 42.8171 13.0584 40.6226 10.7704C45.6965 6.05447 50.4591 3.47082 53.6965 3.47082V0C49.4163 0 43.8132 3.05058 38.1479 8.34241C32.4825 3.08171 26.8794 0.062257 22.5992 0.062257V3.53307C25.821 3.53307 30.5992 6.10117 35.6732 10.786C33.4942 13.0739 31.3152 15.6732 29.2451 18.5525C25.7276 18.9261 22.3969 19.5019 19.3463 20.2646C18.9883 18.7082 18.7237 17.1984 18.537 15.751C17.8054 9.80545 18.7082 5.18288 20.8093 3.95331C21.2763 3.67315 21.8833 3.54864 22.5992 3.54864V0.077821C21.2918 0.077821 20.1089 0.357976 19.0817 0.949416C14.7082 3.47082 13.7276 11.3307 15.9844 21.1984C6.3035 24.1868 0 28.965 0 34.0078C0 39.0661 6.33463 43.8599 16.0467 46.8327C13.8054 56.7315 14.8016 64.607 19.1907 67.1284C20.2023 67.7198 21.3852 68 22.6926 68C26.9728 68 32.5759 64.9494 38.2412 59.6576C43.9066 64.9183 49.5097 67.9377 53.7899 67.9377C55.0973 67.9377 56.2802 67.6576 57.3074 67.0661C61.6809 64.5447 62.6615 56.6848 60.4047 46.8171C70.0545 43.8444 76.358 39.0506 76.358 34.0078ZM56.0934 23.6265C55.5175 25.6342 54.8016 27.7043 53.9922 29.7743C53.3541 28.5292 52.6848 27.284 51.9533 26.0389C51.2374 24.7938 50.4747 23.5798 49.7121 22.3969C51.9222 22.7237 54.0545 23.1284 56.0934 23.6265ZM48.965 40.2023C47.751 42.3035 46.5058 44.2957 45.214 46.1479C42.8949 46.3502 40.5448 46.4591 38.179 46.4591C35.8288 46.4591 33.4786 46.3502 31.1751 46.1634C29.8833 44.3113 28.6226 42.3346 27.4086 40.249C26.2257 38.2101 25.1518 36.1401 24.1712 34.0545C25.1362 31.9689 26.2257 29.8833 27.393 27.8444C28.607 25.7432 29.8521 23.751 31.144 21.8988C33.463 21.6965 35.8132 21.5875 38.179 21.5875C40.5292 21.5875 42.8794 21.6965 45.1829 21.8833C46.4747 23.7354 47.7354 25.7121 48.9494 27.7977C50.1323 29.8366 51.2062 31.9066 52.1868 33.9922C51.2062 36.0778 50.1323 38.1634 48.965 40.2023ZM53.9922 38.179C54.8327 40.2646 55.5486 42.3502 56.1401 44.3735C54.1012 44.8716 51.9533 45.2918 49.7276 45.6187C50.4903 44.4202 51.2529 43.1907 51.9689 41.93C52.6848 40.6848 53.3541 39.4241 53.9922 38.179ZM38.2101 54.786C36.7626 53.2918 35.3152 51.6265 33.8833 49.8054C35.284 49.8677 36.716 49.9144 38.1634 49.9144C39.6265 49.9144 41.0739 49.8833 42.4903 49.8054C41.0895 51.6265 39.642 53.2918 38.2101 54.786ZM26.6304 45.6187C24.4202 45.2918 22.2879 44.8872 20.249 44.3891C20.8249 42.3813 21.5409 40.3113 22.3502 38.2412C22.9883 39.4864 23.6576 40.7315 24.3891 41.9767C25.1206 43.2218 25.8677 44.4358 26.6304 45.6187ZM38.1323 13.2296C39.5798 14.7237 41.0272 16.3891 42.4591 18.2101C41.0584 18.1479 39.6265 18.1012 38.179 18.1012C36.716 18.1012 35.2685 18.1323 33.8521 18.2101C35.2529 16.3891 36.7004 14.7237 38.1323 13.2296ZM26.6148 22.3969C25.8521 23.5953 25.0895 24.8249 24.3735 26.0856C23.6576 27.3307 22.9883 28.5759 22.3502 29.821C21.5097 27.7354 20.7938 25.6498 20.2023 23.6265C22.2412 23.144 24.3891 22.7237 26.6148 22.3969ZM12.5292 41.8833C7.01946 39.5331 3.45525 36.4514 3.45525 34.0078C3.45525 31.5642 7.01946 28.4669 12.5292 26.1323C13.8677 25.5564 15.3307 25.0428 16.8405 24.5603C17.7276 27.6109 18.8949 30.786 20.3424 34.0389C18.9105 37.2763 17.7588 40.4358 16.8872 43.4708C15.3463 42.9883 13.8833 42.4591 12.5292 41.8833ZM20.9027 64.1245C18.786 62.9105 17.8677 58.2879 18.5837 52.3424C18.7549 50.8794 19.035 49.3385 19.3774 47.7665C22.428 48.5136 25.7588 49.0895 29.2607 49.463C31.3619 52.3424 33.5409 54.9572 35.7354 57.2451C30.6615 61.9611 25.8988 64.5447 22.6615 64.5447C21.9611 64.5292 21.3697 64.3891 20.9027 64.1245ZM57.821 52.2646C58.5525 58.2101 57.6498 62.8327 55.5486 64.0623C55.0817 64.3424 54.4747 64.4669 53.7588 64.4669C50.537 64.4669 45.7588 61.8988 40.6848 57.214C42.8638 54.9261 45.0428 52.3268 47.1128 49.4475C50.6304 49.0739 53.9611 48.4981 57.0117 47.7354C57.3697 49.3074 57.6498 50.8171 57.821 52.2646ZM63.8132 41.8833C62.4747 42.4591 61.0117 42.9728 59.5019 43.4553C58.6148 40.4047 57.4475 37.2296 56 33.9767C57.4319 30.7393 58.5837 27.5798 59.4553 24.5447C60.9961 25.0272 62.4591 25.5564 63.8288 26.1323C69.3385 28.4825 72.9027 31.5642 72.9027 34.0078C72.8872 36.4514 69.323 39.5486 63.8132 41.8833Z" fill="#3F424D"/>
<path id="Vector_2" d="M38.1639 41.1206C42.0922 41.1206 45.2767 37.9361 45.2767 34.0077C45.2767 30.0794 42.0922 26.8949 38.1639 26.8949C34.2355 26.8949 31.051 30.0794 31.051 34.0077C31.051 37.9361 34.2355 41.1206 38.1639 41.1206Z" fill="#656A7B"/>
</g>
</svg>
