<svg width="85" height="60" viewBox="0 0 85 60" fill="none" xmlns="http://www.w3.org/2000/svg">
<path d="M21.2383 40.968C20.9183 40.968 20.6303 40.92 20.3743 40.824C20.1183 40.76 19.8303 40.728 19.5103 40.728C19.3823 40.728 19.2703 40.728 19.1743 40.728C19.0783 40.76 18.9503 40.792 18.7903 40.824L18.5023 40.536L17.9743 40.68L16.3903 40.104L16.3423 40.296L14.9503 39.912L14.8063 39.528L14.5663 39.816C14.1823 39.528 13.7343 39.288 13.2223 39.096C12.7103 38.936 12.2143 38.792 11.7343 38.664L11.5903 38.28C11.3983 38.248 11.1743 38.152 10.9183 37.992C10.6943 37.8 10.5023 37.768 10.3423 37.896C10.1183 37.8 9.87831 37.672 9.62231 37.512C9.39831 37.32 9.19031 37.128 8.99831 36.936C8.71031 36.968 8.39031 36.84 8.03831 36.552C7.68631 36.232 7.36631 35.88 7.07831 35.496C6.79031 35.08 6.59831 34.76 6.50231 34.536L5.73431 33.96L4.29431 34.056V33.672H4.10231C3.87831 33.928 3.55831 34.056 3.14231 34.056C2.82231 34.056 2.50231 34.008 2.18231 33.912C1.89431 33.784 1.62231 33.672 1.36631 33.576C1.36631 33.384 1.31831 33.304 1.22231 33.336C1.15831 33.368 1.09431 33.384 1.03031 33.384L1.07831 33L0.550313 32.808L0.262313 31.464C0.454313 31.368 0.646313 31.288 0.838313 31.224C1.03031 31.16 1.22231 31.128 1.41431 31.128C1.60631 31.128 1.75031 31.144 1.84631 31.176V30.888C2.00631 30.92 2.16631 30.968 2.32631 31.032C2.51831 31.064 2.69431 31.08 2.85431 31.08C3.17431 31.08 3.44631 31.016 3.67031 30.888V31.272C3.86231 31.112 4.11831 31.032 4.43831 31.032C4.98231 31.032 5.52631 31.256 6.07031 31.704C6.64631 32.152 7.04631 32.52 7.27031 32.808H8.90231L9.19031 33.096L12.7423 33C12.7743 33.032 12.7903 33.064 12.7903 33.096C12.7903 33.128 12.7743 33.16 12.7423 33.192C12.7103 33.224 12.7423 33.24 12.8383 33.24C12.9023 33.24 13.0303 33.224 13.2223 33.192C13.4463 33.16 13.7663 33.128 14.1823 33.096L14.5183 33.48L15.3343 33.384V33.096L16.3423 33.288C16.5343 33.16 16.9983 33.064 17.7343 33C18.4703 32.904 19.2383 32.824 20.0383 32.76C20.8383 32.696 21.3983 32.648 21.7183 32.616C21.7183 32.552 21.6863 32.36 21.6223 32.04C21.5583 31.72 21.4623 31.688 21.3343 31.944C20.7903 31.4 20.3103 30.792 19.8943 30.12C19.4783 29.416 19.0943 28.744 18.7423 28.104H18.3583L17.7343 26.952L17.5903 27.048L17.4463 26.472C17.4463 26.504 17.3823 26.52 17.2543 26.52L17.1103 25.992L17.2543 25.896C16.9343 25.736 16.6783 25.56 16.4863 25.368C16.2943 25.176 16.1823 24.888 16.1503 24.504L15.7183 24.456C15.6863 24.424 15.7023 24.408 15.7663 24.408C15.8303 24.376 15.8783 24.36 15.9103 24.36L15.0943 23.592L15.1423 22.92H14.5663C14.3743 22.664 14.2143 22.36 14.0863 22.008C13.9583 21.656 13.8303 21.384 13.7023 21.192C13.6063 20.968 13.4783 20.936 13.3183 21.096C13.2223 20.648 13.0303 20.264 12.7423 19.944C12.4543 19.624 12.2783 19.256 12.2143 18.84L12.3583 18.648C11.6543 17.816 11.1583 17.16 10.8703 16.68C10.5823 16.2 10.4063 15.544 10.3423 14.712C10.0223 14.424 9.86231 14.008 9.86231 13.464C9.86231 13.048 9.91031 12.632 10.0063 12.216C10.1343 11.8 10.2143 11.448 10.2463 11.16L10.3423 11.352L10.5343 10.392L10.8223 10.584L10.7263 9.912L11.9743 8.616L12.0703 8.568C12.0703 8.312 12.1823 8.12 12.4063 7.992C12.6623 7.864 12.9023 7.8 13.1263 7.8V7.08L13.7983 6.552C13.8623 6.616 13.9103 6.648 13.9423 6.648C14.0383 6.648 14.1183 6.6 14.1823 6.504C14.2783 6.376 14.2783 6.296 14.1823 6.264C14.5343 6.104 14.8543 5.912 15.1423 5.688C15.4303 5.432 15.7343 5.192 16.0543 4.968L16.1983 5.256C16.2623 5.288 16.2943 5.256 16.2943 5.16C16.2943 5.032 16.3103 4.952 16.3423 4.92L16.9183 4.728C16.7583 4.728 16.6783 4.648 16.6783 4.488C17.1903 4.328 17.6383 4.12 18.0223 3.864C18.4063 3.576 18.8703 3.368 19.4143 3.24L19.2223 3.144L19.7503 3.24L20.1823 2.76L20.3263 3.096V2.952L20.2783 2.76C20.5983 2.728 20.8543 2.632 21.0463 2.472C21.2703 2.312 21.5423 2.216 21.8623 2.184V1.896L24.8863 1.32L24.9823 1.128L25.5583 1.08H25.0783V0.935998L25.9423 0.791997C26.0063 1.048 26.0383 1.144 26.0383 1.08C26.0383 1.016 26.1023 0.935998 26.2303 0.839999C27.0943 0.647998 27.9743 0.551997 28.8703 0.551997C29.3823 0.551997 29.8783 0.599998 30.3583 0.695998C30.8383 0.759997 31.3183 0.903997 31.7983 1.128C31.7663 1.16 31.7503 1.192 31.7503 1.224C31.7503 1.288 31.7983 1.352 31.8943 1.416C32.0223 1.48 32.1503 1.48 32.2783 1.416L33.3343 2.664L33.4783 3.24C34.2143 3.528 34.6783 4.088 34.8703 4.92C34.6463 4.792 34.6463 4.856 34.8703 5.112C35.1263 5.368 35.2223 5.768 35.1583 6.312L35.3023 6.264L35.3503 6.456C35.1263 7.032 34.9983 7.656 34.9663 8.328C34.9663 8.968 34.9183 9.64 34.8223 10.344C34.7583 11.016 34.5183 11.704 34.1023 12.408L33.7663 12.6C33.6383 13.336 33.4623 13.832 33.2383 14.088C33.0143 14.344 32.7743 14.776 32.5183 15.384C32.4863 15.288 32.4383 15.24 32.3743 15.24C32.3103 15.24 32.2623 15.384 32.2303 15.672C32.2303 15.928 32.0863 15.992 31.7983 15.864C31.7983 16.152 31.6703 16.488 31.4143 16.872C31.1583 17.224 30.8703 17.56 30.5503 17.88C30.2623 18.2 30.0383 18.44 29.8783 18.6C29.7503 18.728 29.7823 18.696 29.9743 18.504C29.9423 18.504 29.8463 18.552 29.6863 18.648L29.3983 19.608L27.6703 20.952L26.6143 20.856L26.4223 20.088L25.8463 20.184L25.4623 19.32L25.5583 18.744L25.2703 18.36L26.1343 17.592L26.4223 17.688L26.6143 17.208V17.112C26.7743 17.112 26.8863 17.08 26.9503 17.016C27.0143 16.952 27.1583 16.92 27.3823 16.92L28.0543 15.672C28.0863 15.672 28.1023 15.688 28.1023 15.72C28.1343 15.72 28.1503 15.72 28.1503 15.72C28.2783 15.72 28.3583 15.656 28.3903 15.528C28.4543 15.4 28.4383 15.32 28.3423 15.288L29.3023 14.52V14.136H29.3983L29.4943 14.328C29.5583 14.328 29.6223 14.296 29.6863 14.232C29.7503 14.136 29.7503 14.072 29.6863 14.04L29.3983 13.944L30.0703 13.272C30.1343 13.368 30.1983 13.416 30.2623 13.416C30.3583 13.416 30.4223 13.32 30.4543 13.128C30.5183 12.936 30.4543 12.824 30.2623 12.792C30.4223 12.472 30.5983 12.152 30.7903 11.832C30.9823 11.512 31.2063 11.224 31.4623 10.968L31.7023 10.872L32.2303 9.528L32.5183 9.384L32.5663 8.616L32.9983 8.376L33.1423 7.224L33.4783 7.08C33.5103 6.92 33.5423 6.68 33.5743 6.36C33.6063 6.04 33.6223 5.72 33.6223 5.4C33.6223 5.112 33.5903 4.84 33.5263 4.584C33.4943 4.296 33.4143 4.088 33.2863 3.96C32.8703 3.576 32.2783 3.224 31.5103 2.904C30.7743 2.584 30.1343 2.44 29.5903 2.472L28.9183 2.76L28.5343 2.328C28.4703 2.52 28.3263 2.664 28.1023 2.76C27.8783 2.824 27.6383 2.856 27.3823 2.856C27.1903 2.856 26.9663 2.824 26.7103 2.76C26.1023 3.08 25.5743 3.336 25.1263 3.528C24.7103 3.688 24.0863 3.992 23.2543 4.44L22.6303 4.2V4.728C22.1183 4.92 21.5583 5.224 20.9503 5.64C20.3423 6.024 19.7663 6.2 19.2223 6.168V6.6C18.9343 6.824 18.6463 7.032 18.3583 7.224C18.0703 7.384 17.7663 7.544 17.4463 7.704L17.3983 7.512C17.3343 7.768 17.1263 8.056 16.7743 8.376C16.4223 8.664 16.0383 8.936 15.6223 9.192C15.2383 9.416 14.9183 9.576 14.6623 9.672C14.6303 9.704 14.6623 9.752 14.7583 9.816C14.8863 9.88 14.9503 9.912 14.9503 9.912H14.8543L14.5183 10.392L14.3263 10.152C14.2623 10.472 14.1023 10.664 13.8463 10.728C13.6223 10.792 13.4783 11 13.4143 11.352L13.5583 11.544C13.5263 11.576 13.4143 11.656 13.2223 11.784C13.0623 11.912 13.0783 12.024 13.2703 12.12C12.9503 12.312 12.6783 12.648 12.4543 13.128C12.2623 13.608 12.1663 14.072 12.1663 14.52C12.1663 14.712 12.1983 14.904 12.2623 15.096L11.9743 15.48C12.1983 15.704 12.3103 16.024 12.3103 16.44C12.3103 16.536 12.2943 16.632 12.2623 16.728C12.2623 16.824 12.2463 16.92 12.2143 17.016C12.4703 17.08 12.6623 17.256 12.7903 17.544C12.9183 17.832 12.9823 18.104 12.9823 18.36C13.2383 18.712 13.4623 19.096 13.6543 19.512C13.8783 19.896 14.1663 20.248 14.5183 20.568L14.3263 21.144L15.0943 21.864C15.4463 21.896 15.6543 22.104 15.7183 22.488C15.8143 22.84 16.0223 23.096 16.3423 23.256L16.3903 23.16C16.4543 23.416 16.5663 23.64 16.7263 23.832C16.9183 24.024 17.0463 24.248 17.1103 24.504H17.3983C17.3983 24.728 17.5583 25.032 17.8783 25.416C18.1983 25.8 18.5503 26.168 18.9343 26.52C19.3183 26.872 19.5903 27.144 19.7503 27.336C19.7183 27.4 19.8303 27.576 20.0863 27.864C20.3423 28.152 20.6303 28.456 20.9503 28.776C21.2703 29.096 21.5263 29.352 21.7183 29.544V29.928L22.4863 30.408L22.5823 30.888L23.0623 31.176L22.9663 31.272L23.3983 31.56C23.3983 31.56 23.4143 31.544 23.4463 31.512C23.4783 31.448 23.5103 31.464 23.5423 31.56L23.8303 32.136L24.6943 32.328L24.7903 32.136L25.1743 32.328L25.9423 32.136C25.9103 32.136 25.8943 32.104 25.8943 32.04C25.9263 31.944 25.9743 31.912 26.0383 31.944V32.136L26.3263 31.944C26.5823 31.784 26.9023 31.672 27.2863 31.608C27.6703 31.512 27.9903 31.496 28.2463 31.56C28.4703 31.4 28.7583 31.288 29.1103 31.224C29.4623 31.16 29.7503 31.112 29.9743 31.08V31.032C29.9743 30.872 30.0543 30.76 30.2143 30.696C30.4063 30.632 30.5663 30.632 30.6943 30.696L31.6063 30.024L31.9903 30.168V30.312C31.9583 30.344 31.8623 30.36 31.7023 30.36C31.5743 30.36 31.5743 30.472 31.7023 30.696C31.1583 31.176 30.5823 31.528 29.9743 31.752C29.3983 31.944 28.7583 32.104 28.0543 32.232C27.7343 32.648 27.2703 32.888 26.6623 32.952C26.0543 33.016 25.5263 33.064 25.0783 33.096L25.1743 34.056H25.6543C25.9743 34.76 26.2783 35.432 26.5663 36.072C26.8863 36.712 27.0303 37.432 26.9983 38.232C26.9663 38.2 26.9343 38.184 26.9023 38.184C26.8063 38.184 26.7263 38.264 26.6623 38.424C26.6303 38.584 26.6463 38.696 26.7103 38.76L24.8863 40.536H24.8383C24.7423 40.536 24.6143 40.552 24.4543 40.584C24.2943 40.616 24.2463 40.552 24.3103 40.392L22.7743 40.872L22.3903 40.68C22.1663 40.808 21.9583 40.888 21.7663 40.92C21.5743 40.952 21.3983 40.968 21.2383 40.968ZM18.9823 39.768C19.0463 39.64 19.0623 39.576 19.0303 39.576C19.0303 39.608 19.0943 39.592 19.2223 39.528V39.48L18.9823 39.336C19.2383 39.336 19.4943 39.304 19.7503 39.24C20.0063 39.176 20.2463 39.112 20.4703 39.048C20.5983 39.208 20.7743 39.24 20.9983 39.144C21.2223 39.08 21.2543 39.032 21.0943 39L21.5263 39.048L21.8143 38.664H21.9583C22.0543 38.664 22.1503 38.664 22.2463 38.664C22.3743 38.632 22.4543 38.6 22.4863 38.568C22.6783 38.408 22.8223 38.184 22.9183 37.896C23.0463 37.608 23.2543 37.384 23.5423 37.224C23.5103 37.16 23.4943 37.064 23.4943 36.936C23.4943 36.744 23.5423 36.584 23.6383 36.456C23.4463 36.296 23.3023 36.04 23.2063 35.688C23.1103 35.336 23.0303 35.048 22.9663 34.824C23.0943 34.76 23.1903 34.632 23.2543 34.44C23.0303 34.344 22.8383 34.232 22.6783 34.104C22.5183 33.976 22.3903 33.8 22.2943 33.576L21.4303 33.864L21.0463 33.48V33.672H20.8063V33.96C20.5823 33.96 20.2143 34.008 19.7023 34.104C19.1903 34.168 18.7583 34.2 18.4063 34.2C18.2143 34.2 18.0863 34.184 18.0223 34.152C18.0223 33.96 17.9103 33.832 17.6863 33.768V34.248H17.1583C17.1263 34.152 17.0463 34.056 16.9183 33.96C16.8543 34.088 16.8063 34.152 16.7743 34.152C16.7423 34.12 16.6463 34.12 16.4863 34.152C16.4863 34.152 16.4703 34.12 16.4383 34.056C16.4063 33.96 16.3743 33.928 16.3423 33.96C16.3103 33.992 16.2783 34.056 16.2463 34.152C16.2463 34.216 16.2303 34.28 16.1983 34.344C15.6863 34.344 15.1583 34.328 14.6143 34.296C14.1023 34.264 13.5903 34.248 13.0783 34.248C12.8223 34.248 12.5503 34.248 12.2623 34.248C12.0063 34.248 11.7503 34.28 11.4943 34.344C11.4303 34.344 11.3663 34.36 11.3023 34.392C11.2383 34.392 11.1743 34.392 11.1103 34.392C10.7583 34.392 10.4063 34.344 10.0543 34.248C9.73431 34.12 9.33431 34.056 8.85431 34.056C8.72631 34.056 8.58231 34.072 8.42231 34.104C8.26231 34.104 8.10231 34.12 7.94231 34.152C7.94231 34.216 7.94231 34.264 7.94231 34.296C7.97431 34.328 7.97431 34.376 7.94231 34.44C8.07031 34.44 8.26231 34.568 8.51831 34.824C8.80631 35.048 9.09431 35.304 9.38231 35.592C9.70231 35.88 9.92631 36.072 10.0543 36.168C9.95831 36.2 9.91031 36.296 9.91031 36.456C10.2623 36.328 10.5503 36.36 10.7743 36.552C11.0303 36.712 11.2383 36.904 11.3983 37.128C11.5903 37.352 11.7503 37.48 11.8783 37.512L12.2143 37.464C12.1823 37.72 12.4223 37.896 12.9343 37.992C13.4463 38.056 13.8143 38.152 14.0383 38.28V38.568C14.2303 38.504 14.4223 38.472 14.6143 38.472C15.1583 38.472 15.5903 38.6 15.9103 38.856L15.7183 39H15.8143C16.0063 39 16.1663 39.032 16.2943 39.096C16.4543 39.192 16.6303 39.24 16.8223 39.24H16.8703C16.9663 39.24 17.0463 39.192 17.1103 39.096C17.2063 39.032 17.3183 39.016 17.4463 39.048L17.7343 39.336C17.9583 39.208 18.1663 39.176 18.3583 39.24V39.48C18.4543 39.512 18.5503 39.544 18.6463 39.576C18.7743 39.608 18.8863 39.672 18.9823 39.768ZM44.1452 37.032C43.9212 37.064 43.6492 36.968 43.3292 36.744C43.0092 36.488 42.7852 36.28 42.6572 36.12L42.7052 35.688C42.6732 35.688 42.6412 35.704 42.6092 35.736C42.5772 35.768 42.5452 35.784 42.5132 35.784L42.7052 34.584C42.7692 34.584 42.7852 34.504 42.7532 34.344C42.7532 34.184 42.7532 34.088 42.7532 34.056L42.7052 34.008L42.7532 33.192H42.9452L42.7052 32.952L42.8012 32.232L42.8972 32.184L42.8012 32.04L42.8972 31.512L43.0892 31.416C43.0892 31.352 43.0572 31.288 42.9932 31.224C42.9612 31.128 42.9452 31.048 42.9452 30.984C42.9452 30.856 43.0572 30.68 43.2812 30.456L43.0892 30.36L43.3772 30.12L43.1372 30.024C43.2972 29.896 43.3292 29.784 43.2332 29.688C43.1692 29.56 43.1852 29.432 43.2812 29.304L43.6172 28.824L43.3772 28.584L43.4252 28.296C43.5852 28.296 43.6652 28.248 43.6652 28.152C43.6652 28.088 43.6492 28.008 43.6172 27.912C43.5852 27.816 43.5692 27.72 43.5692 27.624H43.6172L43.6652 27.72L43.8092 26.76L43.9052 26.712V25.992H44.1452L44.0012 25.464L43.9532 25.512L42.9452 27.144L42.6572 27.192L42.2732 27.72L42.5132 27.816L42.3692 28.056H41.9852C42.0492 28.184 42.0812 28.28 42.0812 28.344C42.0812 28.472 42.0012 28.584 41.8412 28.68C41.6812 28.744 41.5692 28.792 41.5052 28.824L41.6012 29.112L41.2172 29.736L40.9772 29.64C40.9772 29.64 40.9612 29.672 40.9292 29.736C40.9292 29.8 40.8972 29.832 40.8332 29.832L40.5932 29.736L40.4972 30.12L40.7372 30.168C40.6092 30.296 40.5132 30.408 40.4492 30.504C40.3852 30.6 40.2252 30.648 39.9692 30.648C39.9372 30.744 39.9692 30.84 40.0652 30.936C39.8092 31.288 39.5212 31.64 39.2012 31.992C38.9132 32.344 38.5932 32.648 38.2412 32.904H38.0972L37.7132 33.288L37.5212 33.192L37.4252 33.528L36.5132 33.912L36.4172 34.152L36.0812 34.056L35.8892 34.344H35.6972C34.9292 34.344 34.2892 34.136 33.7772 33.72C33.6812 33.528 33.6332 33.304 33.6332 33.048C33.5692 33.048 33.5212 33.08 33.4892 33.144C33.4572 33.176 33.4252 33.208 33.3932 33.24L33.1052 32.04L33.2492 31.752L33.1532 31.656L33.2012 31.272H33.3452L33.7292 29.544C33.7612 29.544 33.7772 29.56 33.7772 29.592C33.8092 29.624 33.8412 29.64 33.8732 29.64C33.9372 29.64 33.9692 29.592 33.9692 29.496C33.9692 29.4 33.9532 29.336 33.9212 29.304L33.8252 29.352C33.8892 28.872 34.1292 28.52 34.5452 28.296C34.4812 28.232 34.4492 28.152 34.4492 28.056C34.4492 27.96 34.4652 27.88 34.4972 27.816C34.5612 27.72 34.6092 27.624 34.6412 27.528L34.7852 27.576V27.528L34.7372 27.432L34.9292 27.336C34.9612 27.336 34.9452 27.288 34.8812 27.192C34.8492 27.096 34.8972 27.112 35.0252 27.24V26.904H35.3132C35.4092 26.776 35.4892 26.632 35.5532 26.472C35.6172 26.312 35.6812 26.152 35.7452 25.992H36.2252L36.0812 25.656L36.3212 25.368L36.6092 25.464L36.7532 24.84L37.5212 24.264L37.2812 24.12L37.5692 24.024L37.6172 24.312C37.6172 23.96 37.7612 23.704 38.0492 23.544H38.0972L38.1452 23.784L38.1932 23.688L38.1452 23.448L38.6732 23.064L38.7212 23.256C38.7532 22.936 38.9292 22.696 39.2492 22.536C39.5692 22.344 39.9052 22.168 40.2572 22.008C40.6092 21.848 40.8012 21.672 40.8332 21.48L41.2172 21.528C41.2492 21.496 41.2652 21.448 41.2652 21.384C41.2972 21.288 41.2812 21.24 41.2172 21.24C41.5372 21.208 41.9052 21.096 42.3212 20.904H42.8012L42.5612 20.76L42.6092 20.712C43.1852 20.552 43.7772 20.472 44.3852 20.472C44.8012 20.472 45.1852 20.6 45.5372 20.856L46.4972 21.24C46.5292 21.272 46.4972 21.288 46.4012 21.288C46.3372 21.288 46.3052 21.32 46.3052 21.384C46.3052 21.416 46.3532 21.464 46.4492 21.528C46.5452 21.56 46.6252 21.576 46.6892 21.576L46.7372 21.432C46.7692 21.432 46.7852 21.496 46.7852 21.624C46.8172 21.72 46.8492 21.736 46.8812 21.672L47.2652 22.056H47.0732L46.9772 23.448H46.7852L46.6892 23.688L46.8332 24.024C46.8332 24.056 46.8172 24.12 46.7852 24.216C46.7532 24.28 46.7372 24.264 46.7372 24.168V24.072L46.5932 24.12C46.6252 24.184 46.6412 24.28 46.6412 24.408C46.6412 24.504 46.6252 24.616 46.5932 24.744C46.5932 24.84 46.5772 24.952 46.5452 25.08C46.4172 25.08 46.3372 25.096 46.3052 25.128L46.1612 25.512C46.1292 25.64 46.1452 25.72 46.2092 25.752C46.2732 25.752 46.3052 25.768 46.3052 25.8L46.2092 25.992C46.2092 26.12 46.2092 26.248 46.2092 26.376C46.2412 26.504 46.2412 26.648 46.2092 26.808H45.8252L45.2972 26.856C45.4252 27.048 45.5692 27.208 45.7292 27.336C45.8892 27.432 45.9692 27.48 45.9692 27.48C46.0332 27.544 46.0492 27.608 46.0172 27.672C45.9532 27.832 45.8892 27.992 45.8252 28.152C45.7612 28.312 45.6972 28.472 45.6332 28.632L45.7772 28.68C45.8092 28.712 45.7932 28.728 45.7292 28.728C45.6972 28.728 45.6972 28.744 45.7292 28.776L45.7772 28.824C45.8092 28.856 45.8252 28.904 45.8252 28.968C45.8252 29.096 45.7772 29.224 45.6812 29.352C45.5852 29.48 45.5052 29.624 45.4412 29.784H45.5852C45.5852 30.04 45.5692 30.392 45.5372 30.84C45.5052 31.256 45.4092 31.56 45.2492 31.752H45.2012V31.512H44.9612L45.2972 31.992C45.1692 32.408 45.0892 32.856 45.0572 33.336C45.0252 33.784 44.9772 34.232 44.9132 34.68L45.2492 35.112H45.2972V34.776L45.5852 34.584H45.8252L45.9212 34.92L46.0172 34.344C46.0172 34.312 46.0172 34.296 46.0172 34.296C46.0492 34.296 46.0652 34.296 46.0652 34.296H46.1612C46.2252 34.072 46.2412 33.912 46.2092 33.816C46.4012 33.56 46.6252 33.224 46.8812 32.808C47.1692 32.36 47.4412 31.928 47.6972 31.512C47.9532 31.064 48.1132 30.712 48.1772 30.456C48.2412 30.456 48.2892 30.488 48.3212 30.552C48.3532 30.616 48.3852 30.648 48.4172 30.648C48.4492 30.648 48.4492 30.584 48.4172 30.456C48.4172 30.296 48.3852 30.232 48.3212 30.264C48.4172 30.136 48.4812 29.992 48.5132 29.832C48.5452 29.64 48.6252 29.544 48.7532 29.544C48.9132 29.544 48.9932 29.592 48.9932 29.688C48.9932 29.752 48.9772 29.832 48.9452 29.928C48.9132 29.992 48.8972 30.056 48.8972 30.12L48.8492 31.128L48.5612 31.368L48.6572 31.416H48.7052L48.5612 31.512L48.7052 31.656H48.5612C48.5612 31.816 48.5292 31.976 48.4652 32.136C48.4332 32.296 48.3852 32.456 48.3212 32.616L48.0332 32.712L48.1292 32.904L47.8892 33.24L47.6012 33.288L46.9772 34.872L46.6892 34.824L46.7372 35.208L45.4892 36.648L45.2492 36.6L45.2012 36.888L45.0092 37.032H44.1452ZM35.4572 32.712H35.5532L36.6092 32.184C36.6732 32.248 36.6892 32.28 36.6572 32.28C36.6252 32.28 36.6092 32.28 36.6092 32.28C36.6092 32.376 36.6412 32.456 36.7052 32.52C36.7692 32.552 36.8172 32.568 36.8492 32.568L36.7532 32.088C36.8172 31.896 36.9452 31.848 37.1372 31.944L37.0892 32.04L37.4252 31.896H37.1852C37.1532 31.8 37.1852 31.752 37.2812 31.752L38.0492 31.56C38.0812 31.528 38.0332 31.512 37.9052 31.512C37.7772 31.48 37.7132 31.448 37.7132 31.416L38.0012 31.272C38.2572 31.144 38.4652 31 38.6252 30.84C38.7852 30.68 38.8652 30.6 38.8652 30.6C38.9292 30.696 39.0252 30.744 39.1532 30.744H39.2012V30.12L39.5372 29.784L39.7292 29.832L39.6812 29.592L40.0652 29.448C40.1292 29.16 40.2732 28.952 40.4972 28.824C40.7212 28.664 40.8972 28.488 41.0252 28.296H40.9292C40.9932 28.136 41.1212 28.04 41.3132 28.008C41.5052 27.944 41.6172 27.816 41.6492 27.624L41.5532 27.432L42.0812 27L41.9852 26.952C42.0492 26.888 42.0812 26.824 42.0812 26.76C42.1132 26.664 42.1932 26.632 42.3212 26.664L42.5612 26.712V26.232L42.7532 25.896H43.1372C43.2012 25.704 43.1372 25.608 42.9452 25.608L43.6172 24.696L43.9052 24.84V24.744L43.6172 24.648L43.8092 24.36L44.0012 24.312L44.0492 24.264C43.9532 24.264 43.9212 24.232 43.9532 24.168C43.9852 24.072 44.0492 24.04 44.1452 24.072L44.1932 23.688L44.4332 23.592H44.3372L44.4332 23.352H44.7692L44.6732 22.632L44.7692 22.536L44.6252 22.392C44.5612 22.616 44.4012 22.744 44.1452 22.776C43.8892 22.808 43.6652 22.824 43.4732 22.824C43.5372 22.856 43.5532 22.92 43.5212 23.016C43.4892 23.08 43.4412 23.096 43.3772 23.064L43.0892 22.92H42.9452L43.0892 23.256L42.6572 23.16L42.7532 23.352H42.5132V23.544L42.0812 23.832C42.0492 23.832 41.9052 23.816 41.6492 23.784C41.4252 23.752 41.3772 23.8 41.5052 23.928H41.6012C41.6012 24.088 41.5532 24.152 41.4572 24.12C41.3612 24.088 41.2972 24.072 41.2652 24.072L41.3612 24.12C40.7532 24.408 40.2092 24.824 39.7292 25.368C39.7932 25.4 39.7772 25.448 39.6812 25.512C39.6172 25.576 39.5532 25.56 39.4892 25.464V25.752L39.3932 25.656C39.3932 25.816 39.2972 25.96 39.1052 26.088C38.9132 26.184 38.7372 26.264 38.5772 26.328C38.4812 26.52 38.3692 26.712 38.2412 26.904C38.1132 27.096 37.9692 27.24 37.8092 27.336L37.7132 27.288L37.1852 27.624V27.768C37.1852 28.088 37.0892 28.376 36.8972 28.632C36.7372 28.856 36.5612 29.096 36.3692 29.352L36.2252 29.208L36.0812 29.832H35.7452V30.456H35.3132C35.2812 30.456 35.2812 30.488 35.3132 30.552C35.3452 30.616 35.3932 30.664 35.4572 30.696C35.4252 30.952 35.3452 31.208 35.2172 31.464C35.1212 31.688 35.0572 31.928 35.0252 32.184H35.2652C35.2012 32.44 35.2972 32.552 35.5532 32.52L35.4572 32.712ZM35.5532 30.744C35.5532 30.776 35.5212 30.76 35.4572 30.696V30.648L35.5532 30.696V30.744ZM50.1782 19.992H49.7942L49.8422 19.848L49.7942 19.8C49.6342 19.832 49.4742 19.8 49.3142 19.704C49.4422 19.64 49.4902 19.608 49.4582 19.608C49.4582 19.608 49.4742 19.544 49.5062 19.416C49.3462 19.384 49.2662 19.336 49.2662 19.272C49.2982 19.176 49.3142 19.064 49.3142 18.936L49.4102 18.696C49.6022 18.696 49.6982 18.728 49.6982 18.792C49.7302 18.824 49.7622 18.744 49.7942 18.552C49.7942 18.552 49.7782 18.536 49.7462 18.504C49.7142 18.472 49.6822 18.472 49.6502 18.504L49.6022 18.312L49.9862 18.456C49.9862 18.136 50.0182 17.944 50.0822 17.88C50.1462 17.816 50.3382 17.784 50.6582 17.784L50.5622 17.16H50.6582C50.7862 17.384 50.8662 17.496 50.8982 17.496C50.9622 17.496 51.0422 17.352 51.1382 17.064C50.9462 17.064 50.8182 17.048 50.7542 17.016H50.9462C51.0742 16.952 51.1702 16.92 51.2342 16.92H51.3782C51.5062 16.92 51.5702 16.792 51.5702 16.536H51.7142C51.8422 16.408 52.0022 16.328 52.1942 16.296V16.68C52.2902 16.712 52.4662 16.792 52.7222 16.92C52.5942 17.112 52.4342 17.288 52.2422 17.448C52.0502 17.608 51.9062 17.816 51.8102 18.072C51.6822 18.36 51.6342 18.68 51.6662 19.032C51.7302 19.384 51.5542 19.64 51.1382 19.8C51.0422 19.832 50.9622 19.864 50.8982 19.896C50.8342 19.896 50.7702 19.896 50.7062 19.896C50.5142 19.896 50.3382 19.832 50.1782 19.704V19.992ZM42.0182 59.112C41.8262 59.176 41.7302 59.144 41.7302 59.016C41.7302 58.92 41.6982 58.888 41.6342 58.92L41.3942 59.016C41.1062 58.888 40.8022 58.584 40.4822 58.104C40.1302 57.624 39.8422 57.096 39.6182 56.52C39.3622 55.976 39.2182 55.56 39.1862 55.272C39.2502 55.208 39.2822 55.16 39.2822 55.128C39.2822 55.064 39.2502 54.984 39.1862 54.888C39.1222 54.824 39.0902 54.776 39.0902 54.744C39.0902 54.744 39.1062 54.632 39.1382 54.408C39.1702 54.216 39.1222 54.12 38.9942 54.12L39.1862 53.592C39.1542 53.528 39.1222 53.56 39.0902 53.688C39.0262 53.816 38.9942 53.896 38.9942 53.928C38.9622 53.864 38.9462 53.768 38.9462 53.64C38.9462 53.416 38.9942 53.192 39.0902 52.968C39.1862 52.776 39.2822 52.6 39.3782 52.44L38.9942 51.816L39.1862 50.808L39.4742 50.712L39.3782 49.944C39.6982 49.784 39.7942 49.496 39.6662 49.08L40.0502 48.888L39.9542 48.408L40.4342 48.12L40.2422 47.736L40.9142 47.448L40.6262 47.16C40.8502 46.776 41.1382 46.408 41.4902 46.056C41.8102 45.704 42.1302 45.368 42.4502 45.048V44.952L43.3142 43.992L43.4582 44.04C43.4902 43.624 43.6822 43.304 44.0342 43.08C44.3862 42.856 44.6582 42.584 44.8502 42.264L45.3782 42.408L45.4742 41.88C45.7942 41.464 46.2742 41.256 46.9142 41.256C46.8822 41 46.9782 40.712 47.2022 40.392C47.4582 40.072 47.7462 39.784 48.0662 39.528C48.4182 39.304 48.7062 39.192 48.9302 39.192C48.8662 39.128 48.8342 39.08 48.8342 39.048C48.8342 38.952 48.9302 38.888 49.1222 38.856C49.3462 38.824 49.3782 38.728 49.2182 38.568H49.7942C49.7622 38.472 49.7462 38.36 49.7462 38.232C49.7462 38.04 49.8102 37.896 49.9382 37.8C50.0662 37.672 50.1462 37.496 50.1782 37.272H49.8902C49.9862 36.696 50.1622 36.248 50.4182 35.928C50.3862 35.896 50.3862 35.816 50.4182 35.688C50.4502 35.56 50.4822 35.528 50.5142 35.592L50.5622 35.208C50.5302 35.016 50.5142 34.696 50.5142 34.248C50.5462 33.8 50.5622 33.512 50.5622 33.384L50.8502 33.288H50.5622C50.5942 32.808 50.7222 32.28 50.9462 31.704L50.7542 30.936C50.7542 30.904 50.8022 30.808 50.8982 30.648C51.0262 30.456 51.0102 30.424 50.8502 30.552C50.8502 30.04 50.8822 29.608 50.9462 29.256C51.0102 28.872 51.0902 28.424 51.1862 27.912L51.0902 27.768C51.0902 27.704 51.1062 27.688 51.1382 27.72C51.2022 27.72 51.2342 27.72 51.2342 27.72C51.3622 27.656 51.3622 27.544 51.2342 27.384C51.1062 27.288 51.0422 27.112 51.0422 26.856C51.0422 26.696 51.0582 26.52 51.0902 26.328C51.1542 26.104 51.2022 25.944 51.2342 25.848C51.2022 25.784 51.1702 25.8 51.1382 25.896C51.1062 25.96 51.0742 26.008 51.0422 26.04V25.464C50.9782 25.336 50.9462 25.224 50.9462 25.128C50.9462 24.968 50.9782 24.84 51.0422 24.744C51.1062 24.616 51.1702 24.504 51.2342 24.408C51.1382 24.088 51.0422 23.784 50.9462 23.496C50.8822 23.208 50.8182 22.904 50.7542 22.584C50.8182 22.52 50.8982 22.536 50.9942 22.632C51.0902 22.728 51.1062 22.808 51.0422 22.872L51.6182 22.968L51.9542 23.544L52.1942 23.64L52.7222 24.216V25.176L52.8662 25.464V25.608C52.8662 25.768 52.8182 25.928 52.7222 26.088C52.6262 26.248 52.5782 26.408 52.5782 26.568C52.7702 26.568 52.8662 26.648 52.8662 26.808C52.8022 27.128 52.7382 27.576 52.6742 28.152C52.6422 28.696 52.6102 29.256 52.5782 29.832C52.5782 30.408 52.5782 30.888 52.5782 31.272H52.6262C52.6582 31.272 52.6742 31.272 52.6742 31.272C52.7062 31.24 52.7222 31.224 52.7222 31.224C52.7862 31.224 52.8182 31.288 52.8182 31.416C52.8182 31.48 52.8022 31.576 52.7702 31.704C52.7702 31.832 52.7542 32.008 52.7222 32.232L52.3382 32.328L52.1942 32.808C52.2582 32.84 52.2902 32.824 52.2902 32.76C52.3222 32.664 52.3542 32.616 52.3862 32.616V32.808L52.5782 33.096L52.4822 33.672H52.1942L52.3862 34.248C52.2582 34.28 52.1462 34.472 52.0502 34.824C51.9862 35.144 51.9542 35.368 51.9542 35.496L52.0502 35.4C52.1142 35.4 52.1462 35.48 52.1462 35.64C52.1782 35.8 52.1942 35.912 52.1942 35.976L53.1062 35.304V34.824H53.3462L53.7302 33.96C53.7942 34.056 53.8742 34.04 53.9702 33.912C54.0982 33.784 54.0822 33.704 53.9222 33.672L54.4022 33.384L54.7862 32.424H55.1222V31.944L55.5062 31.704V31.272L55.7942 31.176L55.8902 30.504L56.0342 30.648V30.504L56.2742 29.736L56.5622 29.784L56.7062 29.256L56.9462 29.304C57.0102 29.56 57.0422 29.736 57.0422 29.832C57.0422 30.248 56.9302 30.648 56.7062 31.032C56.5142 31.384 56.2582 31.688 55.9382 31.944L56.0342 32.328L55.6502 32.616L55.1702 33.768L55.1222 33.48L54.7382 34.056L55.0262 34.152C54.8342 34.504 54.6262 34.76 54.4022 34.92C54.2102 35.048 53.9222 35.144 53.5382 35.208C53.5062 35.24 53.5542 35.288 53.6822 35.352C53.8102 35.384 53.8742 35.4 53.8742 35.4L53.7302 35.784C53.5382 35.944 53.3462 36.12 53.1542 36.312C52.9622 36.504 52.7382 36.648 52.4822 36.744V37.128L51.9542 37.32L51.4262 38.28L51.6182 38.424V38.856L51.0422 39.048L51.3302 39.336L51.4262 39.24V39.72C51.3942 39.752 51.2822 40.104 51.0902 40.776C50.9302 41.448 50.7222 42.232 50.4662 43.128C50.2422 44.024 50.0342 44.84 49.8422 45.576C49.6822 46.312 49.6022 46.744 49.6022 46.872C49.4742 46.712 49.3622 46.808 49.2662 47.16C49.1702 47.544 49.0902 47.944 49.0262 48.36C48.9622 48.808 48.9302 49.08 48.9302 49.176L48.4502 49.272L48.1622 49.752H48.7382C48.4822 50.104 48.3382 50.408 48.3062 50.664C48.3062 50.92 48.2582 51.192 48.1622 51.48C48.0982 51.8 47.8102 52.216 47.2982 52.728H47.5862L47.3942 53.832L46.9142 53.736C46.8822 53.768 46.8822 53.816 46.9142 53.88C46.9782 53.944 47.0422 53.976 47.1062 53.976C47.1062 54.392 46.9942 54.696 46.7702 54.888C46.8982 55.112 46.8502 55.416 46.6262 55.8C46.4342 56.216 46.3062 56.552 46.2422 56.808L45.9542 56.904C45.9222 56.936 45.9542 56.952 46.0502 56.952C46.1462 56.952 46.1782 56.968 46.1462 57C46.0822 57.032 45.9862 57.016 45.8582 56.952C45.6982 56.888 45.6182 56.904 45.6182 57L45.8582 57.576L45.3782 57.672C45.3462 57.864 45.3462 58.008 45.3782 58.104C45.3782 58.2 45.3302 58.28 45.2342 58.344L44.7062 58.632C44.7702 58.696 44.7702 58.76 44.7062 58.824L43.0742 59.016C42.6262 58.792 42.4022 58.52 42.4022 58.2C42.4022 57.976 42.4662 57.736 42.5942 57.48C42.7222 57.224 42.8022 56.952 42.8342 56.664H43.1702C43.2022 56.696 43.1862 56.712 43.1222 56.712C43.0582 56.744 43.0422 56.776 43.0742 56.808C43.0742 56.84 43.1062 56.872 43.1702 56.904C43.2022 56.936 43.2182 56.936 43.2182 56.904C43.2502 56.872 43.2662 56.808 43.2662 56.712C43.2662 56.456 43.2342 56.264 43.1702 56.136H43.6982V56.04H43.3142C43.3462 55.592 43.4902 55.176 43.7462 54.792C43.9702 54.44 44.1942 54.088 44.4182 53.736C44.6102 53.384 44.6742 53.048 44.6102 52.728L44.8502 52.056C44.9782 52.216 45.1062 52.152 45.2342 51.864C45.3302 51.608 45.4262 51.288 45.5222 50.904C45.5862 50.552 45.6182 50.344 45.6182 50.28L46.0022 50.04L45.8582 49.656L46.1462 49.56C46.1462 49.56 46.1142 49.544 46.0502 49.512C45.9862 49.512 45.9542 49.464 45.9542 49.368L46.3382 49.08C46.3062 48.984 46.3702 48.68 46.5302 48.168C46.6902 47.688 46.8822 47.112 47.1062 46.44C47.3622 45.768 47.5862 45.128 47.7782 44.52C48.0022 43.944 48.1302 43.528 48.1622 43.272H48.4502C48.4502 43.208 48.4342 43.16 48.4022 43.128C48.4022 43.096 48.4022 43.064 48.4022 43.032C48.4022 42.872 48.4182 42.696 48.4502 42.504C48.5142 42.344 48.5462 42.184 48.5462 42.024C48.6102 42.056 48.6422 41.96 48.6422 41.736L48.8342 41.112L49.3142 40.968V40.824C49.3142 40.664 49.2982 40.504 49.2662 40.344C49.2342 40.216 49.2182 40.088 49.2182 39.96H49.1222C48.9302 40.184 48.6902 40.36 48.4022 40.488C48.1142 40.648 47.8102 40.76 47.4902 40.824V40.872L47.8742 41.112C47.3622 41.24 46.9302 41.496 46.5782 41.88C46.2262 42.296 45.9062 42.712 45.6182 43.128C45.5862 43.032 45.5222 43.032 45.4262 43.128C45.2982 43.224 45.2822 43.32 45.3782 43.416C45.1862 43.544 45.0102 43.752 44.8502 44.04C44.6902 44.328 44.5142 44.504 44.3222 44.568L43.9382 44.664L44.0822 44.808C43.8262 45 43.6182 45.256 43.4582 45.576C43.2662 45.928 43.0902 46.232 42.9302 46.488H42.6422C42.6742 46.84 42.5942 47.176 42.4022 47.496C42.2102 47.816 42.0822 48.152 42.0182 48.504L41.4902 48.6L41.6822 49.08L41.2982 49.176V50.52C41.2662 50.456 41.2502 50.424 41.2502 50.424C41.2182 50.424 41.2022 50.424 41.2022 50.424C41.1382 50.424 41.1062 50.536 41.1062 50.76C41.1062 51.016 41.1062 51.16 41.1062 51.192L40.4342 51.528L40.5302 51.912H40.6262C40.6902 51.752 40.7222 51.656 40.7222 51.624C40.6902 51.592 40.7862 51.56 41.0102 51.528C40.9782 51.944 40.8182 52.376 40.5302 52.824C40.6582 52.984 40.7222 53.208 40.7222 53.496C40.7222 53.752 40.6742 54.008 40.5782 54.264C40.4822 54.552 40.4342 54.824 40.4342 55.08H40.4822C40.6422 55.08 40.7382 55.24 40.7702 55.56C40.8022 55.88 40.8342 56.104 40.8662 56.232L40.5302 56.808L40.8662 56.904L41.0102 57.864C41.2022 58.024 41.3942 58.2 41.5862 58.392C41.7782 58.616 41.9222 58.856 42.0182 59.112ZM60.2121 23.352C59.9241 23.352 59.6041 23.24 59.2521 23.016L59.1081 22.968H59.0121C58.9801 22.936 58.9481 22.92 58.9161 22.92C58.9161 22.856 58.9321 22.808 58.9641 22.776H58.7241L58.7721 22.2C58.9641 22.2 59.0761 22.152 59.1081 22.056L59.0121 22.008H59.1561V21.864C59.1561 21.672 59.2041 21.528 59.3001 21.432C59.3961 21.304 59.5081 21.176 59.6361 21.048C59.7001 21.08 59.7641 21.096 59.8281 21.096C59.9241 21.096 59.9881 21.128 60.0201 21.192C59.9881 21 59.9881 20.824 60.0201 20.664L60.1641 20.712C60.2281 20.456 60.3721 20.296 60.5961 20.232C60.8521 20.136 61.0761 20.04 61.2681 19.944L61.3161 20.232L61.4121 20.184V20.04H61.6521C61.7161 19.848 61.8281 19.752 61.9881 19.752L62.0361 19.944C62.1641 19.816 62.3081 19.752 62.4681 19.752C62.7241 19.848 62.7721 20.008 62.6121 20.232C62.5481 20.264 62.4841 20.36 62.4201 20.52C62.3561 20.36 62.2761 20.264 62.1801 20.232L62.1321 20.568L62.0841 20.376H62.0361L62.1321 20.76C62.0361 20.792 61.9721 20.84 61.9401 20.904C61.9081 20.968 61.8601 21.032 61.7961 21.096C61.7321 21.16 61.6681 21.176 61.6041 21.144C61.5401 21.112 61.4761 21.144 61.4121 21.24C61.4761 21.208 61.5721 21.208 61.7001 21.24C61.6041 21.24 61.5401 21.256 61.5081 21.288L61.7001 21.336C61.5721 21.464 61.4761 21.624 61.4121 21.816C61.3481 21.976 61.2841 22.136 61.2201 22.296H60.9801V22.584L61.1241 22.632C61.0281 22.728 60.9161 22.776 60.7881 22.776L60.8361 23.016C60.8041 23.08 60.7241 23.16 60.5961 23.256C60.5001 23.32 60.3721 23.352 60.2121 23.352ZM57.2361 37.848C57.0761 37.848 56.9641 37.768 56.9001 37.608L56.7081 37.752L56.5161 37.608L56.7081 37.368L56.6121 37.176H56.5161V37.368L56.2761 37.32L56.1801 37.032C56.1801 37.032 56.1961 37.032 56.2281 37.032C56.2921 37 56.3081 36.968 56.2761 36.936H56.0361C56.0361 36.872 56.0361 36.808 56.0361 36.744C56.0681 36.648 56.1161 36.584 56.1801 36.552C56.0201 36.424 55.9401 36.12 55.9401 35.64C55.9401 35.128 55.9401 34.808 55.9401 34.68L56.0361 34.248H56.2281L56.0361 33.48C56.0361 33.448 56.0841 33.464 56.1801 33.528C56.2761 33.56 56.3241 33.576 56.3241 33.576V33.336C56.2921 33.272 56.2281 33.208 56.1321 33.144C56.0681 33.048 56.0361 32.952 56.0361 32.856L56.0841 32.808C56.2121 32.52 56.2921 32.216 56.3241 31.896C56.3881 31.576 56.4521 31.272 56.5161 30.984L56.3721 30.888L56.4201 30.408C56.4521 30.344 56.4841 30.344 56.5161 30.408C56.5481 30.44 56.5641 30.456 56.5641 30.456H56.7561C56.7241 30.392 56.6761 30.328 56.6121 30.264C56.5801 30.168 56.5641 30.056 56.5641 29.928L56.7081 29.784C56.6441 29.752 56.6121 29.672 56.6121 29.544C56.6121 29.416 56.6281 29.304 56.6601 29.208C56.6921 29.08 56.7241 29 56.7561 28.968L56.7081 28.824C56.8681 28.76 56.9321 28.616 56.9001 28.392C56.9001 28.136 56.9161 27.912 56.9481 27.72C57.0121 27.496 57.2201 27.4 57.5721 27.432C57.5401 27.368 57.5081 27.304 57.4761 27.24C57.4441 27.176 57.3961 27.128 57.3321 27.096H57.2361V26.76L57.6681 26.28L57.5721 26.088L57.7161 25.992V25.944C57.7161 25.784 57.7801 25.672 57.9081 25.608C58.0361 25.512 58.1641 25.448 58.2921 25.416L58.2441 25.272H58.4361L58.4841 25.464L58.4361 25.512H58.5801C58.5801 25.384 58.5801 25.32 58.5801 25.32C58.5801 25.32 58.6921 25.304 58.9161 25.272L59.0601 25.656C59.5081 25.784 59.7961 25.976 59.9241 26.232C60.0841 26.488 60.2281 26.808 60.3561 27.192L60.5001 27.096V27.192C60.5001 27.448 60.3881 27.64 60.1641 27.768L60.1161 27.72C60.1481 27.816 60.1641 27.896 60.1641 27.96C60.1641 28.024 60.0841 28.088 59.9241 28.152C59.8921 28.344 59.8441 28.552 59.7801 28.776C59.7161 29 59.6521 29.208 59.5881 29.4C59.5881 29.336 59.5561 29.336 59.4921 29.4C59.4281 29.432 59.4281 29.48 59.4921 29.544L59.3001 29.64H59.4441C59.3801 29.928 59.2681 30.216 59.1081 30.504C58.9481 30.792 58.8841 31.08 58.9161 31.368H58.6281L58.6761 31.704L58.7721 31.656C58.7401 31.752 58.7081 31.848 58.6761 31.944C58.6441 32.008 58.6281 32.104 58.6281 32.232H58.4841L58.6281 32.328H58.5801L58.6281 32.424L58.4841 32.856H58.2921L58.3881 33.24C58.3241 33.304 58.2281 33.288 58.1001 33.192C58.1001 33.384 58.1801 33.544 58.3401 33.672L58.1481 34.488H57.9561L58.0521 34.632L58.1481 34.536L58.0521 35.64V35.688H58.3881L58.4361 35.976C58.5961 35.912 58.7721 35.864 58.9641 35.832C59.1561 35.8 59.3321 35.752 59.4921 35.688L59.5881 35.496L59.8761 35.544V35.352L59.7801 35.304L60.1161 35.064V35.112L60.1641 34.968L60.3081 35.016C60.3081 34.92 60.3401 34.856 60.4041 34.824C60.4681 34.76 60.5161 34.664 60.5481 34.536L60.7401 34.68L61.1721 34.2C61.1721 34.2 61.1241 34.168 61.0281 34.104L61.1241 33.864L61.4121 33.768C61.3801 33.736 61.3641 33.688 61.3641 33.624C61.3641 33.56 61.3961 33.512 61.4601 33.48C61.5561 33.416 61.6201 33.336 61.6521 33.24C61.6201 33.24 61.6041 33.224 61.6041 33.192C61.6041 33.128 61.6201 33.096 61.6521 33.096L61.9881 33.048C62.0201 32.92 62.0361 32.808 62.0361 32.712C62.0361 32.584 62.0521 32.456 62.0841 32.328C62.1161 32.296 62.1321 32.312 62.1321 32.376C62.1641 32.408 62.1801 32.44 62.1801 32.472C62.2441 32.536 62.3081 32.536 62.3721 32.472V32.328L62.5161 32.28L62.2281 32.184L62.4681 32.136H62.3721V31.944C62.5321 31.848 62.6441 31.688 62.7081 31.464C62.8041 31.208 62.8681 31 62.9001 30.84L63.0441 30.888V30.6L63.1881 30.552C63.0921 30.552 63.0761 30.52 63.1401 30.456H63.3321C63.3001 30.104 63.3801 29.816 63.5721 29.592C63.7641 29.336 63.8921 29.064 63.9561 28.776H64.1481V28.584H64.5801C64.5801 28.776 64.5481 28.872 64.4841 28.872C64.4521 28.872 64.4041 28.936 64.3401 29.064L64.5321 29.544L64.4361 29.688L64.2441 29.592L64.3401 29.88L64.1961 29.784L64.2441 30.168L64.1481 30.12C64.1161 30.248 64.0361 30.52 63.9081 30.936C63.8121 31.32 63.6841 31.56 63.5241 31.656L63.3321 31.608C63.3321 31.672 63.3481 31.736 63.3801 31.8C63.4121 31.864 63.4441 31.928 63.4761 31.992L63.2361 32.472L63.0441 32.376C63.0761 32.664 62.9801 32.984 62.7561 33.336C62.5321 33.656 62.3401 33.944 62.1801 34.2H61.8921C61.8921 34.328 61.8761 34.44 61.8441 34.536C61.8121 34.632 61.7961 34.76 61.7961 34.92L61.4601 35.064L61.6521 35.112L61.3161 35.256V35.304C61.3161 35.432 61.2681 35.56 61.1721 35.688C61.1081 35.784 61.0601 35.864 61.0281 35.928L60.7401 35.88V36.216H60.5001C60.5001 36.376 60.4361 36.504 60.3081 36.6C60.3081 36.568 60.2761 36.552 60.2121 36.552C60.1801 36.52 60.1481 36.52 60.1161 36.552C60.1801 36.616 60.1801 36.696 60.1161 36.792C60.0521 36.856 59.9881 36.904 59.9241 36.936L59.7801 36.888V37.08C59.4921 37.368 59.0921 37.544 58.5801 37.608L58.5321 37.704L58.2921 37.8V37.608C58.1001 37.64 57.9561 37.688 57.8601 37.752C57.7961 37.816 57.6361 37.848 57.3801 37.848L57.3321 37.704H57.2841L57.2361 37.848ZM58.2921 32.376L58.4841 32.472L58.5801 32.328L58.2921 32.376ZM83.6582 43.176L82.3622 43.704L82.1222 43.464C82.0902 43.464 82.0902 43.48 82.1222 43.512C82.1542 43.576 82.1702 43.64 82.1702 43.704L81.4022 43.608L79.2902 41.832C79.1622 41.576 79.0022 41.208 78.8102 40.728C78.6182 40.248 78.3782 39.96 78.0902 39.864L78.1862 39.768L77.8502 39.24C77.8822 39.208 77.9142 39.192 77.9462 39.192C78.0102 39.192 78.0422 39.176 78.0422 39.144L77.7062 39.048L77.7542 38.472L77.8502 38.568C77.8182 38.472 77.7542 38.296 77.6582 38.04C77.5622 37.784 77.4502 37.56 77.3222 37.368C77.1942 37.144 77.0822 37.064 76.9862 37.128C76.9542 36.968 76.9062 36.744 76.8422 36.456C76.8102 36.168 76.7142 35.96 76.5542 35.832C76.6182 35.736 76.6502 35.56 76.6502 35.304C76.6502 34.856 76.5062 34.424 76.2182 34.008C76.3462 33.816 76.3302 33.528 76.1702 33.144C76.0422 32.76 75.9142 32.488 75.7862 32.328L75.9302 31.704L75.6422 31.416L75.4022 29.544C75.4342 29.512 75.4502 29.48 75.4502 29.448H75.4022V29.064C74.8902 29.768 74.2822 30.488 73.5782 31.224C72.8742 31.928 72.3142 32.664 71.8982 33.432L71.5622 33.384C71.4662 33.48 71.3062 33.72 71.0822 34.104C70.8582 34.456 70.6182 34.76 70.3622 35.016C70.1382 35.272 69.9142 35.304 69.6902 35.112L68.7782 35.928L68.8742 36.024C68.6502 36.152 68.2342 36.376 67.6262 36.696C67.0502 37.016 66.5382 37.176 66.0902 37.176C65.8662 37.176 65.6902 37.112 65.5622 36.984L65.0342 37.08V37.224L63.9782 37.128V36.984L62.9222 36.264V36.552L62.1062 35.976C62.0742 35.944 62.0742 35.928 62.1062 35.928C62.1702 35.896 62.2182 35.88 62.2502 35.88L61.8182 35.64L61.4822 34.248C61.6742 34.248 61.7702 34.136 61.7702 33.912C61.7702 33.752 61.7222 33.544 61.6262 33.288C61.5622 33.032 61.5142 32.824 61.4822 32.664H61.7702C61.6422 32.504 61.6262 32.248 61.7222 31.896C61.8182 31.544 61.9622 31.192 62.1542 30.84C62.3462 30.488 62.5062 30.248 62.6342 30.12C62.6662 30.248 62.7142 30.264 62.7782 30.168C62.8742 30.072 62.8742 30.008 62.7782 29.976L63.1622 29.64H63.4022C63.4342 29.512 63.5622 29.272 63.7862 28.92C64.0102 28.536 64.2502 28.216 64.5062 27.96C64.7622 27.704 64.9542 27.72 65.0822 28.008C65.4662 27.272 66.0742 26.792 66.9062 26.568L66.8582 26.376L67.7702 26.232L68.1542 25.896L68.0582 25.752L69.1622 25.608L68.9222 25.416C69.2742 25.384 69.6102 25.32 69.9302 25.224C70.2822 25.096 70.6182 25.048 70.9382 25.08V24.792C71.5782 24.632 72.2182 24.52 72.8582 24.456C73.5302 24.392 74.1862 24.344 74.8262 24.312V24.12L75.0662 23.496H74.8262L74.7302 22.92C74.9222 23.016 75.0342 23.064 75.0662 23.064C75.1302 23.064 75.1622 23.032 75.1622 22.968C75.1622 22.904 75.1142 22.808 75.0182 22.68C74.9542 22.552 74.8902 22.456 74.8262 22.392H75.0662C75.0982 22.328 75.1142 22.264 75.1142 22.2C75.1142 22.072 74.9862 22.072 74.7302 22.2L74.8742 21.432C74.7782 21.048 74.7302 20.632 74.7302 20.184C74.7302 19.448 74.8262 18.776 75.0182 18.168L74.6822 18.456C74.6822 17.88 74.6822 17.304 74.6822 16.728C74.6822 16.12 74.7942 15.544 75.0182 15L74.6822 15.048L74.7302 12.888L75.0182 12.792C74.9862 12.536 74.9382 12.28 74.8742 12.024C74.8422 11.768 74.8262 11.512 74.8262 11.256C74.8262 11 74.8422 10.744 74.8742 10.488C74.9382 10.2 74.9862 9.928 75.0182 9.672L75.3062 9.48L75.1142 9.048H75.3062C75.3382 8.984 75.3382 8.904 75.3062 8.808C75.2742 8.712 75.2742 8.648 75.3062 8.616L75.5942 8.52L75.3542 8.424C75.3222 8.424 75.2902 8.44 75.2582 8.472C75.2582 8.472 75.2262 8.44 75.1622 8.376C75.2262 8.152 75.2582 7.848 75.2582 7.464C75.2902 7.08 75.3542 6.712 75.4502 6.36C75.5462 6.008 75.7062 5.784 75.9302 5.688L75.7862 5.496L76.5062 4.008L76.8422 3.864C77.1302 3.896 77.4182 3.944 77.7062 4.008C77.9942 4.072 78.2502 4.184 78.4742 4.344C78.7942 4.28 79.0982 4.376 79.3862 4.632C79.7062 4.888 79.9942 5.192 80.2502 5.544C80.5062 5.896 80.6822 6.184 80.7782 6.408H80.9222L80.7302 7.08H80.9222V6.792L81.0182 6.888L81.0662 7.704C81.1302 7.736 81.1622 7.704 81.1622 7.608C81.1942 7.48 81.2262 7.416 81.2582 7.416L81.4502 7.752L81.2582 8.136L81.5942 8.184L81.7382 8.712L81.5942 8.568C81.5622 8.568 81.5622 8.632 81.5942 8.76C81.6582 8.856 81.7062 8.936 81.7382 9L81.6902 10.152L81.5942 9.912L81.5462 10.104L81.7382 10.296L81.4022 11.64L81.5942 11.736L81.3062 11.928C81.2742 11.96 81.2422 11.976 81.2102 11.976C81.1782 11.976 81.1622 11.976 81.1622 11.976C81.1622 12.008 81.2902 12.104 81.5462 12.264L81.3542 13.368L81.1142 13.416L81.2102 13.704C81.2102 13.736 81.2102 13.72 81.2102 13.656C81.2422 13.592 81.2582 13.576 81.2582 13.608L81.1142 14.568L80.7782 14.664C80.8742 14.76 80.9222 14.888 80.9222 15.048C80.9222 15.304 80.8582 15.624 80.7302 16.008C80.6022 16.392 80.5222 16.68 80.4902 16.872C80.1062 16.936 80.0902 16.968 80.4422 16.968L80.1062 18.168L79.8182 18.456L79.7702 19.176C79.6422 19.24 79.5302 19.304 79.4342 19.368C79.3382 19.432 79.3862 19.464 79.5782 19.464L79.1942 20.04L79.2902 20.28L78.8582 21.528L78.7622 21.384C78.7302 21.736 78.6662 22.008 78.5702 22.2C78.5062 22.36 78.2822 22.52 77.8982 22.68L78.0902 23.544L77.5142 24.552V24.792C78.1862 24.952 78.6822 25.192 79.0022 25.512C79.3542 25.832 79.7702 26.232 80.2502 26.712H80.3462L80.1542 27.336C80.0262 27.016 79.6742 26.744 79.0982 26.52C78.5222 26.264 78.0582 26.12 77.7062 26.088L77.5622 26.664L77.7542 26.76L77.6582 27.384H77.8502L77.6582 28.008L77.8502 27.864C77.8822 28.28 77.9462 28.696 78.0422 29.112C78.1382 29.528 78.2182 29.96 78.2822 30.408L78.0422 30.456L78.1862 30.504C78.5382 31.272 78.7782 32.152 78.9062 33.144C79.0662 34.136 79.3062 35.048 79.6262 35.88C79.4342 35.912 79.3702 35.928 79.4342 35.928C79.4982 35.928 79.6102 35.96 79.7702 36.024L79.9142 37.224L80.2022 37.128L80.7782 38.76H80.9222L81.5942 40.152L81.4022 40.2L81.4502 40.248L81.8822 40.536L82.2662 41.16H82.4582L82.9862 41.88L83.0822 41.736L83.1782 41.976L83.8982 41.736L84.1862 41.256L84.2822 41.352L84.5702 41.016L84.6182 40.92L84.7622 41.16L84.6182 41.976L84.3302 41.88V42.456L84.0422 42.552L84.1382 42.744L83.6102 42.888L83.6582 43.176ZM77.3702 22.728C77.4022 22.728 77.4662 22.6 77.5622 22.344L77.8982 22.248L77.7542 22.104H77.8982L77.7062 22.008V21.72L78.0422 21.576L77.9942 21.192L78.2822 20.904C78.1542 20.36 78.2342 19.928 78.5222 19.608C78.8102 19.288 78.9702 19.016 79.0022 18.792H78.9062L79.0022 18.456L78.9062 18.504C78.9382 18.184 79.0662 17.896 79.2902 17.64V17.448C79.2902 17.064 79.3702 16.664 79.5302 16.248L79.6742 16.2L79.5782 15.816L80.0102 15.576L79.9142 15.288L80.1542 15.192L79.8182 15C79.9142 14.936 79.9462 14.84 79.9142 14.712C79.9142 14.584 79.9782 14.504 80.1062 14.472C80.1382 14.472 80.2022 14.52 80.2982 14.616C80.3942 14.712 80.4102 14.696 80.3462 14.568L79.9622 14.28C79.9942 13.832 80.1222 13.368 80.3462 12.888H80.4422V12.552L80.2502 12.648L80.3462 12.072L80.5382 11.928L80.4422 11.88V10.824H80.6822V10.584C80.4902 10.488 80.3942 10.264 80.3942 9.912C80.3942 9.528 80.4582 9.208 80.5862 8.952C80.4582 8.952 80.3462 8.808 80.2502 8.52C80.1542 8.232 80.1062 8.04 80.1062 7.944C80.3302 7.88 80.3782 7.752 80.2502 7.56L79.9622 7.608L79.6262 7.128L79.9142 6.936L79.8182 6.792C79.5942 6.824 79.3222 6.92 79.0022 7.08V6.888C78.9702 6.888 78.9382 6.984 78.9062 7.176C78.9062 7.368 78.8902 7.496 78.8582 7.56L78.5702 7.704V7.8C78.5702 7.864 78.5382 7.944 78.4742 8.04C78.4422 8.136 78.4422 8.232 78.4742 8.328L78.0422 8.376V8.568L78.3302 8.664H78.2822L78.1862 8.952L78.0422 8.904V9.048C78.0422 9.24 78.0102 9.448 77.9462 9.672C77.8822 9.896 77.8502 10.136 77.8502 10.392L77.5622 10.536L77.7542 10.68C77.6582 10.776 77.5942 10.952 77.5622 11.208C77.5622 11.464 77.5622 11.64 77.5622 11.736L77.2742 11.928C77.3702 12.12 77.4182 12.344 77.4182 12.6C77.4182 12.824 77.3542 13.048 77.2262 13.272L77.4182 13.8H77.1782L77.0822 13.704L77.2262 13.896L77.4182 13.848C77.3542 14.136 77.3222 14.424 77.3222 14.712C77.3542 15 77.3702 15.288 77.3702 15.576L77.0822 15.672L77.3702 15.912L77.1782 16.104H77.3702V16.296L77.1302 16.584L77.3702 16.44V16.872H77.2742L77.1302 16.776L77.0822 17.064L77.3702 17.304C77.3382 17.336 77.2742 17.48 77.1782 17.736C77.1142 17.96 77.1782 18.056 77.3702 18.024V18.408L77.1782 18.456C77.2742 18.488 77.3222 18.552 77.3222 18.648C77.3542 18.744 77.3702 18.824 77.3702 18.888C77.2422 18.92 77.1782 19.112 77.1782 19.464C77.1782 19.592 77.1782 19.736 77.1782 19.896C77.2102 20.024 77.2262 20.12 77.2262 20.184L76.9862 20.28L77.1302 20.424L77.3702 20.232L77.1782 20.856L77.3702 20.904C77.3382 20.936 77.3062 21.08 77.2742 21.336C77.2742 21.56 77.2742 21.8 77.2742 22.056C77.2742 22.504 77.3062 22.728 77.3702 22.728ZM64.2182 36.216C64.2822 36.248 64.3782 36.232 64.5062 36.168C64.6342 36.072 64.7142 36.024 64.7462 36.024L64.6502 36.168C64.8422 36.168 65.0502 36.12 65.2742 36.024C65.4982 35.896 65.6742 35.88 65.8022 35.976C65.8662 35.784 65.9782 35.688 66.1382 35.688C66.3302 35.688 66.4902 35.704 66.6182 35.736L68.1542 34.872L68.2982 35.016L68.2022 34.68C68.2662 34.712 68.3302 34.728 68.3942 34.728C68.4902 34.728 68.5542 34.728 68.5862 34.728V34.488H68.8262C68.8262 34.296 68.9862 34.12 69.3062 33.96C69.6262 33.8 69.8342 33.624 69.9302 33.432L70.1702 33.624V33.528C70.1702 33.432 70.2022 33.352 70.2662 33.288C70.3302 33.192 70.3942 33.096 70.4582 33L70.6982 33.096L70.8422 32.856L70.9382 32.952L70.8422 32.664C71.0662 32.568 71.2422 32.408 71.3702 32.184C71.5302 31.928 71.7542 31.816 72.0422 31.848C72.0422 31.496 72.2822 31.112 72.7622 30.696C73.2742 30.248 73.6582 29.944 73.9142 29.784L74.0102 29.88L73.9622 29.256L74.3942 29.112L74.5382 28.536L74.9222 28.344C74.9222 28.184 74.9702 28.024 75.0662 27.864C75.1622 27.704 75.1782 27.544 75.1142 27.384L75.1622 27.336L75.0662 26.52H75.2102L75.1142 26.376L75.0182 25.752H74.5862L74.6822 25.608H74.3942L74.2502 25.704L74.3942 25.8L74.0102 25.896L73.9142 25.752L73.5302 25.8C73.4022 26.088 73.2102 26.232 72.9542 26.232C72.8582 26.232 72.7462 26.216 72.6182 26.184C72.5222 26.152 72.4102 26.12 72.2822 26.088L72.1862 26.424L71.8982 26.328C71.8982 26.584 71.7862 26.712 71.5622 26.712V26.52H71.5142L71.4662 26.808C71.3382 26.84 71.2262 26.872 71.1302 26.904C71.0342 26.936 70.9382 26.968 70.8422 27C70.9062 26.872 70.8742 26.808 70.7462 26.808C70.6502 26.808 70.6182 26.888 70.6502 27.048L70.8422 27.096V27.144C70.4902 27.272 70.1862 27.432 69.9302 27.624C69.6742 27.816 69.3862 27.96 69.0662 28.056L68.9222 27.864L68.8262 27.912L68.8742 28.104L68.6822 28.152V28.44L68.1542 28.296L68.0582 28.776L67.7222 28.92L67.8662 28.488H67.7702L67.5782 28.632C67.5462 28.856 67.4822 29.048 67.3862 29.208C67.3222 29.368 67.1782 29.48 66.9542 29.544L66.8102 29.448V29.64L66.3782 29.784L66.2822 30.12L65.9462 30.072L65.9942 30.36L65.5142 30.888L65.3222 30.696L65.3702 30.888C65.2422 30.888 65.1622 30.936 65.1302 31.032C65.0982 31.128 65.0662 31.224 65.0342 31.32H64.9862L64.9382 31.032C64.9382 31.352 64.8262 31.608 64.6022 31.8C64.3782 31.992 64.1862 32.216 64.0262 32.472L63.7862 32.232V32.712C63.7862 32.84 63.7542 32.952 63.6902 33.048C63.6582 33.144 63.5302 33.24 63.3062 33.336C63.1782 33.56 63.1302 33.816 63.1622 34.104C63.1942 34.392 63.1302 34.648 62.9702 34.872C63.0662 35.064 63.1622 35.224 63.2582 35.352C63.3862 35.448 63.5142 35.576 63.6422 35.736L63.4982 35.784L63.8822 35.832L63.9302 35.976L64.4102 36.024L64.2182 36.216ZM84.7622 41.064V41.16V41.064Z" fill="#3F424D"/>
</svg>
