<svg width="79" height="80" viewBox="0 0 79 80" fill="none" xmlns="http://www.w3.org/2000/svg">
<path d="M37.1467 28.6322V36.0486L19.3533 18.2611L25.2627 12.3516L34.2392 21.334C33.9983 21.9825 33.8762 22.6691 33.8787 23.3609C33.8754 24.4574 34.1799 25.5328 34.7576 26.4647C35.3354 27.3966 36.1631 28.1476 37.1467 28.6322ZM42.6011 29.7018L45.3667 32.4674L42.6011 35.239V29.7018ZM59.5258 18.3202L48.8356 28.9986L45.2367 25.4115C45.5647 24.531 45.6742 23.584 45.5558 22.6518C45.3755 21.2834 44.7219 20.0212 43.7084 19.0843C42.6948 18.1473 41.3852 17.5948 40.0069 17.5224C39.2244 17.4812 38.4418 17.6019 37.7081 17.877L28.7257 8.86502L36.3371 1.27727C36.7411 0.872384 37.221 0.55116 37.7493 0.331988C38.2776 0.112816 38.8439 0 39.4159 0C39.9879 0 40.5542 0.112816 41.0825 0.331988C41.6108 0.55116 42.0907 0.872384 42.4947 1.27727L59.5258 18.3202Z" fill="#3F424D"/>
<path d="M33.6128 42.8622L17.4445 59.0305L1.40028 43.1399C0.492691 42.1958 -0.00979286 40.9343 0.000144638 39.6248C0.0100821 38.3152 0.531654 37.0615 1.45346 36.1313L18 19.5848L33.6128 35.2508C34.6203 36.2611 35.1861 37.6297 35.1861 39.0565C35.1861 40.4833 34.6203 41.8519 33.6128 42.8622Z" fill="#656A7B"/>
<path d="M42.6309 44.7887V51.5786C43.6156 52.1644 44.3965 53.0387 44.8679 54.083C45.3393 55.1273 45.4784 56.2912 45.2665 57.4172C45.0723 58.5157 44.549 59.5293 43.766 60.3239C42.983 61.1185 41.9772 61.6566 40.8817 61.867C39.5525 62.1575 38.1631 61.9538 36.9733 61.294C35.7834 60.6343 34.8747 59.5637 34.417 58.2826C33.9592 57.0014 33.9839 55.5973 34.4864 54.333C34.9888 53.0687 35.9346 52.0307 37.1469 51.4132V43.9082C37.1369 43.8014 37.0981 43.6993 37.0345 43.6129C36.9709 43.5265 36.885 43.459 36.786 43.4178C36.687 43.3765 36.5787 43.3629 36.4726 43.3785C36.3664 43.3941 36.2666 43.4383 36.1836 43.5063L19.2412 60.4428L36.6741 77.8758C37.4863 78.687 38.5873 79.1426 39.7352 79.1426C40.8832 79.1426 41.9841 78.687 42.7963 77.8758L59.2424 61.4593L42.6309 44.7887Z" fill="#3F424D"/>
<path d="M77.2245 43.9968L61.5408 59.6864L44.6516 42.7972C43.7039 41.8487 43.1716 40.5627 43.1716 39.222C43.1716 37.8812 43.7039 36.5953 44.6516 35.6467L46.5958 33.6848L50.9038 37.981C50.4419 39.2349 50.4223 40.6089 50.8482 41.8755C51.2741 43.142 52.1199 44.2251 53.2454 44.9452C54.371 45.6653 55.7088 45.9793 57.0373 45.8351C58.3657 45.6909 59.605 45.0972 60.5499 44.1523C61.4947 43.2075 62.0884 41.9682 62.2326 40.6397C62.3768 39.3113 62.0629 37.9735 61.3427 36.8479C60.6226 35.7223 59.5396 34.8765 58.273 34.4506C57.0065 34.0248 55.6324 34.0444 54.3785 34.5062L50.0942 30.2278L61.0503 19.2775L77.2245 35.4576C77.7872 36.0172 78.2337 36.6825 78.5383 37.4152C78.843 38.148 78.9999 38.9337 78.9999 39.7272C78.9999 40.5208 78.843 41.3065 78.5383 42.0392C78.2337 42.7719 77.7872 43.4372 77.2245 43.9968Z" fill="#656A7B"/>
</svg>
