<svg width="60" height="80" viewBox="0 0 60 80" fill="none" xmlns="http://www.w3.org/2000/svg">
<path d="M19.0162 61.8684C19.0162 61.8684 15.9568 63.6462 21.1934 64.2478C27.5375 64.971 30.7798 64.8673 37.771 63.5451C37.771 63.5451 39.609 64.6968 42.176 65.6942C26.5036 72.4062 6.70634 65.3055 19.0162 61.8684ZM17.1011 53.1097C17.1011 53.1097 13.6697 55.6478 18.9102 56.1895C25.6871 56.8881 31.039 56.9452 40.2998 55.1633C40.2998 55.1633 41.5809 56.4609 43.595 57.1706C24.646 62.7074 3.54037 57.6072 17.1011 53.1097Z" fill="#3F424D"/>
<path d="M33.2458 38.252C37.1075 42.6948 32.2314 46.6929 32.2314 46.6929C32.2314 46.6929 42.0364 41.6347 37.5334 35.3007C33.3276 29.3937 30.1023 26.459 47.5628 16.3399C47.5631 16.3397 20.1555 23.1798 33.2458 38.252Z" fill="#656A7B"/>
<path d="M53.9737 68.3469C53.9737 68.3469 56.2377 70.2112 51.4803 71.6531C42.434 74.3915 13.8287 75.2185 5.88221 71.7624C3.02567 70.5204 8.3825 68.7971 10.0676 68.4355C11.8249 68.0547 12.8292 68.1257 12.8292 68.1257C9.65238 65.8894 -7.70418 72.5165 4.01288 74.4146C35.967 79.5929 62.2624 72.0828 53.9737 68.3469ZM20.4873 44.0347C20.4873 44.0347 5.93681 47.4881 15.3346 48.7422C19.3027 49.2731 27.2129 49.153 34.5808 48.5361C40.6025 48.0285 46.6491 46.9495 46.6491 46.9495C46.6491 46.9495 44.5258 47.8581 42.9897 48.9061C28.2139 52.7895 -0.330201 50.9828 7.88727 47.0107C14.8368 43.6539 20.4873 44.0347 20.4873 44.0347ZM46.5892 58.614C61.6094 50.8146 54.6649 43.3192 49.8173 44.3292C48.6292 44.5763 48.0994 44.7904 48.0994 44.7904C48.0994 44.7904 48.5407 44.1 49.3827 43.8011C58.9723 40.4322 66.3474 53.7374 46.2871 59.0073C46.2871 59.0073 46.5199 58.7999 46.5892 58.614Z" fill="#3F424D"/>
<path d="M37.5332 0C37.5332 0 45.8516 8.31496 29.6435 21.1016C16.6462 31.3582 26.6797 37.2064 29.6381 43.8885C22.0516 37.0482 16.4839 31.027 20.2191 25.4229C25.7013 17.1966 40.8895 13.2082 37.5332 0Z" fill="#656A7B"/>
<path d="M21.963 79.7485C36.3806 80.6707 58.5204 79.2368 59.0446 72.42C59.0446 72.42 58.0369 75.0041 47.1292 77.0566C34.8237 79.3705 19.6461 79.1006 10.6443 77.6175C10.6447 77.6171 12.4873 79.1413 21.963 79.7485Z" fill="#3F424D"/>
</svg>
