<svg width="39" height="87" viewBox="0 0 39 87" fill="none" xmlns="http://www.w3.org/2000/svg">
<path d="M19.9333 0L17.5974 4.34359C17.0722 5.14515 16.5032 5.85464 15.8331 6.51538C13.8683 8.43622 12.037 10.4863 10.3515 12.6516C6.39347 17.7968 3.72378 23.5106 1.81726 29.6902C0.673895 33.4651 0.0529785 37.3375 0.00647926 41.2532C-0.184994 52.9598 3.86876 63.0118 12.0419 71.3659C13.3714 72.6907 14.8076 73.9061 16.3364 75C17.146 75 17.529 74.3853 17.8627 73.8193C18.4704 72.7698 18.8749 71.6173 19.0553 70.4208C19.3425 69.0045 19.5312 67.5883 19.4382 66.126V65.4652C19.5039 65.3244 20.2178 0.333081 19.9333 0Z" fill="#3F424D"/>
<path d="M19.5329 0.0943374C19.629 -0.0976114 19.7252 0.0477212 19.8213 0.140954C19.7746 1.1007 20.1097 1.95624 20.6344 2.77339C21.2112 3.58506 21.9748 4.20753 22.7412 4.87661C26.9988 8.55654 30.35 13.0015 33.0336 17.973C36.6045 24.6638 38.4449 31.8344 38.9668 39.3835C39.2058 42.1065 38.1043 51.7149 37.2446 54.4871C34.8987 61.847 30.6851 68.0141 25.2271 73.3667C23.8866 74.6555 22.4528 75.8511 20.9695 77C20.5382 77 20.4915 76.6161 20.3927 76.3309C20.2036 75.7207 20.0594 75.0975 19.9614 74.4663L19 67.2984L19.5329 0.0943374Z" fill="#656A7B"/>
<path d="M17.2024 78.2625C17.1059 77.1555 16.5764 76.2366 16 75.3205C16.5792 75.0798 17.0094 74.601 17.3458 74.0668C17.636 73.5611 17.8761 73.0281 18.0629 72.4754C18.7358 70.4495 18.8792 68.3239 19.0723 66.2537V65C19.3122 65.1937 19.3618 66.8322 19.3618 67.0757C19.5022 69.2638 19.7915 71.4396 20.2278 73.588C20.3712 74.457 20.4677 75.3233 21 76.0955C21 76.1924 21 76.2892 20.9531 76.4331C20.0871 78.9904 19.85 81.5948 19.7038 84.249V85.2176C19.7038 86.3745 19.7507 86.131 18.7937 86.5184C18.4076 86.6623 17.9774 86.7122 17.5913 87C17.3017 87 17.2548 86.7592 17.2548 86.5655L17.3982 84.9741V80.5348C17.4451 79.7598 17.3017 78.9904 17.2052 78.2653L17.2024 78.2625Z" fill="#C2BFBF"/>
</svg>
