<svg width="50" height="75" viewBox="0 0 50 75" fill="none" xmlns="http://www.w3.org/2000/svg">
<path d="M24.9858 37.5007C24.9858 30.6128 30.5729 25.0004 37.4929 25.0004C44.3846 25.0004 50 30.5844 50 37.5007C50 44.3886 44.413 50.0009 37.4929 50.0009C30.6013 50.0009 24.9858 44.3886 24.9858 37.5007Z" fill="#656A7B"/>
<path d="M0 62.4728C0 55.585 5.58707 49.9726 12.5071 49.9726H25.0142V62.4728C25.0142 69.3607 19.4271 74.9731 12.5071 74.9731C5.58707 74.9731 0 69.3891 0 62.4728Z" fill="#656A7B"/>
<path d="M24.9858 0.0283452V25.0005H37.4929C44.3846 25.0005 50 19.4165 50 12.5002C50 5.61235 44.413 0 37.4929 0H24.9858V0.0283452Z" fill="#3F424D"/>
<path d="M0 12.5286C0 19.4165 5.58707 25.0289 12.5071 25.0289H25.0142V0.0283813H12.5071C5.58707 0.0283813 0 5.61239 0 12.5286Z" fill="#656A7B"/>
<path d="M0 37.5007C0 44.3886 5.58707 50.0009 12.5071 50.0009H25.0142V25.0004H12.5071C5.58707 25.0004 0 30.6128 0 37.5007Z" fill="#3F424D"/>
</svg>
