<svg width="78" height="78" viewBox="0 0 78 78" fill="none" xmlns="http://www.w3.org/2000/svg">
<g clip-path="url(#clip0_27_2303)">
<path d="M0 0H78V78H0V0Z" fill="#656A7B"/>
<path d="M16 38.7333V41.992H26.4163V71.5808H33.8079V41.992H44.2243V38.7933C44.2243 36.9939 44.2242 35.5345 44.1441 35.4945C44.1441 35.4345 37.7942 35.4145 30.0821 35.4145L16.0601 35.4745V38.7533L16 38.7333ZM62.8134 35.3946C64.8566 35.8744 66.419 36.794 67.8212 38.2535C68.5624 39.0532 69.6641 40.4526 69.7443 40.8125C69.7443 40.9324 66.2788 43.2716 64.1755 44.5711C64.0954 44.631 63.7749 44.2912 63.4544 43.7714C62.4128 42.2919 61.3511 41.6522 59.6885 41.5322C57.2847 41.3723 55.6822 42.6318 55.6822 44.731C55.6822 45.3708 55.8024 45.7306 56.0428 46.2504C56.5836 47.35 57.5852 48.0098 60.6901 49.3692C66.419 51.8283 68.9029 53.4477 70.4053 55.7668C72.108 58.3658 72.4886 62.4443 71.3468 65.5031C70.0648 68.8418 66.9399 71.101 62.4729 71.8407C61.0707 72.0806 57.8656 72.0406 56.3633 71.7807C53.1583 71.1809 50.0935 69.5816 48.2105 67.5223C47.4693 66.7226 46.0471 64.5835 46.1272 64.4435L46.8884 63.9637L49.8931 62.2244L52.1567 60.9049L52.6775 61.6046C53.3385 62.6442 54.8209 64.0437 55.6822 64.5235C58.2863 65.863 61.7718 65.683 63.4945 64.1236C64.2356 63.4439 64.5561 62.7242 64.5561 61.7245C64.5561 60.8049 64.4159 60.385 63.9552 59.6853C63.3142 58.8057 62.0322 58.0859 58.4265 56.4865C54.28 54.7272 52.5173 53.6076 50.8747 51.8883C49.9332 50.8487 49.0718 49.2293 48.6712 47.8898C48.3708 46.7302 48.2706 43.8913 48.551 42.7518C49.4124 38.7533 52.4371 35.9543 56.7639 35.1546C58.1661 34.8747 61.4713 34.9947 62.8535 35.3546L62.8134 35.3946Z" fill="#3F424D"/>
</g>
<defs>
<clipPath id="clip0_27_2303">
<rect width="78" height="78" rx="12" fill="white"/>
</clipPath>
</defs>
</svg>
