<svg width="82" height="42" viewBox="0 0 82 42" fill="none" xmlns="http://www.w3.org/2000/svg">
<path d="M6.48888 9H18.6498C22.2192 9.02982 24.8057 10.0539 26.4093 12.0705C28.0129 14.0871 28.542 16.8415 27.9975 20.3337C27.786 21.9294 27.3168 23.4945 26.5908 25.0297C25.8852 26.579 24.901 27.9868 23.6867 29.1839C22.1738 30.749 20.5557 31.7424 18.8314 32.1641C17.107 32.5858 15.3219 32.7963 13.4769 32.7963H8.03169L6.30737 41.3755H0L6.48888 9ZM11.798 14.1476L9.07535 27.6938C9.25686 27.7236 9.43837 27.739 9.61987 27.739H10.2551C13.1593 27.7688 15.5796 27.4834 17.5154 26.8811C19.4512 26.2489 20.7526 24.0517 21.4178 20.2885C21.9624 17.1278 21.4178 15.3062 19.7843 14.8249C18.1807 14.3435 16.1695 14.1178 13.7492 14.1476C13.3861 14.1774 13.0385 14.1927 12.7055 14.1927H11.7526L11.798 14.1476Z" fill="#3F424D"/>
<path d="M59.4889 9H71.6498C75.2192 9.02982 77.8057 10.0539 79.4093 12.0705C81.0129 14.0871 81.542 16.8415 80.9975 20.3337C80.786 21.9294 80.3168 23.4945 79.5908 25.0297C78.8852 26.579 77.901 27.9868 76.6867 29.1839C75.1738 30.749 73.5557 31.7424 71.8314 32.1641C70.107 32.5858 68.3219 32.7963 66.4769 32.7963H61.0317L59.3074 41.3755H53L59.4889 9ZM64.798 14.1476L62.0754 27.6938C62.2569 27.7236 62.4384 27.739 62.6199 27.739H63.2551C66.1593 27.7688 68.5796 27.4834 70.5154 26.8811C72.4512 26.2489 73.7526 24.0517 74.4178 20.2885C74.9624 17.1278 74.4178 15.3062 72.7843 14.8249C71.1807 14.3435 69.1695 14.1178 66.7492 14.1476C66.3861 14.1774 66.0385 14.1927 65.7055 14.1927H64.7526L64.798 14.1476Z" fill="#3F424D"/>
<path d="M35.5343 0H41.7963L40.0266 8.62445H45.6533C48.7389 8.68494 51.0377 9.3171 52.5505 10.5209C54.0933 11.7248 54.5471 14.0131 53.9118 17.3844L50.8716 32.4207H44.5189L47.423 18.0617C47.7252 16.5563 47.6344 15.4879 47.1507 14.8557C46.667 14.2236 45.6233 13.9075 44.0197 13.9075L38.9829 13.8623L35.262 32.4207H29L35.5343 0Z" fill="#656A7B"/>
</svg>
