<svg width="83" height="51" viewBox="0 0 83 51" fill="none" xmlns="http://www.w3.org/2000/svg">
<path d="M31.1246 11.7447C30.9789 11.6617 30.814 11.618 30.6463 11.618C30.4785 11.618 30.3136 11.6617 30.1679 11.7447L22.2694 16.3034C21.9691 16.4722 21.8003 16.7911 21.8003 17.1288V26.2656C21.8003 26.6033 21.9879 26.9223 22.2694 27.0911L30.1679 31.6501C30.3136 31.7331 30.4785 31.7767 30.6463 31.7767C30.814 31.7767 30.9789 31.7331 31.1246 31.6501L39.0232 27.0911C39.3234 26.9223 39.4924 26.6033 39.4924 26.2656V17.129C39.4924 16.7913 39.3046 16.4723 39.0232 16.3035L31.1246 11.7447Z" fill="url(#paint0_linear_27_2242)"/>
<mask id="mask0_27_2242" style="mask-type:luminance" maskUnits="userSpaceOnUse" x="21" y="11" width="19" height="21">
<path d="M31.1246 11.7447C30.9789 11.6617 30.814 11.6181 30.6463 11.6181C30.4785 11.6181 30.3136 11.6617 30.1679 11.7447L22.2694 16.3034C21.9691 16.4722 21.8003 16.7912 21.8003 17.1289V26.2657C21.8003 26.6034 21.9879 26.9223 22.2694 27.0912L30.1679 31.6502C30.3136 31.7331 30.4785 31.7768 30.6463 31.7768C30.814 31.7768 30.9789 31.7331 31.1246 31.6502L39.0232 27.0912C39.3234 26.9223 39.4924 26.6034 39.4924 26.2657V17.129C39.4924 16.7914 39.3046 16.4724 39.0232 16.3036L31.1246 11.7447Z" fill="url(#paint1_linear_27_2242)"/>
</mask>
<g mask="url(#mask0_27_2242)">
<path d="M30.1493 11.7447L22.2322 16.3034C21.9317 16.4724 21.7256 16.7915 21.7256 17.1292V26.266C21.7256 26.4912 21.8194 26.6975 21.9694 26.8663L30.8623 11.6321C30.6371 11.5946 30.3745 11.6132 30.1493 11.7446V11.7447ZM30.9186 31.7442C30.9936 31.7253 31.0688 31.6878 31.1438 31.6503L39.061 27.0913C39.3613 26.9225 39.5488 26.6035 39.5488 26.2659V17.129C39.5488 16.8852 39.4362 16.6412 39.2674 16.4724L30.9186 31.7442Z" fill="url(#paint2_linear_27_2242)"/>
<path d="M39.0425 16.3036L31.1066 11.7448C31.0286 11.7054 30.9469 11.674 30.8626 11.6509L21.9697 26.8852C22.0434 26.9751 22.1324 27.0514 22.2325 27.1103L30.1685 31.6694C30.3936 31.8007 30.6563 31.8382 30.9001 31.763L39.249 16.4914C39.1927 16.4164 39.1175 16.3598 39.0425 16.3036Z" fill="url(#paint3_linear_27_2242)"/>
</g>
<mask id="mask1_27_2242" style="mask-type:luminance" maskUnits="userSpaceOnUse" x="21" y="11" width="19" height="21">
<path d="M31.1246 11.7447C30.9789 11.6617 30.814 11.6181 30.6463 11.6181C30.4785 11.6181 30.3136 11.6617 30.1679 11.7447L22.2694 16.3034C21.9691 16.4722 21.8003 16.7912 21.8003 17.1289V26.2657C21.8003 26.6034 21.9879 26.9223 22.2694 27.0912L30.1679 31.6502C30.3136 31.7331 30.4785 31.7768 30.6463 31.7768C30.814 31.7768 30.9789 31.7331 31.1246 31.6502L39.0232 27.0912C39.3234 26.9223 39.4924 26.6034 39.4924 26.2657V17.129C39.4924 16.7914 39.3046 16.4724 39.0232 16.3036L31.1246 11.7447Z" fill="url(#paint4_linear_27_2242)"/>
</mask>
<g mask="url(#mask1_27_2242)">
<path d="M39.5488 26.2659V17.1291C39.5488 16.7914 39.3425 16.4724 39.0424 16.3036L31.1059 11.7448C31.0142 11.6881 30.9123 11.6499 30.806 11.6323L39.4923 26.4724C39.5298 26.4161 39.5487 26.3411 39.5487 26.2661L39.5488 26.2659ZM22.2321 16.3036C21.9321 16.4724 21.7256 16.7916 21.7256 17.1292V26.2661C21.7256 26.6037 21.9507 26.9227 22.2321 27.0915L30.1682 31.6505C30.3558 31.763 30.5621 31.8007 30.7873 31.763L22.2884 16.2848L22.2322 16.3036H22.2321Z" fill="url(#paint5_linear_27_2242)"/>
<path fill-rule="evenodd" clip-rule="evenodd" d="M39.0608 27.0914C39.2859 26.96 39.4547 26.7349 39.5299 26.4911L30.8244 11.6321C30.5992 11.5946 30.3552 11.6133 30.1491 11.7446L22.2693 16.285L30.768 31.7817C30.8916 31.7615 31.0117 31.7236 31.1245 31.6692L39.0606 27.0915L39.0608 27.0914Z" fill="url(#paint6_linear_27_2242)"/>
<path fill-rule="evenodd" clip-rule="evenodd" d="M39.0611 27.0913L31.1438 31.6503C31.0321 31.7073 30.9116 31.7453 30.7874 31.7628L30.9375 32.0443L39.7177 26.9601V26.8475L39.4926 26.4722C39.4551 26.7348 39.2863 26.96 39.0611 27.0913Z" fill="url(#paint7_linear_27_2242)"/>
<path fill-rule="evenodd" clip-rule="evenodd" d="M39.0611 27.0913L31.1438 31.6503C31.0321 31.7073 30.9116 31.7453 30.7874 31.7628L30.9375 32.0443L39.7177 26.9601V26.8475L39.4926 26.4722C39.4551 26.7348 39.2863 26.96 39.0611 27.0913Z" fill="url(#paint8_linear_27_2242)"/>
</g>
<path d="M74.032 19.737C74.0598 19.7187 74.0924 19.7089 74.1258 19.7089C74.1591 19.7089 74.1917 19.7187 74.2195 19.737L75.7392 20.6188C75.7956 20.6561 75.833 20.7125 75.833 20.7876V22.5512C75.833 22.6262 75.7956 22.6825 75.7392 22.72L74.2195 23.6017C74.1917 23.6201 74.1591 23.6298 74.1258 23.6298C74.0924 23.6298 74.0598 23.6201 74.032 23.6017L72.5123 22.72C72.456 22.6825 72.4185 22.6262 72.4185 22.5512V20.7876C72.4185 20.7125 72.456 20.6561 72.5123 20.6188L74.032 19.737Z" fill="#656A7B"/>
<path d="M17.8232 16.9978C17.8232 16.6602 17.6356 16.3411 17.3354 16.1722L9.38067 11.5946C9.24919 11.5194 9.0992 11.4819 8.9492 11.4631H8.87404C8.72405 11.4631 8.5739 11.5194 8.44257 11.5946L0.487799 16.1722C0.18749 16.3411 0 16.66 0 16.9978L0.0188302 29.3051C0.0188302 29.474 0.112656 29.6428 0.262648 29.7179C0.412803 29.8118 0.600293 29.8118 0.73178 29.7179L5.45961 27.0163C5.75976 26.8475 5.94741 26.5285 5.94741 26.1909V20.4311C5.94741 20.0935 6.1349 19.7745 6.43521 19.6057L8.44257 18.4424C8.59273 18.3486 8.76155 18.3109 8.93037 18.3109C9.09919 18.3109 9.26802 18.3486 9.3995 18.4424L11.4069 19.6057C11.7072 19.7745 11.8947 20.0933 11.8947 20.4311V26.1909C11.8947 26.5285 12.0823 26.8475 12.3825 27.0163L17.1103 29.7179C17.2605 29.8118 17.4479 29.8118 17.5981 29.7179C17.7483 29.6428 17.8421 29.474 17.8421 29.3051L17.8232 16.9978ZM56.0587 0.0563688C55.9087 -0.0187896 55.7211 -0.0187896 55.5896 0.0563688C55.4396 0.150195 55.3458 0.300187 55.3458 0.469009V12.664C55.3458 12.7765 55.2896 12.889 55.177 12.9641C55.0645 13.0203 54.9518 13.0203 54.8393 12.9641L52.8506 11.8197C52.7048 11.7367 52.5399 11.693 52.3722 11.693C52.2044 11.693 52.0395 11.7367 51.8937 11.8197L43.9389 16.4162C43.6388 16.585 43.4511 16.904 43.4511 17.2417V26.4158C43.4511 26.7535 43.6388 27.0726 43.9389 27.2415L51.8937 31.838C52.0395 31.921 52.2044 31.9646 52.3722 31.9646C52.5399 31.9646 52.7048 31.921 52.8506 31.838L60.8054 27.2415C61.1055 27.0726 61.2932 26.7537 61.2932 26.4158V3.54596C61.2932 3.18948 61.1055 2.87067 60.8054 2.70168L56.0587 0.0563688ZM55.3271 23.3954C55.3271 23.4892 55.2896 23.5642 55.2145 23.6017L52.4941 25.1776C52.4562 25.1961 52.4144 25.2058 52.3722 25.2058C52.3299 25.2058 52.2882 25.1961 52.2502 25.1776L49.5299 23.6017C49.4547 23.5642 49.4172 23.4704 49.4172 23.3954V20.2435C49.4172 20.1496 49.4547 20.0746 49.5299 20.0371L52.2502 18.4611C52.2882 18.4425 52.3299 18.4329 52.3722 18.4329C52.4144 18.4329 52.4562 18.4425 52.4941 18.4611L55.2145 20.0371C55.2896 20.0745 55.3271 20.1685 55.3271 20.2435V23.3954ZM82.5309 20.1685C82.8312 19.9996 83 19.6807 83 19.3428V17.1103C83 16.7727 82.8124 16.4537 82.5309 16.2849L74.6324 11.7072C74.4866 11.6242 74.3218 11.5806 74.154 11.5806C73.9863 11.5806 73.8214 11.6242 73.6757 11.7072L65.7209 16.3036C65.4206 16.4724 65.2331 16.7914 65.2331 17.1292V26.3034C65.2331 26.641 65.4206 26.96 65.7209 27.1288L73.6193 31.6315C73.9196 31.8003 74.2759 31.8003 74.5574 31.6315L79.3414 28.9677C79.4916 28.8925 79.5854 28.7237 79.5854 28.5549C79.5854 28.386 79.4916 28.2172 79.3414 28.1421L71.3492 23.5455C71.1992 23.4519 71.1053 23.3017 71.1053 23.1329V20.2624C71.1053 20.0936 71.1992 19.9248 71.3492 19.8496L73.8445 18.4237C73.9175 18.3778 74.0021 18.3534 74.0884 18.3534C74.1747 18.3534 74.2592 18.3778 74.3323 18.4237L76.8274 19.8496C76.9776 19.9435 77.0714 20.0935 77.0714 20.2624V22.5138C77.0714 22.6826 77.1652 22.8514 77.3152 22.9264C77.4654 23.0203 77.6529 23.0203 77.803 22.9264L82.5309 20.1685Z" fill="#3F424D"/>
<path d="M41.0493 50.8243C40.768 50.8243 40.5054 50.7493 40.2614 50.618L37.7662 49.1359C37.3909 48.9294 37.5786 48.8544 37.6912 48.8169C38.1977 48.6481 38.2915 48.6104 38.8168 48.3104C38.8731 48.2728 38.9483 48.2916 39.0045 48.3291L40.9182 49.4735C40.9932 49.511 41.087 49.511 41.1432 49.4735L48.629 45.1397C48.704 45.1022 48.7416 45.027 48.7416 44.9334V36.2845C48.7416 36.1905 48.704 36.1156 48.629 36.078L41.1432 31.7629C41.0682 31.7253 40.9743 31.7253 40.9182 31.7629L33.4324 36.078C33.3574 36.1155 33.3197 36.2093 33.3197 36.2843V44.9332C33.3197 45.0084 33.3574 45.102 33.4324 45.1397L35.4774 46.3216C36.5843 46.8844 37.2784 46.2278 37.2784 45.5711V37.0347C37.2784 36.9223 37.3722 36.8096 37.5036 36.8096H38.4603C38.573 36.8096 38.6855 36.9034 38.6855 37.0347V45.5711C38.6855 47.0532 37.8787 47.9163 36.4716 47.9163C36.0402 47.9163 35.7025 47.9163 34.7456 47.4472L32.7757 46.3216C32.2879 46.0403 31.9878 45.5148 31.9878 44.952V36.3031C31.9878 35.7403 32.2879 35.2149 32.7757 34.9336L40.2614 30.5997C40.7305 30.337 41.3685 30.337 41.8374 30.5997L49.3231 34.9336C49.8109 35.2149 50.1112 35.7403 50.1112 36.3031V44.952C50.1112 45.5148 49.8109 46.0403 49.3231 46.3216L41.8374 50.6555C41.5935 50.7681 41.312 50.8243 41.0493 50.8243ZM43.357 44.877C40.0739 44.877 39.3984 43.3761 39.3984 42.1004C39.3984 41.9877 39.4923 41.8752 39.6236 41.8752H40.5992C40.7117 41.8752 40.8055 41.9502 40.8055 42.0629C40.9557 43.0572 41.3871 43.545 43.3758 43.545C44.9517 43.545 45.6273 43.1885 45.6273 42.3442C45.6273 41.8564 45.4395 41.5001 42.9819 41.2561C40.9368 41.0496 39.6611 40.5995 39.6611 38.9673C39.6611 37.4475 40.937 36.5469 43.0757 36.5469C45.477 36.5469 46.6591 37.3726 46.8092 39.1734C46.8092 39.2299 46.7904 39.2861 46.7529 39.3424C46.7153 39.3799 46.6591 39.4174 46.6028 39.4174H45.6272C45.5333 39.4174 45.4395 39.3424 45.4208 39.2486C45.1957 38.2168 44.6141 37.879 43.0757 37.879C41.3496 37.879 41.1432 38.4795 41.1432 38.9296C41.1432 39.4737 41.3871 39.6426 43.7135 39.9427C46.0211 40.243 47.1094 40.6745 47.1094 42.2879C47.0906 43.9389 45.7398 44.877 43.357 44.877Z" fill="#656A7B"/>
<defs>
<linearGradient id="paint0_linear_27_2242" x1="787.461" y1="1123.75" x2="2983.71" y2="-97.4835" gradientUnits="userSpaceOnUse">
<stop offset="0.1376" stop-color="#656A7B"/>
<stop offset="0.4032" stop-color="#54A044"/>
<stop offset="0.7136" stop-color="#66B848"/>
<stop offset="0.9081" stop-color="#6CC04A"/>
</linearGradient>
<linearGradient id="paint1_linear_27_2242" x1="787.461" y1="1123.75" x2="2983.71" y2="-97.4834" gradientUnits="userSpaceOnUse">
<stop offset="0.1376" stop-color="#656A7B"/>
<stop offset="0.4032" stop-color="#54A044"/>
<stop offset="0.7136" stop-color="#66B848"/>
<stop offset="0.9081" stop-color="#6CC04A"/>
</linearGradient>
<linearGradient id="paint2_linear_27_2242" x1="793.062" y1="1122.12" x2="2996.3" y2="-113.893" gradientUnits="userSpaceOnUse">
<stop offset="0.1376" stop-color="#656A7B"/>
<stop offset="0.4032" stop-color="#54A044"/>
<stop offset="0.7136" stop-color="#66B848"/>
<stop offset="0.9081" stop-color="#6CC04A"/>
</linearGradient>
<linearGradient id="paint3_linear_27_2242" x1="769.765" y1="1123.33" x2="2937.99" y2="-54.6732" gradientUnits="userSpaceOnUse">
<stop offset="0.1376" stop-color="#656A7B"/>
<stop offset="0.4032" stop-color="#54A044"/>
<stop offset="0.7136" stop-color="#66B848"/>
<stop offset="0.9081" stop-color="#6CC04A"/>
</linearGradient>
<linearGradient id="paint4_linear_27_2242" x1="787.461" y1="1123.75" x2="2983.71" y2="-97.4834" gradientUnits="userSpaceOnUse">
<stop offset="0.1376" stop-color="#656A7B"/>
<stop offset="0.4032" stop-color="#54A044"/>
<stop offset="0.7136" stop-color="#66B848"/>
<stop offset="0.9081" stop-color="#6CC04A"/>
</linearGradient>
<linearGradient id="paint5_linear_27_2242" x1="793.062" y1="1123.01" x2="2997.12" y2="-112.506" gradientUnits="userSpaceOnUse">
<stop offset="0.1376" stop-color="#656A7B"/>
<stop offset="0.4032" stop-color="#54A044"/>
<stop offset="0.7136" stop-color="#66B848"/>
<stop offset="0.9081" stop-color="#6CC04A"/>
</linearGradient>
<linearGradient id="paint6_linear_27_2242" x1="769.257" y1="1124.19" x2="2936.99" y2="-51.3318" gradientUnits="userSpaceOnUse">
<stop offset="0.1376" stop-color="#656A7B"/>
<stop offset="0.4032" stop-color="#54A044"/>
<stop offset="0.7136" stop-color="#66B848"/>
<stop offset="0.9081" stop-color="#6CC04A"/>
</linearGradient>
<linearGradient id="paint7_linear_27_2242" x1="417.267" y1="333.88" x2="1131.84" y2="-391.718" gradientUnits="userSpaceOnUse">
<stop offset="0.1376" stop-color="#656A7B"/>
<stop offset="0.4032" stop-color="#54A044"/>
<stop offset="0.7136" stop-color="#66B848"/>
<stop offset="0.9081" stop-color="#6CC04A"/>
</linearGradient>
<linearGradient id="paint8_linear_27_2242" x1="417.267" y1="333.88" x2="1131.84" y2="-391.718" gradientUnits="userSpaceOnUse">
<stop offset="0.1376" stop-color="#656A7B"/>
<stop offset="0.4032" stop-color="#54A044"/>
<stop offset="0.7136" stop-color="#66B848"/>
<stop offset="0.9081" stop-color="#6CC04A"/>
</linearGradient>
</defs>
</svg>
