<svg width="78" height="78" viewBox="0 0 78 78" fill="none" xmlns="http://www.w3.org/2000/svg">
<g clip-path="url(#clip0_27_2271)">
<path d="M0 0H78V78H0V0Z" fill="#656A7B"/>
<path d="M71.6162 59.3972C71.0453 55.8382 68.7245 52.8502 61.8514 50.0624C59.4639 48.965 56.8021 48.1792 56.0088 46.37C55.727 45.3171 55.6899 44.724 55.8679 44.0863C56.3795 42.0177 58.8485 41.3727 60.8059 41.9658C62.0664 42.3884 63.2601 43.3598 63.9793 44.9093C67.3455 42.7296 67.338 42.7443 69.6884 41.2467C68.8284 39.9121 68.3687 39.2966 67.8052 38.7258C65.781 36.4644 63.0228 35.3003 58.6112 35.3893C57.8476 35.4857 57.0765 35.5894 56.3128 35.6858C54.1107 36.2419 52.0124 37.3986 50.7816 38.9482C47.0892 43.1374 48.142 50.4702 52.6352 53.4879C57.0616 56.8096 63.5641 57.5659 64.3945 60.6725C65.2027 64.4761 61.5993 65.7069 58.0181 65.2695C55.3785 64.7208 53.9106 63.3788 52.3238 60.9395C49.4026 62.6299 49.4026 62.6299 46.3997 64.3575C47.1115 65.9145 47.8603 66.6189 49.0541 67.9684C54.7039 73.6997 68.8432 73.418 71.379 64.7431C71.4827 64.4464 72.1649 62.4593 71.6162 59.3972ZM42.4033 35.8489H35.1074C35.1074 42.1512 35.0779 48.409 35.0779 54.7112C35.0779 58.7225 35.2855 62.4 34.633 63.527C33.5653 65.7439 30.7997 65.4696 29.5393 65.0395C28.2566 64.4093 27.6041 63.5121 26.8478 62.2443C26.6402 61.881 26.4845 61.5993 26.4325 61.577C24.453 62.7856 22.4806 64.0015 20.501 65.2101C21.4872 67.2342 22.9403 68.9915 24.8014 70.1332C27.5818 71.8015 31.3187 72.3131 35.2261 71.4159C37.7693 70.6745 39.9639 69.1398 41.1131 66.8042C42.774 63.742 42.4181 60.0348 42.4033 55.9346C42.4403 49.2468 42.4033 42.559 42.4033 35.8489Z" fill="#3F424D"/>
</g>
<defs>
<clipPath id="clip0_27_2271">
<rect width="78" height="78" rx="12" fill="white"/>
</clipPath>
</defs>
</svg>
