<svg width="74" height="73" viewBox="0 0 74 73" fill="none" xmlns="http://www.w3.org/2000/svg">
<path d="M68.1617 56.4606C64.1355 56.3597 61.015 56.7644 58.3979 57.8769C57.6428 58.1802 56.4348 58.1805 56.3341 59.1416C56.7368 59.5462 56.7871 60.2038 57.1395 60.76C57.7441 61.7714 58.8003 63.1372 59.7566 63.8456C60.8134 64.6547 61.8707 65.4638 62.9775 66.172C64.9406 67.386 67.1553 68.0939 69.0677 69.3079C70.1754 70.0155 71.2819 70.9266 72.3893 71.6851C72.943 72.0892 73.295 72.7474 74 73V72.8485C73.6474 72.393 73.5467 71.7357 73.1946 71.2298C72.6919 70.724 72.1879 70.2687 71.6846 69.7629C70.2252 67.7907 68.4134 66.0708 66.4506 64.6547C64.8402 63.5418 61.3167 62.0246 60.6627 60.153C60.6627 60.153 60.612 60.1027 60.562 60.0521C61.6691 59.9509 62.9775 59.5462 64.0348 59.2427C65.7459 58.7872 67.306 58.8886 69.0677 58.4334C69.8728 58.231 70.6782 57.9781 71.4832 57.7252V57.2702C70.5778 56.3597 69.9234 55.146 68.9671 54.286C66.4003 52.06 63.5815 49.8854 60.6627 48.0647C59.1023 47.053 57.0889 46.3954 55.4281 45.5357C54.8246 45.2319 53.8177 45.0805 53.4656 44.5746C52.5593 43.4621 52.0559 41.9954 51.4019 40.6802C49.9427 37.898 48.5331 34.813 47.2747 31.8796C46.3692 29.9068 45.8155 27.934 44.7082 26.1136C39.5242 17.5151 33.8873 12.3054 25.2308 7.19666C23.3684 6.13467 21.1539 5.67941 18.7885 5.12327C17.5307 5.07239 16.272 4.97152 15.0139 4.92064C14.2086 4.56655 13.4032 3.60573 12.6985 3.15047C9.83028 1.32942 2.43131 -2.61531 0.317526 2.59433C-1.04152 5.88175 2.33093 9.11858 3.48806 10.7882C4.34433 11.9513 5.45113 13.2662 6.05515 14.5814C6.40749 15.4408 6.50787 16.3519 6.86022 17.2621C7.66587 19.487 8.42032 21.9659 9.47764 24.0399C10.0313 25.1019 10.6351 26.2144 11.3398 27.1756C11.7424 27.7317 12.4468 27.9849 12.5981 28.8951C11.8937 29.9068 11.8431 31.4244 11.4401 32.6887C9.62836 38.4042 10.3333 45.4852 12.8999 49.6831C13.7049 50.9471 15.6177 53.7299 18.1845 52.6673C20.4495 51.7571 19.9462 48.874 20.6 46.3451C20.7515 45.7375 20.6509 45.3334 20.9526 44.9287V45.0302C21.6573 46.446 22.3617 47.812 23.016 49.2281C24.5764 51.7062 27.294 54.286 29.5587 56.0059C30.7671 56.9158 31.7232 58.484 33.2332 59.0404V58.8883H33.1322C32.8302 58.4331 32.3772 58.231 31.9748 57.8766C31.0691 56.9667 30.0621 55.8538 29.3577 54.8422C27.2442 52.0094 25.3815 48.8737 23.7207 45.6366C22.9157 44.0691 22.2107 42.3492 21.5566 40.7814C21.2543 40.1738 21.2543 39.2638 20.7513 38.9606C19.9962 40.0732 18.8892 41.0343 18.3355 42.3998C17.3797 44.5746 17.2787 47.2553 16.9264 50.0369C16.725 50.0881 16.8254 50.0369 16.7247 50.1387C15.1146 49.7334 14.5609 48.0647 13.9566 46.6483C12.4465 43.0574 12.1949 37.2913 13.5039 33.144C13.8562 32.0817 15.3663 28.7437 14.7623 27.732C14.4602 26.7709 13.4532 26.2144 12.8999 25.456C12.2458 24.4949 11.5408 23.2814 11.0881 22.2188C9.88004 19.3864 9.27602 16.2504 7.96759 13.418C7.36357 12.1028 6.30711 10.7376 5.45113 9.52355C4.49505 8.15806 3.43801 7.19666 2.68299 5.57824C2.4316 5.0221 2.07896 4.11158 2.48165 3.50456C2.58232 3.09988 2.78337 2.94842 3.18634 2.84725C3.84069 2.29053 5.70309 2.99872 6.35687 3.30222C8.21927 4.06041 9.77937 4.76918 11.3398 5.83116C12.0442 6.33701 12.7992 7.29812 13.7049 7.55104H14.762C16.3727 7.90484 18.1842 7.65221 19.6942 8.10718C22.362 8.96683 24.7775 10.2314 26.9419 11.5972C33.5352 15.7952 38.9702 21.7636 42.6447 28.8951C43.2487 30.058 43.5001 31.1209 44.0538 32.3343C45.1111 34.813 46.4196 37.3419 47.476 39.7697C48.5331 42.1466 49.5395 44.5746 51.0495 46.5474C51.8045 47.6091 54.8241 48.1659 56.1831 48.7223C57.1898 49.1773 58.7502 49.5822 59.6559 50.1384C61.3671 51.2001 63.0782 52.4147 64.6889 53.5775C65.4942 54.1846 68.0104 55.4492 68.1617 56.4606Z" fill="#656A7B"/>
<path d="M17.0497 12C16.1999 12 15.6001 12.1048 15 12.2607V12.3649H15.1C15.5004 13.1982 16.1999 13.7711 16.6997 14.5C17.1 15.333 17.4498 16.1667 17.8501 17C17.8998 16.9476 17.9498 16.8958 17.9498 16.8958C18.6502 16.3747 19 15.5417 19 14.2917C18.7 13.9274 18.6499 13.5628 18.3999 13.1982C18.1002 12.6771 17.4498 12.417 17.0497 12Z" fill="#3F424D"/>
</svg>
