<svg width="74" height="73" viewBox="0 0 74 73" fill="none" xmlns="http://www.w3.org/2000/svg">
<path d="M37.0001 0C16.5682 0 0 16.5653 0 37.0001C0 53.3481 10.6016 67.2172 25.303 72.1097C27.1521 72.4522 27.8311 71.3071 27.8311 70.3297C27.8311 69.4476 27.7966 66.5327 27.7809 63.441C17.4872 65.6792 15.3151 59.0755 15.3151 59.0755C13.6321 54.7987 11.207 53.6618 11.207 53.6618C7.85011 51.3652 11.46 51.4122 11.46 51.4122C15.1756 51.6734 17.132 55.2253 17.132 55.2253C20.432 60.8819 25.7877 59.2464 27.899 58.3012C28.231 55.9095 29.1901 54.2775 30.2481 53.3536C22.03 52.4177 13.3906 49.2451 13.3906 35.0678C13.3906 31.0284 14.836 27.7276 17.2031 25.1365C16.8189 24.2044 15.5525 20.4413 17.5615 15.3447C17.5615 15.3447 20.6685 14.3503 27.7392 19.1375C30.6903 18.3174 33.8557 17.9065 37.0001 17.8926C40.1446 17.9065 43.3123 18.3174 46.2693 19.1375C53.3315 14.3503 56.4342 15.3447 56.4342 15.3447C58.4481 20.4413 57.1811 24.2044 56.7969 25.1365C59.1692 27.7276 60.6047 31.0281 60.6047 35.0678C60.6047 49.2788 51.9491 52.4081 43.7101 53.324C45.0371 54.4722 46.2196 56.7241 46.2196 60.1758C46.2196 65.1264 46.1767 69.111 46.1767 70.3297C46.1767 71.3143 46.8427 72.4681 48.7184 72.1048C63.4117 67.2068 74 53.3425 74 37.0001C74 16.5653 57.4342 0 37.0001 0Z" fill="#3F424D"/>
<path d="M13.8579 52.7076C13.7767 52.8913 13.4871 52.9464 13.2239 52.8205C12.9555 52.6998 12.8046 52.4491 12.8916 52.2645C12.9714 52.0753 13.261 52.0225 13.5289 52.1496C13.7979 52.27 13.9511 52.5231 13.8579 52.7076ZM15.678 54.3315C15.5016 54.4952 15.1565 54.4191 14.9223 54.1606C14.6803 53.9026 14.6351 53.5579 14.8141 53.3916C14.9961 53.2282 15.3306 53.3045 15.5732 53.5628C15.8152 53.8237 15.8623 54.1664 15.6777 54.3318M16.9267 56.4092C16.6997 56.5668 16.3289 56.4191 16.0999 56.09C15.8733 55.7612 15.8733 55.3666 16.1049 55.2084C16.3347 55.0503 16.6997 55.1925 16.9319 55.5189C17.1582 55.8535 17.1582 56.2482 16.9264 56.4095M19.0381 58.8157C18.8352 59.0392 18.4034 58.9794 18.0871 58.6741C17.7638 58.3758 17.6736 57.9524 17.877 57.7287C18.0822 57.5047 18.5166 57.5677 18.8352 57.8703C19.1564 58.1681 19.2542 58.5946 19.0381 58.8157ZM21.767 59.6283C21.6779 59.9179 21.2617 60.0496 20.8427 59.9266C20.4243 59.7998 20.1503 59.4603 20.2348 59.1675C20.3218 58.8758 20.7397 58.7386 21.1619 58.8703C21.5798 58.9965 21.854 59.3334 21.767 59.6283ZM24.8731 59.9727C24.8836 60.278 24.5281 60.531 24.0882 60.5366C23.6456 60.5461 23.2878 60.2992 23.2832 59.9991C23.2832 59.6909 23.6305 59.4402 24.0728 59.433C24.5127 59.4243 24.8731 59.6695 24.8731 59.9727ZM27.9241 59.8558C27.9769 60.1535 27.6711 60.4594 27.2344 60.5406C26.8049 60.619 26.4073 60.4353 26.3525 60.1402C26.2991 59.8349 26.6107 59.5293 27.0393 59.4501C27.4769 59.3741 27.8684 59.5531 27.9241 59.8558Z" fill="#3F424D"/>
</svg>
