<svg width="85" height="52" viewBox="0 0 85 52" fill="none" xmlns="http://www.w3.org/2000/svg">
<path d="M21.2495 25.5663C9.91684 25.5795 2.83919 31.2529 0.0196846 42.5867C4.26259 36.9165 9.21855 34.786 14.8876 36.1963C18.1208 37.0014 20.4342 39.3435 22.9956 41.9351C27.1671 46.1585 31.9962 51.0475 42.5295 51.0353C53.8632 51.0222 60.9398 45.3488 63.7604 34.015C59.5164 39.6852 54.5604 41.8156 48.8925 40.4054C45.6582 39.6024 43.3448 37.2581 40.7834 34.6666C36.6119 30.4432 31.7839 25.5541 21.2495 25.5663Z" fill="#3F424D"/>
<path d="M21.2397 17.0686C24.0602 5.73588 31.1368 0.0624278 42.4705 0.0493011C53.0038 0.0371013 57.8329 4.9251 62.0044 9.14848L62.009 9.15311C64.5685 11.7439 66.8812 14.0847 70.1124 14.8883C75.7815 16.2975 80.7374 14.1671 84.9803 8.49689C82.1608 19.8307 75.0832 25.5041 63.7505 25.5172C53.2162 25.5294 48.3881 20.6414 44.2167 16.4181L44.2121 16.4134C41.6525 13.8226 39.3399 11.4818 36.1075 10.6782C30.4396 9.26901 25.4836 11.3984 21.2397 17.0686Z" fill="#656A7B"/>
</svg>
