<svg width="56" height="79" viewBox="0 0 56 79" fill="none" xmlns="http://www.w3.org/2000/svg">
<g clip-path="url(#clip0_27_2281)">
<path d="M5.0962 72.6519L0 15.5275H56L50.8982 72.6429L27.9656 78.9965L5.0962 72.6519Z" fill="#656A7B"/>
<path d="M28 74.14L46.5307 69.006L50.8904 20.1982H28V74.14Z" fill="#656A7B"/>
<path d="M28 41.3848H18.7231L18.0824 34.2105H28V27.2043H10.4207L10.5885 29.084L12.3115 48.3908H28V41.3848ZM28 59.5804L27.9694 59.5885L20.1615 57.4816L19.6624 51.894H12.6248L13.607 62.8945L27.9677 66.8786L28 66.8696V59.5804Z" fill="#3F424D"/>
<path d="M5.21021 0.00354004H8.77291V3.5212H12.0319V0.00354004H15.5948V10.6559H12.0321V7.08884H8.77307V10.6559H5.21051V0.00354004H5.21021ZM20.2799 3.53601H17.1436V0.00354004H26.9809V3.53601H23.8431V10.6559H20.2802L20.2799 3.53601ZM28.542 0.00354004H32.2568L34.542 3.74645L36.825 0.00354004H40.5413V10.6559H36.9933V5.37599L34.5421 9.16349H34.481L32.028 5.37599V10.6559H28.5422V0.00354004H28.542ZM42.3144 0.00354004H45.8782V7.13482H50.8884V10.6559H42.3144V0.00354004Z" fill="#656A7B"/>
<path d="M27.9758 41.3848V48.3908H36.6085L35.7947 57.4772L27.9758 59.5862V66.8752L42.3479 62.8945L42.4533 61.7109L44.1007 43.2662L44.2718 41.3848H42.3826H27.9758ZM27.9758 27.2043V34.2105H44.9097L45.0503 32.6357L45.3698 29.084L45.5374 27.2043H27.9758Z" fill="#3F424D"/>
</g>
<defs>
<clipPath id="clip0_27_2281">
<rect width="56" height="79" fill="white"/>
</clipPath>
</defs>
</svg>
