<svg width="86" height="69" viewBox="0 0 86 69" fill="none" xmlns="http://www.w3.org/2000/svg">
<path fill-rule="evenodd" clip-rule="evenodd" d="M17.8625 0C12.9554 0 9.32445 4.32578 9.48704 9.01698C9.64309 13.5239 9.44035 19.3611 7.98137 24.1213C6.51719 28.8949 4.04267 31.9199 0 32.3082V36.6918C4.04267 37.0809 6.51719 40.1044 7.9812 44.8787C9.44035 49.6389 9.64292 55.4761 9.48687 59.983C9.32428 64.6735 12.9553 69 17.8631 69H68.1441C73.0511 69 76.6814 64.6742 76.5188 59.983C76.3628 55.4761 76.5655 49.6389 78.0245 44.8787C79.4887 40.1044 81.9572 37.0797 86 36.6918V32.3082C81.9573 31.9191 79.4889 28.8956 78.0245 24.1213C76.5654 19.3618 76.3628 13.5239 76.5188 9.01698C76.6814 4.32646 73.0511 0 68.1441 0H17.8618H17.8625ZM58.3051 42.474C58.3051 48.9336 53.5212 52.8512 45.5822 52.8512H32.0678C31.6812 52.8512 31.3104 52.6965 31.0371 52.4212C30.7637 52.1458 30.6101 51.7724 30.6101 51.3831V17.6171C30.6101 17.2277 30.7637 16.8543 31.0371 16.579C31.3104 16.3037 31.6812 16.149 32.0678 16.149H45.5053C52.1251 16.149 56.4696 19.7605 56.4696 25.3054C56.4696 29.1972 53.5469 32.6814 49.8236 33.2918V33.4948C54.8922 34.0547 58.3051 37.5905 58.3051 42.474ZM44.1086 20.8028H36.4029V31.7653H42.893C47.9102 31.7653 50.6767 29.7305 50.6767 26.0934C50.6762 22.6849 48.2977 20.8028 44.1086 20.8028ZM36.4029 36.1149V48.1958H44.3921C49.616 48.1958 52.3829 46.0847 52.3829 42.1172C52.3829 38.1498 49.5383 36.1143 44.0562 36.1143H36.4029V36.1149Z" fill="#656A7B"/>
</svg>
