<svg width="24" height="24" viewBox="0 0 24 24" fill="none" xmlns="http://www.w3.org/2000/svg">
<g id="Linked In">
<g id="Vector">
<path d="M24 12C24 18.6274 18.6274 24 12 24C5.37258 24 0 18.6274 0 12C0 5.37258 5.37258 0 12 0C18.6274 0 24 5.37258 24 12Z" fill="#3F424D"/>
<path d="M18.499 17.5H16.0144V13.6022C16.0144 12.6728 15.9978 11.4763 14.7222 11.4763C13.4281 11.4763 13.2301 12.4889 13.2301 13.5345V17.4997H10.7456V9.48432H13.1307V10.5797H13.1641C13.6498 9.74789 14.5561 9.24923 15.5175 9.28499C18.0357 9.28499 18.5 10.9442 18.5 13.1029L18.499 17.5Z" fill="#656A7B"/>
<path d="M7.94213 8.38865C7.15117 8.38865 6.5 7.73672 6.5 6.94436C6.5 6.15201 7.15087 5.5 7.94184 5.5C8.73273 5.5 9.38352 6.15186 9.38367 6.94407C9.38367 7.73627 8.73295 8.38858 7.94213 8.38865Z" fill="#656A7B"/>
<path d="M9.18439 17.5H6.69725V9.48432H9.18439V17.5Z" fill="#656A7B"/>
</g>
</g>
</svg>
