<svg width="24" height="16" viewBox="0 0 24 16" fill="none" xmlns="http://www.w3.org/2000/svg">
<g id="Mail">
<path id="Vector" d="M12 10.6667C13.0875 10.6833 14.6531 9.45 15.4406 8.94167C21.6609 4.92917 22.1344 4.57917 23.5688 3.57917C23.8406 3.39167 24 3.1 24 2.79167V2C24 0.895833 22.9922 0 21.75 0H2.25C1.00781 0 0 0.895833 0 2V2.79167C0 3.1 0.159375 3.3875 0.43125 3.57917C1.86562 4.575 2.33906 4.92917 8.55937 8.94167C9.34687 9.45 10.9125 10.6833 12 10.6667Z" fill="#AAAEB9"/>
<path id="Vector_2" d="M23.5453 5.28336C23.7281 5.15419 24 5.27502 24 5.47919V14C24 15.1042 22.9922 16 21.75 16H2.25C1.00781 16 0 15.1042 0 14V5.48336C0 5.27502 0.267187 5.15836 0.454687 5.28752C1.50469 6.01252 2.89687 6.93336 7.67812 10.0209C8.66719 10.6625 10.3359 12.0125 12 12.0042C13.6734 12.0167 15.375 10.6375 16.3266 10.0209C21.1078 6.93336 22.4953 6.00836 23.5453 5.28336Z" fill="#AAAEB9"/>
</g>
</svg>
