<svg width="44" height="31" viewBox="0 0 44 31" fill="none" xmlns="http://www.w3.org/2000/svg">
<path d="M11.3692 20.984C11.2092 20.984 11.0652 20.96 10.9372 20.912C10.8092 20.88 10.6652 20.864 10.5052 20.864C10.4412 20.864 10.3852 20.864 10.3372 20.864C10.2892 20.88 10.2252 20.896 10.1452 20.912L10.0012 20.768L9.73716 20.84L8.94516 20.552L8.92116 20.648L8.22516 20.456L8.15316 20.264L8.03316 20.408C7.84116 20.264 7.61716 20.144 7.36116 20.048C7.10516 19.968 6.85716 19.896 6.61716 19.832L6.54516 19.64C6.44916 19.624 6.33716 19.576 6.20916 19.496C6.09716 19.4 6.00116 19.384 5.92116 19.448C5.80916 19.4 5.68916 19.336 5.56116 19.256C5.44916 19.16 5.34516 19.064 5.24916 18.968C5.10516 18.984 4.94516 18.92 4.76916 18.776C4.59316 18.616 4.43316 18.44 4.28916 18.248C4.14516 18.04 4.04916 17.88 4.00116 17.768L3.61716 17.48L2.89716 17.528V17.336H2.80116C2.68916 17.464 2.52916 17.528 2.32116 17.528C2.16116 17.528 2.00116 17.504 1.84116 17.456C1.69716 17.392 1.56116 17.336 1.43316 17.288C1.43316 17.192 1.40916 17.152 1.36116 17.168C1.32916 17.184 1.29716 17.192 1.26516 17.192L1.28916 17L1.02516 16.904L0.881156 16.232C0.977156 16.184 1.07316 16.144 1.16916 16.112C1.26516 16.08 1.36116 16.064 1.45716 16.064C1.55316 16.064 1.62516 16.072 1.67316 16.088V15.944C1.75316 15.96 1.83316 15.984 1.91316 16.016C2.00916 16.032 2.09716 16.04 2.17716 16.04C2.33716 16.04 2.47316 16.008 2.58516 15.944V16.136C2.68116 16.056 2.80916 16.016 2.96916 16.016C3.24116 16.016 3.51316 16.128 3.78516 16.352C4.07316 16.576 4.27316 16.76 4.38516 16.904H5.20116L5.34516 17.048L7.12116 17C7.13716 17.016 7.14516 17.032 7.14516 17.048C7.14516 17.064 7.13716 17.08 7.12116 17.096C7.10516 17.112 7.12116 17.12 7.16916 17.12C7.20116 17.12 7.26516 17.112 7.36116 17.096C7.47316 17.08 7.63316 17.064 7.84116 17.048L8.00916 17.24L8.41716 17.192V17.048L8.92116 17.144C9.01716 17.08 9.24916 17.032 9.61716 17C9.98516 16.952 10.3692 16.912 10.7692 16.88C11.1692 16.848 11.4492 16.824 11.6092 16.808C11.6092 16.776 11.5932 16.68 11.5612 16.52C11.5292 16.36 11.4812 16.344 11.4172 16.472C11.1452 16.2 10.9052 15.896 10.6972 15.56C10.4892 15.208 10.2972 14.872 10.1212 14.552H9.92916L9.61716 13.976L9.54516 14.024L9.47316 13.736C9.47316 13.752 9.44116 13.76 9.37716 13.76L9.30516 13.496L9.37716 13.448C9.21716 13.368 9.08916 13.28 8.99316 13.184C8.89716 13.088 8.84116 12.944 8.82516 12.752L8.60916 12.728C8.59316 12.712 8.60116 12.704 8.63316 12.704C8.66516 12.688 8.68916 12.68 8.70516 12.68L8.29716 12.296L8.32116 11.96H8.03316C7.93716 11.832 7.85716 11.68 7.79316 11.504C7.72916 11.328 7.66516 11.192 7.60116 11.096C7.55316 10.984 7.48916 10.968 7.40916 11.048C7.36116 10.824 7.26516 10.632 7.12116 10.472C6.97716 10.312 6.88916 10.128 6.85716 9.92L6.92916 9.824C6.57716 9.408 6.32916 9.08 6.18516 8.84C6.04116 8.6 5.95316 8.272 5.92116 7.856C5.76116 7.712 5.68116 7.504 5.68116 7.232C5.68116 7.024 5.70516 6.816 5.75316 6.608C5.81716 6.4 5.85716 6.224 5.87316 6.08L5.92116 6.176L6.01716 5.696L6.16116 5.792L6.11316 5.456L6.73716 4.808L6.78516 4.784C6.78516 4.656 6.84116 4.56 6.95316 4.496C7.08116 4.432 7.20116 4.4 7.31316 4.4V4.04L7.64916 3.776C7.68116 3.808 7.70516 3.824 7.72116 3.824C7.76916 3.824 7.80916 3.8 7.84116 3.752C7.88916 3.688 7.88916 3.648 7.84116 3.632C8.01716 3.552 8.17716 3.456 8.32116 3.344C8.46516 3.216 8.61716 3.096 8.77716 2.984L8.84916 3.128C8.88116 3.144 8.89716 3.128 8.89716 3.08C8.89716 3.016 8.90516 2.976 8.92116 2.96L9.20916 2.864C9.12916 2.864 9.08916 2.824 9.08916 2.744C9.34516 2.664 9.56916 2.56 9.76116 2.432C9.95316 2.288 10.1852 2.184 10.4572 2.12L10.3612 2.072L10.6252 2.12L10.8412 1.88L10.9132 2.048V1.976L10.8892 1.88C11.0492 1.864 11.1772 1.816 11.2732 1.736C11.3852 1.656 11.5212 1.608 11.6812 1.592V1.448L13.1932 1.16L13.2412 1.064L13.5292 1.04H13.2892V0.967999L13.7212 0.895998C13.7532 1.024 13.7692 1.072 13.7692 1.04C13.7692 1.008 13.8012 0.967999 13.8652 0.92C14.2972 0.823999 14.7372 0.775999 15.1852 0.775999C15.4412 0.775999 15.6892 0.799999 15.9292 0.847999C16.1692 0.879999 16.4092 0.951999 16.6492 1.064C16.6332 1.08 16.6252 1.096 16.6252 1.112C16.6252 1.144 16.6492 1.176 16.6972 1.208C16.7612 1.24 16.8252 1.24 16.8892 1.208L17.4172 1.832L17.4892 2.12C17.8572 2.264 18.0892 2.544 18.1852 2.96C18.0732 2.896 18.0732 2.928 18.1852 3.056C18.3132 3.184 18.3612 3.384 18.3292 3.656L18.4012 3.632L18.4252 3.728C18.3132 4.016 18.2492 4.328 18.2332 4.664C18.2332 4.984 18.2092 5.32 18.1612 5.672C18.1292 6.008 18.0092 6.352 17.8012 6.704L17.6332 6.8C17.5692 7.168 17.4812 7.416 17.3692 7.544C17.2572 7.672 17.1372 7.888 17.0092 8.192C16.9932 8.144 16.9692 8.12 16.9372 8.12C16.9052 8.12 16.8812 8.192 16.8652 8.336C16.8652 8.464 16.7932 8.496 16.6492 8.432C16.6492 8.576 16.5852 8.744 16.4572 8.936C16.3292 9.112 16.1852 9.28 16.0252 9.44C15.8812 9.6 15.7692 9.72 15.6892 9.8C15.6252 9.864 15.6412 9.848 15.7372 9.752C15.7212 9.752 15.6732 9.776 15.5932 9.824L15.4492 10.304L14.5852 10.976L14.0572 10.928L13.9612 10.544L13.6732 10.592L13.4812 10.16L13.5292 9.872L13.3852 9.68L13.8172 9.296L13.9612 9.344L14.0572 9.104V9.056C14.1372 9.056 14.1932 9.04 14.2252 9.008C14.2572 8.976 14.3292 8.96 14.4412 8.96L14.7772 8.336C14.7932 8.336 14.8012 8.344 14.8012 8.36C14.8172 8.36 14.8252 8.36 14.8252 8.36C14.8892 8.36 14.9292 8.328 14.9452 8.264C14.9772 8.2 14.9692 8.16 14.9212 8.144L15.4012 7.76V7.568H15.4492L15.4972 7.664C15.5292 7.664 15.5612 7.648 15.5932 7.616C15.6252 7.568 15.6252 7.536 15.5932 7.52L15.4492 7.472L15.7852 7.136C15.8172 7.184 15.8492 7.208 15.8812 7.208C15.9292 7.208 15.9612 7.16 15.9772 7.064C16.0092 6.968 15.9772 6.912 15.8812 6.896C15.9612 6.736 16.0492 6.576 16.1452 6.416C16.2412 6.256 16.3532 6.112 16.4812 5.984L16.6012 5.936L16.8652 5.264L17.0092 5.192L17.0332 4.808L17.2492 4.688L17.3212 4.112L17.4892 4.04C17.5052 3.96 17.5212 3.84 17.5372 3.68C17.5532 3.52 17.5612 3.36 17.5612 3.2C17.5612 3.056 17.5452 2.92 17.5132 2.792C17.4972 2.648 17.4572 2.544 17.3932 2.48C17.1852 2.288 16.8892 2.112 16.5052 1.952C16.1372 1.792 15.8172 1.72 15.5452 1.736L15.2092 1.88L15.0172 1.664C14.9852 1.76 14.9132 1.832 14.8012 1.88C14.6892 1.912 14.5692 1.928 14.4412 1.928C14.3452 1.928 14.2332 1.912 14.1052 1.88C13.8012 2.04 13.5372 2.168 13.3132 2.264C13.1052 2.344 12.7932 2.496 12.3772 2.72L12.0652 2.6V2.864C11.8092 2.96 11.5292 3.112 11.2252 3.32C10.9212 3.512 10.6332 3.6 10.3612 3.584V3.8C10.2172 3.912 10.0732 4.016 9.92916 4.112C9.78516 4.192 9.63316 4.272 9.47316 4.352L9.44916 4.256C9.41716 4.384 9.31316 4.528 9.13716 4.688C8.96116 4.832 8.76916 4.968 8.56116 5.096C8.36916 5.208 8.20916 5.288 8.08116 5.336C8.06516 5.352 8.08116 5.376 8.12916 5.408C8.19316 5.44 8.22516 5.456 8.22516 5.456H8.17716L8.00916 5.696L7.91316 5.576C7.88116 5.736 7.80116 5.832 7.67316 5.864C7.56116 5.896 7.48916 6 7.45716 6.176L7.52916 6.272C7.51316 6.288 7.45716 6.328 7.36116 6.392C7.28116 6.456 7.28916 6.512 7.38516 6.56C7.22516 6.656 7.08916 6.824 6.97716 7.064C6.88116 7.304 6.83316 7.536 6.83316 7.76C6.83316 7.856 6.84916 7.952 6.88116 8.048L6.73716 8.24C6.84916 8.352 6.90516 8.512 6.90516 8.72C6.90516 8.768 6.89716 8.816 6.88116 8.864C6.88116 8.912 6.87316 8.96 6.85716 9.008C6.98516 9.04 7.08116 9.128 7.14516 9.272C7.20916 9.416 7.24116 9.552 7.24116 9.68C7.36916 9.856 7.48116 10.048 7.57716 10.256C7.68916 10.448 7.83316 10.624 8.00916 10.784L7.91316 11.072L8.29716 11.432C8.47316 11.448 8.57716 11.552 8.60916 11.744C8.65716 11.92 8.76116 12.048 8.92116 12.128L8.94516 12.08C8.97716 12.208 9.03316 12.32 9.11316 12.416C9.20916 12.512 9.27316 12.624 9.30516 12.752H9.44916C9.44916 12.864 9.52916 13.016 9.68916 13.208C9.84916 13.4 10.0252 13.584 10.2172 13.76C10.4092 13.936 10.5452 14.072 10.6252 14.168C10.6092 14.2 10.6652 14.288 10.7932 14.432C10.9212 14.576 11.0652 14.728 11.2252 14.888C11.3852 15.048 11.5132 15.176 11.6092 15.272V15.464L11.9932 15.704L12.0412 15.944L12.2812 16.088L12.2332 16.136L12.4492 16.28C12.4492 16.28 12.4572 16.272 12.4732 16.256C12.4892 16.224 12.5052 16.232 12.5212 16.28L12.6652 16.568L13.0972 16.664L13.1452 16.568L13.3372 16.664L13.7212 16.568C13.7052 16.568 13.6972 16.552 13.6972 16.52C13.7132 16.472 13.7372 16.456 13.7692 16.472V16.568L13.9132 16.472C14.0412 16.392 14.2012 16.336 14.3932 16.304C14.5852 16.256 14.7452 16.248 14.8732 16.28C14.9852 16.2 15.1292 16.144 15.3052 16.112C15.4812 16.08 15.6252 16.056 15.7372 16.04V16.016C15.7372 15.936 15.7772 15.88 15.8572 15.848C15.9532 15.816 16.0332 15.816 16.0972 15.848L16.5532 15.512L16.7452 15.584V15.656C16.7292 15.672 16.6812 15.68 16.6012 15.68C16.5372 15.68 16.5372 15.736 16.6012 15.848C16.3292 16.088 16.0412 16.264 15.7372 16.376C15.4492 16.472 15.1292 16.552 14.7772 16.616C14.6172 16.824 14.3852 16.944 14.0812 16.976C13.7772 17.008 13.5132 17.032 13.2892 17.048L13.3372 17.528H13.5772C13.7372 17.88 13.8892 18.216 14.0332 18.536C14.1932 18.856 14.2652 19.216 14.2492 19.616C14.2332 19.6 14.2172 19.592 14.2012 19.592C14.1532 19.592 14.1132 19.632 14.0812 19.712C14.0652 19.792 14.0732 19.848 14.1052 19.88L13.1932 20.768H13.1692C13.1212 20.768 13.0572 20.776 12.9772 20.792C12.8972 20.808 12.8732 20.776 12.9052 20.696L12.1372 20.936L11.9452 20.84C11.8332 20.904 11.7292 20.944 11.6332 20.96C11.5372 20.976 11.4492 20.984 11.3692 20.984ZM10.2412 20.384C10.2732 20.32 10.2812 20.288 10.2652 20.288C10.2652 20.304 10.2972 20.296 10.3612 20.264V20.24L10.2412 20.168C10.3692 20.168 10.4972 20.152 10.6252 20.12C10.7532 20.088 10.8732 20.056 10.9852 20.024C11.0492 20.104 11.1372 20.12 11.2492 20.072C11.3612 20.04 11.3772 20.016 11.2972 20L11.5132 20.024L11.6572 19.832H11.7292C11.7772 19.832 11.8252 19.832 11.8732 19.832C11.9372 19.816 11.9772 19.8 11.9932 19.784C12.0892 19.704 12.1612 19.592 12.2092 19.448C12.2732 19.304 12.3772 19.192 12.5212 19.112C12.5052 19.08 12.4972 19.032 12.4972 18.968C12.4972 18.872 12.5212 18.792 12.5692 18.728C12.4732 18.648 12.4012 18.52 12.3532 18.344C12.3052 18.168 12.2652 18.024 12.2332 17.912C12.2972 17.88 12.3452 17.816 12.3772 17.72C12.2652 17.672 12.1692 17.616 12.0892 17.552C12.0092 17.488 11.9452 17.4 11.8972 17.288L11.4652 17.432L11.2732 17.24V17.336H11.1532V17.48C11.0412 17.48 10.8572 17.504 10.6012 17.552C10.3452 17.584 10.1292 17.6 9.95316 17.6C9.85716 17.6 9.79316 17.592 9.76116 17.576C9.76116 17.48 9.70516 17.416 9.59316 17.384V17.624H9.32916C9.31316 17.576 9.27316 17.528 9.20916 17.48C9.17716 17.544 9.15316 17.576 9.13716 17.576C9.12116 17.56 9.07316 17.56 8.99316 17.576C8.99316 17.576 8.98516 17.56 8.96916 17.528C8.95316 17.48 8.93716 17.464 8.92116 17.48C8.90516 17.496 8.88916 17.528 8.87316 17.576C8.87316 17.608 8.86516 17.64 8.84916 17.672C8.59316 17.672 8.32916 17.664 8.05716 17.648C7.80116 17.632 7.54516 17.624 7.28916 17.624C7.16116 17.624 7.02516 17.624 6.88116 17.624C6.75316 17.624 6.62516 17.64 6.49716 17.672C6.46516 17.672 6.43316 17.68 6.40116 17.696C6.36916 17.696 6.33716 17.696 6.30516 17.696C6.12916 17.696 5.95316 17.672 5.77716 17.624C5.61716 17.56 5.41716 17.528 5.17716 17.528C5.11316 17.528 5.04116 17.536 4.96116 17.552C4.88116 17.552 4.80116 17.56 4.72116 17.576C4.72116 17.608 4.72116 17.632 4.72116 17.648C4.73716 17.664 4.73716 17.688 4.72116 17.72C4.78516 17.72 4.88116 17.784 5.00916 17.912C5.15316 18.024 5.29716 18.152 5.44116 18.296C5.60116 18.44 5.71316 18.536 5.77716 18.584C5.72916 18.6 5.70516 18.648 5.70516 18.728C5.88116 18.664 6.02516 18.68 6.13716 18.776C6.26516 18.856 6.36916 18.952 6.44916 19.064C6.54516 19.176 6.62516 19.24 6.68916 19.256L6.85716 19.232C6.84116 19.36 6.96116 19.448 7.21716 19.496C7.47316 19.528 7.65716 19.576 7.76916 19.64V19.784C7.86516 19.752 7.96116 19.736 8.05716 19.736C8.32916 19.736 8.54516 19.8 8.70516 19.928L8.60916 20H8.65716C8.75316 20 8.83316 20.016 8.89716 20.048C8.97716 20.096 9.06516 20.12 9.16116 20.12H9.18516C9.23316 20.12 9.27316 20.096 9.30516 20.048C9.35316 20.016 9.40916 20.008 9.47316 20.024L9.61716 20.168C9.72916 20.104 9.83316 20.088 9.92916 20.12V20.24C9.97716 20.256 10.0252 20.272 10.0732 20.288C10.1372 20.304 10.1932 20.336 10.2412 20.384ZM22.8226 19.016C22.7106 19.032 22.5746 18.984 22.4146 18.872C22.2546 18.744 22.1426 18.64 22.0786 18.56L22.1026 18.344C22.0866 18.344 22.0706 18.352 22.0546 18.368C22.0386 18.384 22.0226 18.392 22.0066 18.392L22.1026 17.792C22.1346 17.792 22.1426 17.752 22.1266 17.672C22.1266 17.592 22.1266 17.544 22.1266 17.528L22.1026 17.504L22.1266 17.096H22.2226L22.1026 16.976L22.1506 16.616L22.1986 16.592L22.1506 16.52L22.1986 16.256L22.2946 16.208C22.2946 16.176 22.2786 16.144 22.2466 16.112C22.2306 16.064 22.2226 16.024 22.2226 15.992C22.2226 15.928 22.2786 15.84 22.3906 15.728L22.2946 15.68L22.4386 15.56L22.3186 15.512C22.3986 15.448 22.4146 15.392 22.3666 15.344C22.3346 15.28 22.3426 15.216 22.3906 15.152L22.5586 14.912L22.4386 14.792L22.4626 14.648C22.5426 14.648 22.5826 14.624 22.5826 14.576C22.5826 14.544 22.5746 14.504 22.5586 14.456C22.5426 14.408 22.5346 14.36 22.5346 14.312H22.5586L22.5826 14.36L22.6546 13.88L22.7026 13.856V13.496H22.8226L22.7506 13.232L22.7266 13.256L22.2226 14.072L22.0786 14.096L21.8866 14.36L22.0066 14.408L21.9346 14.528H21.7426C21.7746 14.592 21.7906 14.64 21.7906 14.672C21.7906 14.736 21.7506 14.792 21.6706 14.84C21.5906 14.872 21.5346 14.896 21.5026 14.912L21.5506 15.056L21.3586 15.368L21.2386 15.32C21.2386 15.32 21.2306 15.336 21.2146 15.368C21.2146 15.4 21.1986 15.416 21.1666 15.416L21.0466 15.368L20.9986 15.56L21.1186 15.584C21.0546 15.648 21.0066 15.704 20.9746 15.752C20.9426 15.8 20.8626 15.824 20.7346 15.824C20.7186 15.872 20.7346 15.92 20.7826 15.968C20.6546 16.144 20.5106 16.32 20.3506 16.496C20.2066 16.672 20.0466 16.824 19.8706 16.952H19.7986L19.6066 17.144L19.5106 17.096L19.4626 17.264L19.0066 17.456L18.9586 17.576L18.7906 17.528L18.6946 17.672H18.5986C18.2146 17.672 17.8946 17.568 17.6386 17.36C17.5906 17.264 17.5666 17.152 17.5666 17.024C17.5346 17.024 17.5106 17.04 17.4946 17.072C17.4786 17.088 17.4626 17.104 17.4466 17.12L17.3026 16.52L17.3746 16.376L17.3266 16.328L17.3506 16.136H17.4226L17.6146 15.272C17.6306 15.272 17.6386 15.28 17.6386 15.296C17.6546 15.312 17.6706 15.32 17.6866 15.32C17.7186 15.32 17.7346 15.296 17.7346 15.248C17.7346 15.2 17.7266 15.168 17.7106 15.152L17.6626 15.176C17.6946 14.936 17.8146 14.76 18.0226 14.648C17.9906 14.616 17.9746 14.576 17.9746 14.528C17.9746 14.48 17.9826 14.44 17.9986 14.408C18.0306 14.36 18.0546 14.312 18.0706 14.264L18.1426 14.288V14.264L18.1186 14.216L18.2146 14.168C18.2306 14.168 18.2226 14.144 18.1906 14.096C18.1746 14.048 18.1986 14.056 18.2626 14.12V13.952H18.4066C18.4546 13.888 18.4946 13.816 18.5266 13.736C18.5586 13.656 18.5906 13.576 18.6226 13.496H18.8626L18.7906 13.328L18.9106 13.184L19.0546 13.232L19.1266 12.92L19.5106 12.632L19.3906 12.56L19.5346 12.512L19.5586 12.656C19.5586 12.48 19.6306 12.352 19.7746 12.272H19.7986L19.8226 12.392L19.8466 12.344L19.8226 12.224L20.0866 12.032L20.1106 12.128C20.1266 11.968 20.2146 11.848 20.3746 11.768C20.5346 11.672 20.7026 11.584 20.8786 11.504C21.0546 11.424 21.1506 11.336 21.1666 11.24L21.3586 11.264C21.3746 11.248 21.3826 11.224 21.3826 11.192C21.3986 11.144 21.3906 11.12 21.3586 11.12C21.5186 11.104 21.7026 11.048 21.9106 10.952H22.1506L22.0306 10.88L22.0546 10.856C22.3426 10.776 22.6386 10.736 22.9426 10.736C23.1506 10.736 23.3426 10.8 23.5186 10.928L23.9986 11.12C24.0146 11.136 23.9986 11.144 23.9506 11.144C23.9186 11.144 23.9026 11.16 23.9026 11.192C23.9026 11.208 23.9266 11.232 23.9746 11.264C24.0226 11.28 24.0626 11.288 24.0946 11.288L24.1186 11.216C24.1346 11.216 24.1426 11.248 24.1426 11.312C24.1586 11.36 24.1746 11.368 24.1906 11.336L24.3826 11.528H24.2866L24.2386 12.224H24.1426L24.0946 12.344L24.1666 12.512C24.1666 12.528 24.1586 12.56 24.1426 12.608C24.1266 12.64 24.1186 12.632 24.1186 12.584V12.536L24.0466 12.56C24.0626 12.592 24.0706 12.64 24.0706 12.704C24.0706 12.752 24.0626 12.808 24.0466 12.872C24.0466 12.92 24.0386 12.976 24.0226 13.04C23.9586 13.04 23.9186 13.048 23.9026 13.064L23.8306 13.256C23.8146 13.32 23.8226 13.36 23.8546 13.376C23.8866 13.376 23.9026 13.384 23.9026 13.4L23.8546 13.496C23.8546 13.56 23.8546 13.624 23.8546 13.688C23.8706 13.752 23.8706 13.824 23.8546 13.904H23.6626L23.3986 13.928C23.4626 14.024 23.5346 14.104 23.6146 14.168C23.6946 14.216 23.7346 14.24 23.7346 14.24C23.7666 14.272 23.7746 14.304 23.7586 14.336C23.7266 14.416 23.6946 14.496 23.6626 14.576C23.6306 14.656 23.5986 14.736 23.5666 14.816L23.6386 14.84C23.6546 14.856 23.6466 14.864 23.6146 14.864C23.5986 14.864 23.5986 14.872 23.6146 14.888L23.6386 14.912C23.6546 14.928 23.6626 14.952 23.6626 14.984C23.6626 15.048 23.6386 15.112 23.5906 15.176C23.5426 15.24 23.5026 15.312 23.4706 15.392H23.5426C23.5426 15.52 23.5346 15.696 23.5186 15.92C23.5026 16.128 23.4546 16.28 23.3746 16.376H23.3506V16.256H23.2306L23.3986 16.496C23.3346 16.704 23.2946 16.928 23.2786 17.168C23.2626 17.392 23.2386 17.616 23.2066 17.84L23.3746 18.056H23.3986V17.888L23.5426 17.792H23.6626L23.7106 17.96L23.7586 17.672C23.7586 17.656 23.7586 17.648 23.7586 17.648C23.7746 17.648 23.7826 17.648 23.7826 17.648H23.8306C23.8626 17.536 23.8706 17.456 23.8546 17.408C23.9506 17.28 24.0626 17.112 24.1906 16.904C24.3346 16.68 24.4706 16.464 24.5986 16.256C24.7266 16.032 24.8066 15.856 24.8386 15.728C24.8706 15.728 24.8946 15.744 24.9106 15.776C24.9266 15.808 24.9426 15.824 24.9586 15.824C24.9746 15.824 24.9746 15.792 24.9586 15.728C24.9586 15.648 24.9426 15.616 24.9106 15.632C24.9586 15.568 24.9906 15.496 25.0066 15.416C25.0226 15.32 25.0626 15.272 25.1266 15.272C25.2066 15.272 25.2466 15.296 25.2466 15.344C25.2466 15.376 25.2386 15.416 25.2226 15.464C25.2066 15.496 25.1986 15.528 25.1986 15.56L25.1746 16.064L25.0306 16.184L25.0786 16.208H25.1026L25.0306 16.256L25.1026 16.328H25.0306C25.0306 16.408 25.0146 16.488 24.9826 16.568C24.9666 16.648 24.9426 16.728 24.9106 16.808L24.7666 16.856L24.8146 16.952L24.6946 17.12L24.5506 17.144L24.2386 17.936L24.0946 17.912L24.1186 18.104L23.4946 18.824L23.3746 18.8L23.3506 18.944L23.2546 19.016H22.8226ZM18.4786 16.856H18.5266L19.0546 16.592C19.0866 16.624 19.0946 16.64 19.0786 16.64C19.0626 16.64 19.0546 16.64 19.0546 16.64C19.0546 16.688 19.0706 16.728 19.1026 16.76C19.1346 16.776 19.1586 16.784 19.1746 16.784L19.1266 16.544C19.1586 16.448 19.2226 16.424 19.3186 16.472L19.2946 16.52L19.4626 16.448H19.3426C19.3266 16.4 19.3426 16.376 19.3906 16.376L19.7746 16.28C19.7906 16.264 19.7666 16.256 19.7026 16.256C19.6386 16.24 19.6066 16.224 19.6066 16.208L19.7506 16.136C19.8786 16.072 19.9826 16 20.0626 15.92C20.1426 15.84 20.1826 15.8 20.1826 15.8C20.2146 15.848 20.2626 15.872 20.3266 15.872H20.3506V15.56L20.5186 15.392L20.6146 15.416L20.5906 15.296L20.7826 15.224C20.8146 15.08 20.8866 14.976 20.9986 14.912C21.1106 14.832 21.1986 14.744 21.2626 14.648H21.2146C21.2466 14.568 21.3106 14.52 21.4066 14.504C21.5026 14.472 21.5586 14.408 21.5746 14.312L21.5266 14.216L21.7906 14L21.7426 13.976C21.7746 13.944 21.7906 13.912 21.7906 13.88C21.8066 13.832 21.8466 13.816 21.9106 13.832L22.0306 13.856V13.616L22.1266 13.448H22.3186C22.3506 13.352 22.3186 13.304 22.2226 13.304L22.5586 12.848L22.7026 12.92V12.872L22.5586 12.824L22.6546 12.68L22.7506 12.656L22.7746 12.632C22.7266 12.632 22.7106 12.616 22.7266 12.584C22.7426 12.536 22.7746 12.52 22.8226 12.536L22.8466 12.344L22.9666 12.296H22.9186L22.9666 12.176H23.1346L23.0866 11.816L23.1346 11.768L23.0626 11.696C23.0306 11.808 22.9506 11.872 22.8226 11.888C22.6946 11.904 22.5826 11.912 22.4866 11.912C22.5186 11.928 22.5266 11.96 22.5106 12.008C22.4946 12.04 22.4706 12.048 22.4386 12.032L22.2946 11.96H22.2226L22.2946 12.128L22.0786 12.08L22.1266 12.176H22.0066V12.272L21.7906 12.416C21.7746 12.416 21.7026 12.408 21.5746 12.392C21.4626 12.376 21.4386 12.4 21.5026 12.464H21.5506C21.5506 12.544 21.5266 12.576 21.4786 12.56C21.4306 12.544 21.3986 12.536 21.3826 12.536L21.4306 12.56C21.1266 12.704 20.8546 12.912 20.6146 13.184C20.6466 13.2 20.6386 13.224 20.5906 13.256C20.5586 13.288 20.5266 13.28 20.4946 13.232V13.376L20.4466 13.328C20.4466 13.408 20.3986 13.48 20.3026 13.544C20.2066 13.592 20.1186 13.632 20.0386 13.664C19.9906 13.76 19.9346 13.856 19.8706 13.952C19.8066 14.048 19.7346 14.12 19.6546 14.168L19.6066 14.144L19.3426 14.312V14.384C19.3426 14.544 19.2946 14.688 19.1986 14.816C19.1186 14.928 19.0306 15.048 18.9346 15.176L18.8626 15.104L18.7906 15.416H18.6226V15.728H18.4066C18.3906 15.728 18.3906 15.744 18.4066 15.776C18.4226 15.808 18.4466 15.832 18.4786 15.848C18.4626 15.976 18.4226 16.104 18.3586 16.232C18.3106 16.344 18.2786 16.464 18.2626 16.592H18.3826C18.3506 16.72 18.3986 16.776 18.5266 16.76L18.4786 16.856ZM18.5266 15.872C18.5266 15.888 18.5106 15.88 18.4786 15.848V15.824L18.5266 15.848V15.872ZM25.8391 10.496H25.6471L25.6711 10.424L25.6471 10.4C25.5671 10.416 25.4871 10.4 25.4071 10.352C25.4711 10.32 25.4951 10.304 25.4791 10.304C25.4791 10.304 25.4871 10.272 25.5031 10.208C25.4231 10.192 25.3831 10.168 25.3831 10.136C25.3991 10.088 25.4071 10.032 25.4071 9.968L25.4551 9.848C25.5511 9.848 25.5991 9.864 25.5991 9.896C25.6151 9.912 25.6311 9.872 25.6471 9.776C25.6471 9.776 25.6391 9.768 25.6231 9.752C25.6071 9.736 25.5911 9.736 25.5751 9.752L25.5511 9.656L25.7431 9.728C25.7431 9.568 25.7591 9.472 25.7911 9.44C25.8231 9.408 25.9191 9.392 26.0791 9.392L26.0311 9.08H26.0791C26.1431 9.192 26.1831 9.248 26.1991 9.248C26.2311 9.248 26.2711 9.176 26.3191 9.032C26.2231 9.032 26.1591 9.024 26.1271 9.008H26.2231C26.2871 8.976 26.3351 8.96 26.3671 8.96H26.4391C26.5031 8.96 26.5351 8.896 26.5351 8.768H26.6071C26.6711 8.704 26.7511 8.664 26.8471 8.648V8.84C26.8951 8.856 26.9831 8.896 27.1111 8.96C27.0471 9.056 26.9671 9.144 26.8711 9.224C26.7751 9.304 26.7031 9.408 26.6551 9.536C26.5911 9.68 26.5671 9.84 26.5831 10.016C26.6151 10.192 26.5271 10.32 26.3191 10.4C26.2711 10.416 26.2311 10.432 26.1991 10.448C26.1671 10.448 26.1351 10.448 26.1031 10.448C26.0071 10.448 25.9191 10.416 25.8391 10.352V10.496ZM21.7591 30.056C21.6631 30.088 21.6151 30.072 21.6151 30.008C21.6151 29.96 21.5991 29.944 21.5671 29.96L21.4471 30.008C21.3031 29.944 21.1511 29.792 20.9911 29.552C20.8151 29.312 20.6711 29.048 20.5591 28.76C20.4311 28.488 20.3591 28.28 20.3431 28.136C20.3751 28.104 20.3911 28.08 20.3911 28.064C20.3911 28.032 20.3751 27.992 20.3431 27.944C20.3111 27.912 20.2951 27.888 20.2951 27.872C20.2951 27.872 20.3031 27.816 20.3191 27.704C20.3351 27.608 20.3111 27.56 20.2471 27.56L20.3431 27.296C20.3271 27.264 20.3111 27.28 20.2951 27.344C20.2631 27.408 20.2471 27.448 20.2471 27.464C20.2311 27.432 20.2231 27.384 20.2231 27.32C20.2231 27.208 20.2471 27.096 20.2951 26.984C20.3431 26.888 20.3911 26.8 20.4391 26.72L20.2471 26.408L20.3431 25.904L20.4871 25.856L20.4391 25.472C20.5991 25.392 20.6471 25.248 20.5831 25.04L20.7751 24.944L20.7271 24.704L20.9671 24.56L20.8711 24.368L21.2071 24.224L21.0631 24.08C21.1751 23.888 21.3191 23.704 21.4951 23.528C21.6551 23.352 21.8151 23.184 21.9751 23.024V22.976L22.4071 22.496L22.4791 22.52C22.4951 22.312 22.5911 22.152 22.7671 22.04C22.9431 21.928 23.0791 21.792 23.1751 21.632L23.4391 21.704L23.4871 21.44C23.6471 21.232 23.8871 21.128 24.2071 21.128C24.1911 21 24.2391 20.856 24.3511 20.696C24.4791 20.536 24.6231 20.392 24.7831 20.264C24.9591 20.152 25.1031 20.096 25.2151 20.096C25.1831 20.064 25.1671 20.04 25.1671 20.024C25.1671 19.976 25.2151 19.944 25.3111 19.928C25.4231 19.912 25.4391 19.864 25.3591 19.784H25.6471C25.6311 19.736 25.6231 19.68 25.6231 19.616C25.6231 19.52 25.6551 19.448 25.7191 19.4C25.7831 19.336 25.8231 19.248 25.8391 19.136H25.6951C25.7431 18.848 25.8311 18.624 25.9591 18.464C25.9431 18.448 25.9431 18.408 25.9591 18.344C25.9751 18.28 25.9911 18.264 26.0071 18.296L26.0311 18.104C26.0151 18.008 26.0071 17.848 26.0071 17.624C26.0231 17.4 26.0311 17.256 26.0311 17.192L26.1751 17.144H26.0311C26.0471 16.904 26.1111 16.64 26.2231 16.352L26.1271 15.968C26.1271 15.952 26.1511 15.904 26.1991 15.824C26.2631 15.728 26.2551 15.712 26.1751 15.776C26.1751 15.52 26.1911 15.304 26.2231 15.128C26.2551 14.936 26.2951 14.712 26.3431 14.456L26.2951 14.384C26.2951 14.352 26.3031 14.344 26.3191 14.36C26.3511 14.36 26.3671 14.36 26.3671 14.36C26.4311 14.328 26.4311 14.272 26.3671 14.192C26.3031 14.144 26.2711 14.056 26.2711 13.928C26.2711 13.848 26.2791 13.76 26.2951 13.664C26.3271 13.552 26.3511 13.472 26.3671 13.424C26.3511 13.392 26.3351 13.4 26.3191 13.448C26.3031 13.48 26.2871 13.504 26.2711 13.52V13.232C26.2391 13.168 26.2231 13.112 26.2231 13.064C26.2231 12.984 26.2391 12.92 26.2711 12.872C26.3031 12.808 26.3351 12.752 26.3671 12.704C26.3191 12.544 26.2711 12.392 26.2231 12.248C26.1911 12.104 26.1591 11.952 26.1271 11.792C26.1591 11.76 26.1991 11.768 26.2471 11.816C26.2951 11.864 26.3031 11.904 26.2711 11.936L26.5591 11.984L26.7271 12.272L26.8471 12.32L27.1111 12.608V13.088L27.1831 13.232V13.304C27.1831 13.384 27.1591 13.464 27.1111 13.544C27.0631 13.624 27.0391 13.704 27.0391 13.784C27.1351 13.784 27.1831 13.824 27.1831 13.904C27.1511 14.064 27.1191 14.288 27.0871 14.576C27.0711 14.848 27.0551 15.128 27.0391 15.416C27.0391 15.704 27.0391 15.944 27.0391 16.136H27.0631C27.0791 16.136 27.0871 16.136 27.0871 16.136C27.1031 16.12 27.1111 16.112 27.1111 16.112C27.1431 16.112 27.1591 16.144 27.1591 16.208C27.1591 16.24 27.1511 16.288 27.1351 16.352C27.1351 16.416 27.1271 16.504 27.1111 16.616L26.9191 16.664L26.8471 16.904C26.8791 16.92 26.8951 16.912 26.8951 16.88C26.9111 16.832 26.9271 16.808 26.9431 16.808V16.904L27.0391 17.048L26.9911 17.336H26.8471L26.9431 17.624C26.8791 17.64 26.8231 17.736 26.7751 17.912C26.7431 18.072 26.7271 18.184 26.7271 18.248L26.7751 18.2C26.8071 18.2 26.8231 18.24 26.8231 18.32C26.8391 18.4 26.8471 18.456 26.8471 18.488L27.3031 18.152V17.912H27.4231L27.6151 17.48C27.6471 17.528 27.6871 17.52 27.7351 17.456C27.7991 17.392 27.7911 17.352 27.7111 17.336L27.9511 17.192L28.1431 16.712H28.3111V16.472L28.5031 16.352V16.136L28.6471 16.088L28.6951 15.752L28.7671 15.824V15.752L28.8871 15.368L29.0311 15.392L29.1031 15.128L29.2231 15.152C29.2551 15.28 29.2711 15.368 29.2711 15.416C29.2711 15.624 29.2151 15.824 29.1031 16.016C29.0071 16.192 28.8791 16.344 28.7191 16.472L28.7671 16.664L28.5751 16.808L28.3351 17.384L28.3111 17.24L28.1191 17.528L28.2631 17.576C28.1671 17.752 28.0631 17.88 27.9511 17.96C27.8551 18.024 27.7111 18.072 27.5191 18.104C27.5031 18.12 27.5271 18.144 27.5911 18.176C27.6551 18.192 27.6871 18.2 27.6871 18.2L27.6151 18.392C27.5191 18.472 27.4231 18.56 27.3271 18.656C27.2311 18.752 27.1191 18.824 26.9911 18.872V19.064L26.7271 19.16L26.4631 19.64L26.5591 19.712V19.928L26.2711 20.024L26.4151 20.168L26.4631 20.12V20.36C26.4471 20.376 26.3911 20.552 26.2951 20.888C26.2151 21.224 26.1111 21.616 25.9831 22.064C25.8711 22.512 25.7671 22.92 25.6711 23.288C25.5911 23.656 25.5511 23.872 25.5511 23.936C25.4871 23.856 25.4311 23.904 25.3831 24.08C25.3351 24.272 25.2951 24.472 25.2631 24.68C25.2311 24.904 25.2151 25.04 25.2151 25.088L24.9751 25.136L24.8311 25.376H25.1191C24.9911 25.552 24.9191 25.704 24.9031 25.832C24.9031 25.96 24.8791 26.096 24.8311 26.24C24.7991 26.4 24.6551 26.608 24.3991 26.864H24.5431L24.4471 27.416L24.2071 27.368C24.1911 27.384 24.1911 27.408 24.2071 27.44C24.2391 27.472 24.2711 27.488 24.3031 27.488C24.3031 27.696 24.2471 27.848 24.1351 27.944C24.1991 28.056 24.1751 28.208 24.0631 28.4C23.9671 28.608 23.9031 28.776 23.8711 28.904L23.7271 28.952C23.7111 28.968 23.7271 28.976 23.7751 28.976C23.8231 28.976 23.8391 28.984 23.8231 29C23.7911 29.016 23.7431 29.008 23.6791 28.976C23.5991 28.944 23.5591 28.952 23.5591 29L23.6791 29.288L23.4391 29.336C23.4231 29.432 23.4231 29.504 23.4391 29.552C23.4391 29.6 23.4151 29.64 23.3671 29.672L23.1031 29.816C23.1351 29.848 23.1351 29.88 23.1031 29.912L22.2871 30.008C22.0631 29.896 21.9511 29.76 21.9511 29.6C21.9511 29.488 21.9831 29.368 22.0471 29.24C22.1111 29.112 22.1511 28.976 22.1671 28.832H22.3351C22.3511 28.848 22.3431 28.856 22.3111 28.856C22.2791 28.872 22.2711 28.888 22.2871 28.904C22.2871 28.92 22.3031 28.936 22.3351 28.952C22.3511 28.968 22.3591 28.968 22.3591 28.952C22.3751 28.936 22.3831 28.904 22.3831 28.856C22.3831 28.728 22.3671 28.632 22.3351 28.568H22.5991V28.52H22.4071C22.4231 28.296 22.4951 28.088 22.6231 27.896C22.7351 27.72 22.8471 27.544 22.9591 27.368C23.0551 27.192 23.0871 27.024 23.0551 26.864L23.1751 26.528C23.2391 26.608 23.3031 26.576 23.3671 26.432C23.4151 26.304 23.4631 26.144 23.5111 25.952C23.5431 25.776 23.5591 25.672 23.5591 25.64L23.7511 25.52L23.6791 25.328L23.8231 25.28C23.8231 25.28 23.8071 25.272 23.7751 25.256C23.7431 25.256 23.7271 25.232 23.7271 25.184L23.9191 25.04C23.9031 24.992 23.9351 24.84 24.0151 24.584C24.0951 24.344 24.1911 24.056 24.3031 23.72C24.4311 23.384 24.5431 23.064 24.6391 22.76C24.7511 22.472 24.8151 22.264 24.8311 22.136H24.9751C24.9751 22.104 24.9671 22.08 24.9511 22.064C24.9511 22.048 24.9511 22.032 24.9511 22.016C24.9511 21.936 24.9591 21.848 24.9751 21.752C25.0071 21.672 25.0231 21.592 25.0231 21.512C25.0551 21.528 25.0711 21.48 25.0711 21.368L25.1671 21.056L25.4071 20.984V20.912C25.4071 20.832 25.3991 20.752 25.3831 20.672C25.3671 20.608 25.3591 20.544 25.3591 20.48H25.3111C25.2151 20.592 25.0951 20.68 24.9511 20.744C24.8071 20.824 24.6551 20.88 24.4951 20.912V20.936L24.6871 21.056C24.4311 21.12 24.2151 21.248 24.0391 21.44C23.8631 21.648 23.7031 21.856 23.5591 22.064C23.5431 22.016 23.5111 22.016 23.4631 22.064C23.3991 22.112 23.3911 22.16 23.4391 22.208C23.3431 22.272 23.2551 22.376 23.1751 22.52C23.0951 22.664 23.0071 22.752 22.9111 22.784L22.7191 22.832L22.7911 22.904C22.6631 23 22.5591 23.128 22.4791 23.288C22.3831 23.464 22.2951 23.616 22.2151 23.744H22.0711C22.0871 23.92 22.0471 24.088 21.9511 24.248C21.8551 24.408 21.7911 24.576 21.7591 24.752L21.4951 24.8L21.5911 25.04L21.3991 25.088V25.76C21.3831 25.728 21.3751 25.712 21.3751 25.712C21.3591 25.712 21.3511 25.712 21.3511 25.712C21.3191 25.712 21.3031 25.768 21.3031 25.88C21.3031 26.008 21.3031 26.08 21.3031 26.096L20.9671 26.264L21.0151 26.456H21.0631C21.0951 26.376 21.1111 26.328 21.1111 26.312C21.0951 26.296 21.1431 26.28 21.2551 26.264C21.2391 26.472 21.1591 26.688 21.0151 26.912C21.0791 26.992 21.1111 27.104 21.1111 27.248C21.1111 27.376 21.0871 27.504 21.0391 27.632C20.9911 27.776 20.9671 27.912 20.9671 28.04H20.9911C21.0711 28.04 21.1191 28.12 21.1351 28.28C21.1511 28.44 21.1671 28.552 21.1831 28.616L21.0151 28.904L21.1831 28.952L21.2551 29.432C21.3511 29.512 21.4471 29.6 21.5431 29.696C21.6391 29.808 21.7111 29.928 21.7591 30.056ZM30.856 12.176C30.712 12.176 30.552 12.12 30.376 12.008L30.304 11.984H30.256C30.24 11.968 30.224 11.96 30.208 11.96C30.208 11.928 30.216 11.904 30.232 11.888H30.112L30.136 11.6C30.232 11.6 30.288 11.576 30.304 11.528L30.256 11.504H30.328V11.432C30.328 11.336 30.352 11.264 30.4 11.216C30.448 11.152 30.504 11.088 30.568 11.024C30.6 11.04 30.632 11.048 30.664 11.048C30.712 11.048 30.744 11.064 30.76 11.096C30.744 11 30.744 10.912 30.76 10.832L30.832 10.856C30.864 10.728 30.936 10.648 31.048 10.616C31.176 10.568 31.288 10.52 31.384 10.472L31.408 10.616L31.456 10.592V10.52H31.576C31.608 10.424 31.664 10.376 31.744 10.376L31.768 10.472C31.832 10.408 31.904 10.376 31.984 10.376C32.112 10.424 32.136 10.504 32.056 10.616C32.024 10.632 31.992 10.68 31.96 10.76C31.928 10.68 31.888 10.632 31.84 10.616L31.816 10.784L31.792 10.688H31.768L31.816 10.88C31.768 10.896 31.736 10.92 31.72 10.952C31.704 10.984 31.68 11.016 31.648 11.048C31.616 11.08 31.584 11.088 31.552 11.072C31.52 11.056 31.488 11.072 31.456 11.12C31.488 11.104 31.536 11.104 31.6 11.12C31.552 11.12 31.52 11.128 31.504 11.144L31.6 11.168C31.536 11.232 31.488 11.312 31.456 11.408C31.424 11.488 31.392 11.568 31.36 11.648H31.24V11.792L31.312 11.816C31.264 11.864 31.208 11.888 31.144 11.888L31.168 12.008C31.152 12.04 31.112 12.08 31.048 12.128C31 12.16 30.936 12.176 30.856 12.176ZM29.368 19.424C29.288 19.424 29.232 19.384 29.2 19.304L29.104 19.376L29.008 19.304L29.104 19.184L29.056 19.088H29.008V19.184L28.888 19.16L28.84 19.016C28.84 19.016 28.848 19.016 28.864 19.016C28.896 19 28.904 18.984 28.888 18.968H28.768C28.768 18.936 28.768 18.904 28.768 18.872C28.784 18.824 28.808 18.792 28.84 18.776C28.76 18.712 28.72 18.56 28.72 18.32C28.72 18.064 28.72 17.904 28.72 17.84L28.768 17.624H28.864L28.768 17.24C28.768 17.224 28.792 17.232 28.84 17.264C28.888 17.28 28.912 17.288 28.912 17.288V17.168C28.896 17.136 28.864 17.104 28.816 17.072C28.784 17.024 28.768 16.976 28.768 16.928L28.792 16.904C28.856 16.76 28.896 16.608 28.912 16.448C28.944 16.288 28.976 16.136 29.008 15.992L28.936 15.944L28.96 15.704C28.976 15.672 28.992 15.672 29.008 15.704C29.024 15.72 29.032 15.728 29.032 15.728H29.128C29.112 15.696 29.088 15.664 29.056 15.632C29.04 15.584 29.032 15.528 29.032 15.464L29.104 15.392C29.072 15.376 29.056 15.336 29.056 15.272C29.056 15.208 29.064 15.152 29.08 15.104C29.096 15.04 29.112 15 29.128 14.984L29.104 14.912C29.184 14.88 29.216 14.808 29.2 14.696C29.2 14.568 29.208 14.456 29.224 14.36C29.256 14.248 29.36 14.2 29.536 14.216C29.52 14.184 29.504 14.152 29.488 14.12C29.472 14.088 29.448 14.064 29.416 14.048H29.368V13.88L29.584 13.64L29.536 13.544L29.608 13.496V13.472C29.608 13.392 29.64 13.336 29.704 13.304C29.768 13.256 29.832 13.224 29.896 13.208L29.872 13.136H29.968L29.992 13.232L29.968 13.256H30.04C30.04 13.192 30.04 13.16 30.04 13.16C30.04 13.16 30.096 13.152 30.208 13.136L30.28 13.328C30.504 13.392 30.648 13.488 30.712 13.616C30.792 13.744 30.864 13.904 30.928 14.096L31 14.048V14.096C31 14.224 30.944 14.32 30.832 14.384L30.808 14.36C30.824 14.408 30.832 14.448 30.832 14.48C30.832 14.512 30.792 14.544 30.712 14.576C30.696 14.672 30.672 14.776 30.64 14.888C30.608 15 30.576 15.104 30.544 15.2C30.544 15.168 30.528 15.168 30.496 15.2C30.464 15.216 30.464 15.24 30.496 15.272L30.4 15.32H30.472C30.44 15.464 30.384 15.608 30.304 15.752C30.224 15.896 30.192 16.04 30.208 16.184H30.064L30.088 16.352L30.136 16.328C30.12 16.376 30.104 16.424 30.088 16.472C30.072 16.504 30.064 16.552 30.064 16.616H29.992L30.064 16.664H30.04L30.064 16.712L29.992 16.928H29.896L29.944 17.12C29.912 17.152 29.864 17.144 29.8 17.096C29.8 17.192 29.84 17.272 29.92 17.336L29.824 17.744H29.728L29.776 17.816L29.824 17.768L29.776 18.32V18.344H29.944L29.968 18.488C30.048 18.456 30.136 18.432 30.232 18.416C30.328 18.4 30.416 18.376 30.496 18.344L30.544 18.248L30.688 18.272V18.176L30.64 18.152L30.808 18.032V18.056L30.832 17.984L30.904 18.008C30.904 17.96 30.92 17.928 30.952 17.912C30.984 17.88 31.008 17.832 31.024 17.768L31.12 17.84L31.336 17.6C31.336 17.6 31.312 17.584 31.264 17.552L31.312 17.432L31.456 17.384C31.44 17.368 31.432 17.344 31.432 17.312C31.432 17.28 31.448 17.256 31.48 17.24C31.528 17.208 31.56 17.168 31.576 17.12C31.56 17.12 31.552 17.112 31.552 17.096C31.552 17.064 31.56 17.048 31.576 17.048L31.744 17.024C31.76 16.96 31.768 16.904 31.768 16.856C31.768 16.792 31.776 16.728 31.792 16.664C31.808 16.648 31.816 16.656 31.816 16.688C31.832 16.704 31.84 16.72 31.84 16.736C31.872 16.768 31.904 16.768 31.936 16.736V16.664L32.008 16.64L31.864 16.592L31.984 16.568H31.936V16.472C32.016 16.424 32.072 16.344 32.104 16.232C32.152 16.104 32.184 16 32.2 15.92L32.272 15.944V15.8L32.344 15.776C32.296 15.776 32.288 15.76 32.32 15.728H32.416C32.4 15.552 32.44 15.408 32.536 15.296C32.632 15.168 32.696 15.032 32.728 14.888H32.824V14.792H33.04C33.04 14.888 33.024 14.936 32.992 14.936C32.976 14.936 32.952 14.968 32.92 15.032L33.016 15.272L32.968 15.344L32.872 15.296L32.92 15.44L32.848 15.392L32.872 15.584L32.824 15.56C32.808 15.624 32.768 15.76 32.704 15.968C32.656 16.16 32.592 16.28 32.512 16.328L32.416 16.304C32.416 16.336 32.424 16.368 32.44 16.4C32.456 16.432 32.472 16.464 32.488 16.496L32.368 16.736L32.272 16.688C32.288 16.832 32.24 16.992 32.128 17.168C32.016 17.328 31.92 17.472 31.84 17.6H31.696C31.696 17.664 31.688 17.72 31.672 17.768C31.656 17.816 31.648 17.88 31.648 17.96L31.48 18.032L31.576 18.056L31.408 18.128V18.152C31.408 18.216 31.384 18.28 31.336 18.344C31.304 18.392 31.28 18.432 31.264 18.464L31.12 18.44V18.608H31C31 18.688 30.968 18.752 30.904 18.8C30.904 18.784 30.888 18.776 30.856 18.776C30.84 18.76 30.824 18.76 30.808 18.776C30.84 18.808 30.84 18.848 30.808 18.896C30.776 18.928 30.744 18.952 30.712 18.968L30.64 18.944V19.04C30.496 19.184 30.296 19.272 30.04 19.304L30.016 19.352L29.896 19.4V19.304C29.8 19.32 29.728 19.344 29.68 19.376C29.648 19.408 29.568 19.424 29.44 19.424L29.416 19.352H29.392L29.368 19.424ZM29.896 16.688L29.992 16.736L30.04 16.664L29.896 16.688ZM42.5791 22.088L41.9311 22.352L41.8111 22.232C41.7951 22.232 41.7951 22.24 41.8111 22.256C41.8271 22.288 41.8351 22.32 41.8351 22.352L41.4511 22.304L40.3951 21.416C40.3311 21.288 40.2511 21.104 40.1551 20.864C40.0591 20.624 39.9391 20.48 39.7951 20.432L39.8431 20.384L39.6751 20.12C39.6911 20.104 39.7071 20.096 39.7231 20.096C39.7551 20.096 39.7711 20.088 39.7711 20.072L39.6031 20.024L39.6271 19.736L39.6751 19.784C39.6591 19.736 39.6271 19.648 39.5791 19.52C39.5311 19.392 39.4751 19.28 39.4111 19.184C39.3471 19.072 39.2911 19.032 39.2431 19.064C39.2271 18.984 39.2031 18.872 39.1711 18.728C39.1551 18.584 39.1071 18.48 39.0271 18.416C39.0591 18.368 39.0751 18.28 39.0751 18.152C39.0751 17.928 39.0031 17.712 38.8591 17.504C38.9231 17.408 38.9151 17.264 38.8351 17.072C38.7711 16.88 38.7071 16.744 38.6431 16.664L38.7151 16.352L38.5711 16.208L38.4511 15.272C38.4671 15.256 38.4751 15.24 38.4751 15.224H38.4511V15.032C38.1951 15.384 37.8911 15.744 37.5391 16.112C37.1871 16.464 36.9071 16.832 36.6991 17.216L36.5311 17.192C36.4831 17.24 36.4031 17.36 36.2911 17.552C36.1791 17.728 36.0591 17.88 35.9311 18.008C35.8191 18.136 35.7071 18.152 35.5951 18.056L35.1391 18.464L35.1871 18.512C35.0751 18.576 34.8671 18.688 34.5631 18.848C34.2751 19.008 34.0191 19.088 33.7951 19.088C33.6831 19.088 33.5951 19.056 33.5311 18.992L33.2671 19.04V19.112L32.7391 19.064V18.992L32.2111 18.632V18.776L31.8031 18.488C31.7871 18.472 31.7871 18.464 31.8031 18.464C31.8351 18.448 31.8591 18.44 31.8751 18.44L31.6591 18.32L31.4911 17.624C31.5871 17.624 31.6351 17.568 31.6351 17.456C31.6351 17.376 31.6111 17.272 31.5631 17.144C31.5311 17.016 31.5071 16.912 31.4911 16.832H31.6351C31.5711 16.752 31.5631 16.624 31.6111 16.448C31.6591 16.272 31.7311 16.096 31.8271 15.92C31.9231 15.744 32.0031 15.624 32.0671 15.56C32.0831 15.624 32.1071 15.632 32.1391 15.584C32.1871 15.536 32.1871 15.504 32.1391 15.488L32.3311 15.32H32.4511C32.4671 15.256 32.5311 15.136 32.6431 14.96C32.7551 14.768 32.8751 14.608 33.0031 14.48C33.1311 14.352 33.2271 14.36 33.2911 14.504C33.4831 14.136 33.7871 13.896 34.2031 13.784L34.1791 13.688L34.6351 13.616L34.8271 13.448L34.7791 13.376L35.3311 13.304L35.2111 13.208C35.3871 13.192 35.5551 13.16 35.7151 13.112C35.8911 13.048 36.0591 13.024 36.2191 13.04V12.896C36.5391 12.816 36.8591 12.76 37.1791 12.728C37.5151 12.696 37.8431 12.672 38.1631 12.656V12.56L38.2831 12.248H38.1631L38.1151 11.96C38.2111 12.008 38.2671 12.032 38.2831 12.032C38.3151 12.032 38.3311 12.016 38.3311 11.984C38.3311 11.952 38.3071 11.904 38.2591 11.84C38.2271 11.776 38.1951 11.728 38.1631 11.696H38.2831C38.2991 11.664 38.3071 11.632 38.3071 11.6C38.3071 11.536 38.2431 11.536 38.1151 11.6L38.1871 11.216C38.1391 11.024 38.1151 10.816 38.1151 10.592C38.1151 10.224 38.1631 9.888 38.2591 9.584L38.0911 9.728C38.0911 9.44 38.0911 9.152 38.0911 8.864C38.0911 8.56 38.1471 8.272 38.2591 8L38.0911 8.024L38.1151 6.944L38.2591 6.896C38.2431 6.768 38.2191 6.64 38.1871 6.512C38.1711 6.384 38.1631 6.256 38.1631 6.128C38.1631 6 38.1711 5.872 38.1871 5.744C38.2191 5.6 38.2431 5.464 38.2591 5.336L38.4031 5.24L38.3071 5.024H38.4031C38.4191 4.992 38.4191 4.952 38.4031 4.904C38.3871 4.856 38.3871 4.824 38.4031 4.808L38.5471 4.76L38.4271 4.712C38.4111 4.712 38.3951 4.72 38.3791 4.736C38.3791 4.736 38.3631 4.72 38.3311 4.688C38.3631 4.576 38.3791 4.424 38.3791 4.232C38.3951 4.04 38.4271 3.856 38.4751 3.68C38.5231 3.504 38.6031 3.392 38.7151 3.344L38.6431 3.248L39.0031 2.504L39.1711 2.432C39.3151 2.448 39.4591 2.472 39.6031 2.504C39.7471 2.536 39.8751 2.592 39.9871 2.672C40.1471 2.64 40.2991 2.688 40.4431 2.816C40.6031 2.944 40.7471 3.096 40.8751 3.272C41.0031 3.448 41.0911 3.592 41.1391 3.704H41.2111L41.1151 4.04H41.2111V3.896L41.2591 3.944L41.2831 4.352C41.3151 4.368 41.3311 4.352 41.3311 4.304C41.3471 4.24 41.3631 4.208 41.3791 4.208L41.4751 4.376L41.3791 4.568L41.5471 4.592L41.6191 4.856L41.5471 4.784C41.5311 4.784 41.5311 4.816 41.5471 4.88C41.5791 4.928 41.6031 4.968 41.6191 5L41.5951 5.576L41.5471 5.456L41.5231 5.552L41.6191 5.648L41.4511 6.32L41.5471 6.368L41.4031 6.464C41.3871 6.48 41.3711 6.488 41.3551 6.488C41.3391 6.488 41.3311 6.488 41.3311 6.488C41.3311 6.504 41.3951 6.552 41.5231 6.632L41.4271 7.184L41.3071 7.208L41.3551 7.352C41.3551 7.368 41.3551 7.36 41.3551 7.328C41.3711 7.296 41.3791 7.288 41.3791 7.304L41.3071 7.784L41.1391 7.832C41.1871 7.88 41.2111 7.944 41.2111 8.024C41.2111 8.152 41.1791 8.312 41.1151 8.504C41.0511 8.696 41.0111 8.84 40.9951 8.936C40.8031 8.968 40.7951 8.984 40.9711 8.984L40.8031 9.584L40.6591 9.728L40.6351 10.088C40.5711 10.12 40.5151 10.152 40.4671 10.184C40.4191 10.216 40.4431 10.232 40.5391 10.232L40.3471 10.52L40.3951 10.64L40.1791 11.264L40.1311 11.192C40.1151 11.368 40.0831 11.504 40.0351 11.6C40.0031 11.68 39.8911 11.76 39.6991 11.84L39.7951 12.272L39.5071 12.776V12.896C39.8431 12.976 40.0911 13.096 40.2511 13.256C40.4271 13.416 40.6351 13.616 40.8751 13.856H40.9231L40.8271 14.168C40.7631 14.008 40.5871 13.872 40.2991 13.76C40.0111 13.632 39.7791 13.56 39.6031 13.544L39.5311 13.832L39.6271 13.88L39.5791 14.192H39.6751L39.5791 14.504L39.6751 14.432C39.6911 14.64 39.7231 14.848 39.7711 15.056C39.8191 15.264 39.8591 15.48 39.8911 15.704L39.7711 15.728L39.8431 15.752C40.0191 16.136 40.1391 16.576 40.2031 17.072C40.2831 17.568 40.4031 18.024 40.5631 18.44C40.4671 18.456 40.4351 18.464 40.4671 18.464C40.4991 18.464 40.5551 18.48 40.6351 18.512L40.7071 19.112L40.8511 19.064L41.1391 19.88H41.2111L41.5471 20.576L41.4511 20.6L41.4751 20.624L41.6911 20.768L41.8831 21.08H41.9791L42.2431 21.44L42.2911 21.368L42.3391 21.488L42.6991 21.368L42.8431 21.128L42.8911 21.176L43.0351 21.008L43.0591 20.96L43.1311 21.08L43.0591 21.488L42.9151 21.44V21.728L42.7711 21.776L42.8191 21.872L42.5551 21.944L42.5791 22.088ZM39.4351 11.864C39.4511 11.864 39.4831 11.8 39.5311 11.672L39.6991 11.624L39.6271 11.552H39.6991L39.6031 11.504V11.36L39.7711 11.288L39.7471 11.096L39.8911 10.952C39.8271 10.68 39.8671 10.464 40.0111 10.304C40.1551 10.144 40.2351 10.008 40.2511 9.896H40.2031L40.2511 9.728L40.2031 9.752C40.2191 9.592 40.2831 9.448 40.3951 9.32V9.224C40.3951 9.032 40.4351 8.832 40.5151 8.624L40.5871 8.6L40.5391 8.408L40.7551 8.288L40.7071 8.144L40.8271 8.096L40.6591 8C40.7071 7.968 40.7231 7.92 40.7071 7.856C40.7071 7.792 40.7391 7.752 40.8031 7.736C40.8191 7.736 40.8511 7.76 40.8991 7.808C40.9471 7.856 40.9551 7.848 40.9231 7.784L40.7311 7.64C40.7471 7.416 40.8111 7.184 40.9231 6.944H40.9711V6.776L40.8751 6.824L40.9231 6.536L41.0191 6.464L40.9711 6.44V5.912H41.0911V5.792C40.9951 5.744 40.9471 5.632 40.9471 5.456C40.9471 5.264 40.9791 5.104 41.0431 4.976C40.9791 4.976 40.9231 4.904 40.8751 4.76C40.8271 4.616 40.8031 4.52 40.8031 4.472C40.9151 4.44 40.9391 4.376 40.8751 4.28L40.7311 4.304L40.5631 4.064L40.7071 3.968L40.6591 3.896C40.5471 3.912 40.4111 3.96 40.2511 4.04V3.944C40.2351 3.944 40.2191 3.992 40.2031 4.088C40.2031 4.184 40.1951 4.248 40.1791 4.28L40.0351 4.352V4.4C40.0351 4.432 40.0191 4.472 39.9871 4.52C39.9711 4.568 39.9711 4.616 39.9871 4.664L39.7711 4.688V4.784L39.9151 4.832H39.8911L39.8431 4.976L39.7711 4.952V5.024C39.7711 5.12 39.7551 5.224 39.7231 5.336C39.6911 5.448 39.6751 5.568 39.6751 5.696L39.5311 5.768L39.6271 5.84C39.5791 5.888 39.5471 5.976 39.5311 6.104C39.5311 6.232 39.5311 6.32 39.5311 6.368L39.3871 6.464C39.4351 6.56 39.4591 6.672 39.4591 6.8C39.4591 6.912 39.4271 7.024 39.3631 7.136L39.4591 7.4H39.3391L39.2911 7.352L39.3631 7.448L39.4591 7.424C39.4271 7.568 39.4111 7.712 39.4111 7.856C39.4271 8 39.4351 8.144 39.4351 8.288L39.2911 8.336L39.4351 8.456L39.3391 8.552H39.4351V8.648L39.3151 8.792L39.4351 8.72V8.936H39.3871L39.3151 8.888L39.2911 9.032L39.4351 9.152C39.4191 9.168 39.3871 9.24 39.3391 9.368C39.3071 9.48 39.3391 9.528 39.4351 9.512V9.704L39.3391 9.728C39.3871 9.744 39.4111 9.776 39.4111 9.824C39.4271 9.872 39.4351 9.912 39.4351 9.944C39.3711 9.96 39.3391 10.056 39.3391 10.232C39.3391 10.296 39.3391 10.368 39.3391 10.448C39.3551 10.512 39.3631 10.56 39.3631 10.592L39.2431 10.64L39.3151 10.712L39.4351 10.616L39.3391 10.928L39.4351 10.952C39.4191 10.968 39.4031 11.04 39.3871 11.168C39.3871 11.28 39.3871 11.4 39.3871 11.528C39.3871 11.752 39.4031 11.864 39.4351 11.864ZM32.8591 18.608C32.8911 18.624 32.9391 18.616 33.0031 18.584C33.0671 18.536 33.1071 18.512 33.1231 18.512L33.0751 18.584C33.1711 18.584 33.2751 18.56 33.3871 18.512C33.4991 18.448 33.5871 18.44 33.6511 18.488C33.6831 18.392 33.7391 18.344 33.8191 18.344C33.9151 18.344 33.9951 18.352 34.0591 18.368L34.8271 17.936L34.8991 18.008L34.8511 17.84C34.8831 17.856 34.9151 17.864 34.9471 17.864C34.9951 17.864 35.0271 17.864 35.0431 17.864V17.744H35.1631C35.1631 17.648 35.2431 17.56 35.4031 17.48C35.5631 17.4 35.6671 17.312 35.7151 17.216L35.8351 17.312V17.264C35.8351 17.216 35.8511 17.176 35.8831 17.144C35.9151 17.096 35.9471 17.048 35.9791 17L36.0991 17.048L36.1711 16.928L36.2191 16.976L36.1711 16.832C36.2831 16.784 36.3711 16.704 36.4351 16.592C36.5151 16.464 36.6271 16.408 36.7711 16.424C36.7711 16.248 36.8911 16.056 37.1311 15.848C37.3871 15.624 37.5791 15.472 37.7071 15.392L37.7551 15.44L37.7311 15.128L37.9471 15.056L38.0191 14.768L38.2111 14.672C38.2111 14.592 38.2351 14.512 38.2831 14.432C38.3311 14.352 38.3391 14.272 38.3071 14.192L38.3311 14.168L38.2831 13.76H38.3551L38.3071 13.688L38.2591 13.376H38.0431L38.0911 13.304H37.9471L37.8751 13.352L37.9471 13.4L37.7551 13.448L37.7071 13.376L37.5151 13.4C37.4511 13.544 37.3551 13.616 37.2271 13.616C37.1791 13.616 37.1231 13.608 37.0591 13.592C37.0111 13.576 36.9551 13.56 36.8911 13.544L36.8431 13.712L36.6991 13.664C36.6991 13.792 36.6431 13.856 36.5311 13.856V13.76H36.5071L36.4831 13.904C36.4191 13.92 36.3631 13.936 36.3151 13.952C36.2671 13.968 36.2191 13.984 36.1711 14C36.2031 13.936 36.1871 13.904 36.1231 13.904C36.0751 13.904 36.0591 13.944 36.0751 14.024L36.1711 14.048V14.072C35.9951 14.136 35.8431 14.216 35.7151 14.312C35.5871 14.408 35.4431 14.48 35.2831 14.528L35.2111 14.432L35.1631 14.456L35.1871 14.552L35.0911 14.576V14.72L34.8271 14.648L34.7791 14.888L34.6111 14.96L34.6831 14.744H34.6351L34.5391 14.816C34.5231 14.928 34.4911 15.024 34.4431 15.104C34.4111 15.184 34.3391 15.24 34.2271 15.272L34.1551 15.224V15.32L33.9391 15.392L33.8911 15.56L33.7231 15.536L33.7471 15.68L33.5071 15.944L33.4111 15.848L33.4351 15.944C33.3711 15.944 33.3311 15.968 33.3151 16.016C33.2991 16.064 33.2831 16.112 33.2671 16.16H33.2431L33.2191 16.016C33.2191 16.176 33.1631 16.304 33.0511 16.4C32.9391 16.496 32.8431 16.608 32.7631 16.736L32.6431 16.616V16.856C32.6431 16.92 32.6271 16.976 32.5951 17.024C32.5791 17.072 32.5151 17.12 32.4031 17.168C32.3391 17.28 32.3151 17.408 32.3311 17.552C32.3471 17.696 32.3151 17.824 32.2351 17.936C32.2831 18.032 32.3311 18.112 32.3791 18.176C32.4431 18.224 32.5071 18.288 32.5711 18.368L32.4991 18.392L32.6911 18.416L32.7151 18.488L32.9551 18.512L32.8591 18.608ZM43.1311 21.032V21.08V21.032Z" fill="white"/>
</svg>
