<svg width="152" height="152" viewBox="0 0 152 152" fill="none" xmlns="http://www.w3.org/2000/svg">
<g id="portfolio logo" filter="url(#filter0_d_134_1123)">
<g clip-path="url(#clip0_134_1123)">
<rect width="152" height="152" rx="76" fill="#15161A"/>
<path id="SA" d="M65.0645 105.952C64.5845 105.952 64.1525 105.88 63.7685 105.736C63.3845 105.64 62.9525 105.592 62.4725 105.592C62.2805 105.592 62.1125 105.592 61.9685 105.592C61.8245 105.64 61.6325 105.688 61.3925 105.736L60.9605 105.304L60.1685 105.52L57.7925 104.656L57.7205 104.944L55.6325 104.368L55.4165 103.792L55.0565 104.224C54.4805 103.792 53.8085 103.432 53.0405 103.144C52.2725 102.904 51.5285 102.688 50.8085 102.496L50.5925 101.92C50.3045 101.872 49.9685 101.728 49.5845 101.488C49.2485 101.2 48.9605 101.152 48.7205 101.344C48.3845 101.2 48.0245 101.008 47.6405 100.768C47.3045 100.48 46.9925 100.192 46.7045 99.904C46.2725 99.952 45.7925 99.76 45.2645 99.328C44.7365 98.848 44.2565 98.32 43.8245 97.744C43.3925 97.12 43.1045 96.64 42.9605 96.304L41.8085 95.44L39.6485 95.584V95.008H39.3605C39.0245 95.392 38.5445 95.584 37.9205 95.584C37.4405 95.584 36.9605 95.512 36.4805 95.368C36.0485 95.176 35.6405 95.008 35.2565 94.864C35.2565 94.576 35.1845 94.456 35.0405 94.504C34.9445 94.552 34.8485 94.576 34.7525 94.576L34.8245 94L34.0325 93.712L33.6005 91.696C33.8885 91.552 34.1765 91.432 34.4645 91.336C34.7525 91.24 35.0405 91.192 35.3285 91.192C35.6165 91.192 35.8325 91.216 35.9765 91.264V90.832C36.2165 90.88 36.4565 90.952 36.6965 91.048C36.9845 91.096 37.2485 91.12 37.4885 91.12C37.9685 91.12 38.3765 91.024 38.7125 90.832V91.408C39.0005 91.168 39.3845 91.048 39.8645 91.048C40.6805 91.048 41.4965 91.384 42.3125 92.056C43.1765 92.728 43.7765 93.28 44.1125 93.712H46.5605L46.9925 94.144L52.3205 94C52.3685 94.048 52.3925 94.096 52.3925 94.144C52.3925 94.192 52.3685 94.24 52.3205 94.288C52.2725 94.336 52.3205 94.36 52.4645 94.36C52.5605 94.36 52.7525 94.336 53.0405 94.288C53.3765 94.24 53.8565 94.192 54.4805 94.144L54.9845 94.72L56.2085 94.576V94.144L57.7205 94.432C58.0085 94.24 58.7045 94.096 59.8085 94C60.9125 93.856 62.0645 93.736 63.2645 93.64C64.4645 93.544 65.3045 93.472 65.7845 93.424C65.7845 93.328 65.7365 93.04 65.6405 92.56C65.5445 92.08 65.4005 92.032 65.2085 92.416C64.3925 91.6 63.6725 90.688 63.0485 89.68C62.4245 88.624 61.8485 87.616 61.3205 86.656H60.7445L59.8085 84.928L59.5925 85.072L59.3765 84.208C59.3765 84.256 59.2805 84.28 59.0885 84.28L58.8725 83.488L59.0885 83.344C58.6085 83.104 58.2245 82.84 57.9365 82.552C57.6485 82.264 57.4805 81.832 57.4325 81.256L56.7845 81.184C56.7365 81.136 56.7605 81.112 56.8565 81.112C56.9525 81.064 57.0245 81.04 57.0725 81.04L55.8485 79.888L55.9205 78.88H55.0565C54.7685 78.496 54.5285 78.04 54.3365 77.512C54.1445 76.984 53.9525 76.576 53.7605 76.288C53.6165 75.952 53.4245 75.904 53.1845 76.144C53.0405 75.472 52.7525 74.896 52.3205 74.416C51.8885 73.936 51.6245 73.384 51.5285 72.76L51.7445 72.472C50.6885 71.224 49.9445 70.24 49.5125 69.52C49.0805 68.8 48.8165 67.816 48.7205 66.568C48.2405 66.136 48.0005 65.512 48.0005 64.696C48.0005 64.072 48.0725 63.448 48.2165 62.824C48.4085 62.2 48.5285 61.672 48.5765 61.24L48.7205 61.528L49.0085 60.088L49.4405 60.376L49.2965 59.368L51.1685 57.424L51.3125 57.352C51.3125 56.968 51.4805 56.68 51.8165 56.488C52.2005 56.296 52.5605 56.2 52.8965 56.2V55.12L53.9045 54.328C54.0005 54.424 54.0725 54.472 54.1205 54.472C54.2645 54.472 54.3845 54.4 54.4805 54.256C54.6245 54.064 54.6245 53.944 54.4805 53.896C55.0085 53.656 55.4885 53.368 55.9205 53.032C56.3525 52.648 56.8085 52.288 57.2885 51.952L57.5045 52.384C57.6005 52.432 57.6485 52.384 57.6485 52.24C57.6485 52.048 57.6725 51.928 57.7205 51.88L58.5845 51.592C58.3445 51.592 58.2245 51.472 58.2245 51.232C58.9925 50.992 59.6645 50.68 60.2405 50.296C60.8165 49.864 61.5125 49.552 62.3285 49.36L62.0405 49.216L62.8325 49.36L63.4805 48.64L63.6965 49.144V48.928L63.6245 48.64C64.1045 48.592 64.4885 48.448 64.7765 48.208C65.1125 47.968 65.5205 47.824 66.0005 47.776V47.344L70.5365 46.48L70.6805 46.192L71.5445 46.12H70.8245V45.904L72.1205 45.688C72.2165 46.072 72.2645 46.216 72.2645 46.12C72.2645 46.024 72.3605 45.904 72.5525 45.76C73.8485 45.472 75.1685 45.328 76.5125 45.328C77.2805 45.328 78.0245 45.4 78.7445 45.544C79.4645 45.64 80.1845 45.856 80.9045 46.192C80.8565 46.24 80.8325 46.288 80.8325 46.336C80.8325 46.432 80.9045 46.528 81.0485 46.624C81.2405 46.72 81.4325 46.72 81.6245 46.624L83.2085 48.496L83.4245 49.36C84.5285 49.792 85.2245 50.632 85.5125 51.88C85.1765 51.688 85.1765 51.784 85.5125 52.168C85.8965 52.552 86.0405 53.152 85.9445 53.968L86.1605 53.896L86.2325 54.184C85.8965 55.048 85.7045 55.984 85.6565 56.992C85.6565 57.952 85.5845 58.96 85.4405 60.016C85.3445 61.024 84.9845 62.056 84.3605 63.112L83.8565 63.4C83.6645 64.504 83.4005 65.248 83.0645 65.632C82.7285 66.016 82.3685 66.664 81.9845 67.576C81.9365 67.432 81.8645 67.36 81.7685 67.36C81.6725 67.36 81.6005 67.576 81.5525 68.008C81.5525 68.392 81.3365 68.488 80.9045 68.296C80.9045 68.728 80.7125 69.232 80.3285 69.808C79.9445 70.336 79.5125 70.84 79.0325 71.32C78.6005 71.8 78.2645 72.16 78.0245 72.4C77.8325 72.592 77.8805 72.544 78.1685 72.256C78.1205 72.256 77.9765 72.328 77.7365 72.472L77.3045 73.912L74.7125 75.928L73.1285 75.784L72.8405 74.632L71.9765 74.776L71.4005 73.48L71.5445 72.616L71.1125 72.04L72.4085 70.888L72.8405 71.032L73.1285 70.312V70.168C73.3685 70.168 73.5365 70.12 73.6325 70.024C73.7285 69.928 73.9445 69.88 74.2805 69.88L75.2885 68.008C75.3365 68.008 75.3605 68.032 75.3605 68.08C75.4085 68.08 75.4325 68.08 75.4325 68.08C75.6245 68.08 75.7445 67.984 75.7925 67.792C75.8885 67.6 75.8645 67.48 75.7205 67.432L77.1605 66.28V65.704H77.3045L77.4485 65.992C77.5445 65.992 77.6405 65.944 77.7365 65.848C77.8325 65.704 77.8325 65.608 77.7365 65.56L77.3045 65.416L78.3125 64.408C78.4085 64.552 78.5045 64.624 78.6005 64.624C78.7445 64.624 78.8405 64.48 78.8885 64.192C78.9845 63.904 78.8885 63.736 78.6005 63.688C78.8405 63.208 79.1045 62.728 79.3925 62.248C79.6805 61.768 80.0165 61.336 80.4005 60.952L80.7605 60.808L81.5525 58.792L81.9845 58.576L82.0565 57.424L82.7045 57.064L82.9205 55.336L83.4245 55.12C83.4725 54.88 83.5205 54.52 83.5685 54.04C83.6165 53.56 83.6405 53.08 83.6405 52.6C83.6405 52.168 83.5925 51.76 83.4965 51.376C83.4485 50.944 83.3285 50.632 83.1365 50.44C82.5125 49.864 81.6245 49.336 80.4725 48.856C79.3685 48.376 78.4085 48.16 77.5925 48.208L76.5845 48.64L76.0085 47.992C75.9125 48.28 75.6965 48.496 75.3605 48.64C75.0245 48.736 74.6645 48.784 74.2805 48.784C73.9925 48.784 73.6565 48.736 73.2725 48.64C72.3605 49.12 71.5685 49.504 70.8965 49.792C70.2725 50.032 69.3365 50.488 68.0885 51.16L67.1525 50.8V51.592C66.3845 51.88 65.5445 52.336 64.6325 52.96C63.7205 53.536 62.8565 53.8 62.0405 53.752V54.4C61.6085 54.736 61.1765 55.048 60.7445 55.336C60.3125 55.576 59.8565 55.816 59.3765 56.056L59.3045 55.768C59.2085 56.152 58.8965 56.584 58.3685 57.064C57.8405 57.496 57.2645 57.904 56.6405 58.288C56.0645 58.624 55.5845 58.864 55.2005 59.008C55.1525 59.056 55.2005 59.128 55.3445 59.224C55.5365 59.32 55.6325 59.368 55.6325 59.368H55.4885L54.9845 60.088L54.6965 59.728C54.6005 60.208 54.3605 60.496 53.9765 60.592C53.6405 60.688 53.4245 61 53.3285 61.528L53.5445 61.816C53.4965 61.864 53.3285 61.984 53.0405 62.176C52.8005 62.368 52.8245 62.536 53.1125 62.68C52.6325 62.968 52.2245 63.472 51.8885 64.192C51.6005 64.912 51.4565 65.608 51.4565 66.28C51.4565 66.568 51.5045 66.856 51.6005 67.144L51.1685 67.72C51.5045 68.056 51.6725 68.536 51.6725 69.16C51.6725 69.304 51.6485 69.448 51.6005 69.592C51.6005 69.736 51.5765 69.88 51.5285 70.024C51.9125 70.12 52.2005 70.384 52.3925 70.816C52.5845 71.248 52.6805 71.656 52.6805 72.04C53.0645 72.568 53.4005 73.144 53.6885 73.768C54.0245 74.344 54.4565 74.872 54.9845 75.352L54.6965 76.216L55.8485 77.296C56.3765 77.344 56.6885 77.656 56.7845 78.232C56.9285 78.76 57.2405 79.144 57.7205 79.384L57.7925 79.24C57.8885 79.624 58.0565 79.96 58.2965 80.248C58.5845 80.536 58.7765 80.872 58.8725 81.256H59.3045C59.3045 81.592 59.5445 82.048 60.0245 82.624C60.5045 83.2 61.0325 83.752 61.6085 84.28C62.1845 84.808 62.5925 85.216 62.8325 85.504C62.7845 85.6 62.9525 85.864 63.3365 86.296C63.7205 86.728 64.1525 87.184 64.6325 87.664C65.1125 88.144 65.4965 88.528 65.7845 88.816V89.392L66.9365 90.112L67.0805 90.832L67.8005 91.264L67.6565 91.408L68.3045 91.84C68.3045 91.84 68.3285 91.816 68.3765 91.768C68.4245 91.672 68.4725 91.696 68.5205 91.84L68.9525 92.704L70.2485 92.992L70.3925 92.704L70.9685 92.992L72.1205 92.704C72.0725 92.704 72.0485 92.656 72.0485 92.56C72.0965 92.416 72.1685 92.368 72.2645 92.416V92.704L72.6965 92.416C73.0805 92.176 73.5605 92.008 74.1365 91.912C74.7125 91.768 75.1925 91.744 75.5765 91.84C75.9125 91.6 76.3445 91.432 76.8725 91.336C77.4005 91.24 77.8325 91.168 78.1685 91.12V91.048C78.1685 90.808 78.2885 90.64 78.5285 90.544C78.8165 90.448 79.0565 90.448 79.2485 90.544L80.6165 89.536L81.1925 89.752V89.968C81.1445 90.016 81.0005 90.04 80.7605 90.04C80.5685 90.04 80.5685 90.208 80.7605 90.544C79.9445 91.264 79.0805 91.792 78.1685 92.128C77.3045 92.416 76.3445 92.656 75.2885 92.848C74.8085 93.472 74.1125 93.832 73.2005 93.928C72.2885 94.024 71.4965 94.096 70.8245 94.144L70.9685 95.584H71.6885C72.1685 96.64 72.6245 97.648 73.0565 98.608C73.5365 99.568 73.7525 100.648 73.7045 101.848C73.6565 101.8 73.6085 101.776 73.5605 101.776C73.4165 101.776 73.2965 101.896 73.2005 102.136C73.1525 102.376 73.1765 102.544 73.2725 102.64L70.5365 105.304H70.4645C70.3205 105.304 70.1285 105.328 69.8885 105.376C69.6485 105.424 69.5765 105.328 69.6725 105.088L67.3685 105.808L66.7925 105.52C66.4565 105.712 66.1445 105.832 65.8565 105.88C65.5685 105.928 65.3045 105.952 65.0645 105.952ZM61.6805 104.152C61.7765 103.96 61.8005 103.864 61.7525 103.864C61.7525 103.912 61.8485 103.888 62.0405 103.792V103.72L61.6805 103.504C62.0645 103.504 62.4485 103.456 62.8325 103.36C63.2165 103.264 63.5765 103.168 63.9125 103.072C64.1045 103.312 64.3685 103.36 64.7045 103.216C65.0405 103.12 65.0885 103.048 64.8485 103L65.4965 103.072L65.9285 102.496H66.1445C66.2885 102.496 66.4325 102.496 66.5765 102.496C66.7685 102.448 66.8885 102.4 66.9365 102.352C67.2245 102.112 67.4405 101.776 67.5845 101.344C67.7765 100.912 68.0885 100.576 68.5205 100.336C68.4725 100.24 68.4485 100.096 68.4485 99.904C68.4485 99.616 68.5205 99.376 68.6645 99.184C68.3765 98.944 68.1605 98.56 68.0165 98.032C67.8725 97.504 67.7525 97.072 67.6565 96.736C67.8485 96.64 67.9925 96.448 68.0885 96.16C67.7525 96.016 67.4645 95.848 67.2245 95.656C66.9845 95.464 66.7925 95.2 66.6485 94.864L65.3525 95.296L64.7765 94.72V95.008H64.4165V95.44C64.0805 95.44 63.5285 95.512 62.7605 95.656C61.9925 95.752 61.3445 95.8 60.8165 95.8C60.5285 95.8 60.3365 95.776 60.2405 95.728C60.2405 95.44 60.0725 95.248 59.7365 95.152V95.872H58.9445C58.8965 95.728 58.7765 95.584 58.5845 95.44C58.4885 95.632 58.4165 95.728 58.3685 95.728C58.3205 95.68 58.1765 95.68 57.9365 95.728C57.9365 95.728 57.9125 95.68 57.8645 95.584C57.8165 95.44 57.7685 95.392 57.7205 95.44C57.6725 95.488 57.6245 95.584 57.5765 95.728C57.5765 95.824 57.5525 95.92 57.5045 96.016C56.7365 96.016 55.9445 95.992 55.1285 95.944C54.3605 95.896 53.5925 95.872 52.8245 95.872C52.4405 95.872 52.0325 95.872 51.6005 95.872C51.2165 95.872 50.8325 95.92 50.4485 96.016C50.3525 96.016 50.2565 96.04 50.1605 96.088C50.0645 96.088 49.9685 96.088 49.8725 96.088C49.3445 96.088 48.8165 96.016 48.2885 95.872C47.8085 95.68 47.2085 95.584 46.4885 95.584C46.2965 95.584 46.0805 95.608 45.8405 95.656C45.6005 95.656 45.3605 95.68 45.1205 95.728C45.1205 95.824 45.1205 95.896 45.1205 95.944C45.1685 95.992 45.1685 96.064 45.1205 96.16C45.3125 96.16 45.6005 96.352 45.9845 96.736C46.4165 97.072 46.8485 97.456 47.2805 97.888C47.7605 98.32 48.0965 98.608 48.2885 98.752C48.1445 98.8 48.0725 98.944 48.0725 99.184C48.6005 98.992 49.0325 99.04 49.3685 99.328C49.7525 99.568 50.0645 99.856 50.3045 100.192C50.5925 100.528 50.8325 100.72 51.0245 100.768L51.5285 100.696C51.4805 101.08 51.8405 101.344 52.6085 101.488C53.3765 101.584 53.9285 101.728 54.2645 101.92V102.352C54.5525 102.256 54.8405 102.208 55.1285 102.208C55.9445 102.208 56.5925 102.4 57.0725 102.784L56.7845 103H56.9285C57.2165 103 57.4565 103.048 57.6485 103.144C57.8885 103.288 58.1525 103.36 58.4405 103.36H58.5125C58.6565 103.36 58.7765 103.288 58.8725 103.144C59.0165 103.048 59.1845 103.024 59.3765 103.072L59.8085 103.504C60.1445 103.312 60.4565 103.264 60.7445 103.36V103.72C60.8885 103.768 61.0325 103.816 61.1765 103.864C61.3685 103.912 61.5365 104.008 61.6805 104.152ZM76.0968 108.76C76.0968 108.904 75.9528 109.048 75.6648 109.192C75.3288 109.336 75.2328 109.288 75.3768 109.048L74.1528 108.832C74.2008 108.784 74.4408 108.544 74.8728 108.112C75.3048 107.68 75.5928 107.368 75.7368 107.176V107.032H76.3128L76.6728 106.672L76.8888 105.736C76.9848 105.832 77.0568 105.784 77.1048 105.592C77.1528 105.4 77.1768 105.304 77.1768 105.304C77.2728 105.208 77.4168 105.136 77.6088 105.088C77.7528 105.088 77.8488 105.064 77.8968 105.016L77.7528 104.8L78.1848 104.296V104.08C78.2808 104.176 78.3528 104.224 78.4008 104.224C78.6408 104.224 78.9288 103.984 79.2648 103.504C79.6008 103.072 79.7208 102.712 79.6248 102.424L80.4888 101.848L80.7768 100.984C81.0168 100.888 81.2328 100.696 81.4248 100.408C81.6648 100.072 81.8088 99.784 81.8568 99.544H82.0728L82.5048 98.896H82.9368L83.3688 97.816L83.8008 97.96L83.5128 97.672H83.8728V97.24L84.5928 96.376H84.9528L84.8088 96.304L84.9528 95.8L85.8888 94.648C85.9368 94.696 86.0088 94.72 86.1048 94.72C86.3448 94.72 86.5608 94.528 86.7528 94.144C86.9448 93.712 87.0408 93.4 87.0408 93.208H86.8248C86.3448 93.016 86.2008 92.896 86.3928 92.848L85.5288 92.488C85.4328 92.584 85.3368 92.632 85.2408 92.632C85.0488 92.632 84.8328 92.536 84.5928 92.344C84.3528 92.152 84.2808 91.936 84.3768 91.696L83.5128 91.912L82.5048 91.408V91.192L81.7848 90.832V90.472H82.2168L82.3608 90.256C82.2168 90.112 82.0968 90.04 82.0008 90.04C81.8568 90.04 81.7608 90.136 81.7128 90.328C81.7128 90.472 81.6888 90.568 81.6408 90.616H81.4968C81.3528 90.52 81.1608 90.28 80.9208 89.896C80.7288 89.512 80.5848 89.152 80.4888 88.816C80.5368 88.768 80.6808 88.816 80.9208 88.96L80.4888 87.808H80.6328C80.8728 87.808 81.0648 87.712 81.2088 87.52C81.4008 87.328 81.4488 87.136 81.3528 86.944H82.5048C82.3128 87.088 82.3128 87.208 82.5048 87.304C82.7448 87.4 82.8888 87.28 82.9368 86.944L84.8088 87.232H85.0968V87.52L86.1048 87.376V87.52H86.4648V87.664L87.5448 87.808C87.4968 88 87.7128 88.12 88.1928 88.168C88.6728 88.216 88.8888 88.432 88.8408 88.816L89.6328 88.528V88.816L90.9288 88.96C90.9768 88.816 91.0008 88.576 91.0008 88.24C91.0008 87.904 91.0008 87.664 91.0008 87.52C91.0488 87.328 91.1208 87.448 91.2168 87.88H91.3608V87.376L91.5768 87.232L91.9368 86.368C92.0328 86.464 92.1048 86.512 92.1528 86.512C92.4408 86.512 92.7288 86.272 93.0168 85.792C93.3528 85.264 93.4248 84.88 93.2328 84.64L94.3848 83.056H94.8168C94.9128 82.864 94.9608 82.72 94.9608 82.624V82.48C94.9608 82.24 95.0088 82.048 95.1048 81.904C95.2008 81.712 95.4408 81.568 95.8248 81.472L96.1128 80.752C96.1608 80.704 96.2088 80.752 96.2568 80.896C96.3048 80.992 96.4008 80.944 96.5448 80.752L96.6888 79.744C96.7848 79.888 96.9048 79.96 97.0488 79.96C97.2888 79.96 97.5528 79.816 97.8408 79.528C98.1288 79.24 98.3688 79 98.5608 78.808L98.2728 77.512L99.7128 75.496L100.289 75.568V74.92L100.073 74.776L101.009 73.48H101.297L101.369 71.896H101.729C101.729 71.848 101.657 71.728 101.513 71.536C101.417 71.296 101.345 71.224 101.297 71.32L101.153 70.312C101.249 70.408 101.297 70.36 101.297 70.168C101.153 70.024 101.105 69.928 101.153 69.88C101.201 69.784 101.201 69.64 101.153 69.448H101.009L101.297 68.584V68.296H101.153C101.105 68.296 101.009 68.272 100.865 68.224C100.769 68.128 100.745 68.056 100.793 68.008C101.081 67.912 101.153 67.768 101.009 67.576C100.913 67.384 100.841 67.288 100.793 67.288V66.28H101.009L101.153 65.2H100.577V63.256C100.625 63.304 100.649 63.328 100.649 63.328C100.697 63.28 100.697 63.232 100.649 63.184H100.577C100.529 63.04 100.505 62.872 100.505 62.68C100.505 62.488 100.481 62.464 100.433 62.608L100.289 59.728L100.433 59.872L100.649 59.512L100.073 57.712H100.649V57.496H100.289C100.193 57.496 100.217 57.448 100.361 57.352C100.553 57.208 100.649 57.136 100.649 57.136L100.577 56.992L100.289 57.136C100.241 57.136 100.169 57.088 100.073 56.992C100.025 56.896 100.025 56.824 100.073 56.776L100.433 56.704H100.073L100.001 55.12C100.001 55.024 100.073 55.072 100.217 55.264C100.361 55.408 100.433 55.456 100.433 55.408L100.289 54.688H100.001L100.289 53.248L100.001 53.104L100.073 51.664C100.025 51.76 99.9768 51.712 99.9288 51.52C99.9288 51.328 99.9048 51.28 99.8568 51.376V49.936C100.193 49.984 100.313 49.888 100.217 49.648C100.169 49.408 100.097 49.36 100.001 49.504L100.073 48.064H100.289L100.073 46.48C100.169 46.432 100.241 46.48 100.289 46.624C100.385 46.768 100.433 46.816 100.433 46.768L100.577 45.112C100.721 45.064 100.841 44.968 100.937 44.824C101.033 44.632 101.153 44.512 101.297 44.464C101.345 44.416 101.441 44.392 101.585 44.392C101.777 44.392 101.873 44.488 101.873 44.68C101.873 44.824 101.897 44.92 101.945 44.968H102.089C102.281 44.968 102.473 44.944 102.665 44.896C102.857 44.8 102.905 44.704 102.809 44.608H103.745L103.529 44.752C103.625 44.848 103.745 44.896 103.889 44.896C103.985 44.896 104.057 44.896 104.105 44.896C104.201 44.848 104.321 44.872 104.465 44.968V45.112H103.961V45.184L105.185 45.112L105.041 45.256C105.041 45.352 105.161 45.4 105.401 45.4C105.689 45.4 105.881 45.376 105.977 45.328V45.544L106.553 45.904C106.649 45.952 106.793 46 106.985 46.048C107.225 46.048 107.369 46.12 107.417 46.264L107.273 46.48L107.561 46.408L107.777 46.624H107.993V46.768L108.857 47.92C108.809 47.824 108.689 47.848 108.497 47.992C108.305 48.088 108.281 48.184 108.425 48.28C108.713 48.376 108.881 48.424 108.929 48.424C109.025 48.424 109.073 48.4 109.073 48.352C109.121 48.304 109.169 48.28 109.217 48.28C109.265 48.28 109.313 48.352 109.361 48.496C109.457 48.64 109.625 48.976 109.865 49.504H110.009C110.057 49.552 110.081 49.744 110.081 50.08C110.129 50.416 110.249 50.56 110.441 50.512L110.153 51.664C110.249 51.616 110.297 51.64 110.297 51.736C110.297 51.784 110.297 51.808 110.297 51.808H110.729L110.873 53.176C110.825 53.08 110.777 53.128 110.729 53.32C110.681 53.464 110.729 53.44 110.873 53.248V53.176C110.825 53.08 110.777 53.128 110.729 53.32C110.681 53.464 110.729 53.488 110.873 53.392V54.832H110.585C110.729 55.12 110.801 55.456 110.801 55.84C110.801 56.464 110.681 57.112 110.441 57.784C110.249 58.408 110.105 58.984 110.009 59.512H109.937C109.697 59.512 109.577 59.68 109.577 60.016C109.577 60.352 109.481 60.376 109.289 60.088L109.577 60.952H109.289C109.241 61.144 109.169 61.336 109.073 61.528C109.025 61.72 109.049 61.864 109.145 61.96L108.569 63.76C108.521 63.616 108.473 63.64 108.425 63.832C108.425 64.024 108.377 64.072 108.281 63.976L107.849 65.272L107.273 65.56C107.273 65.896 107.201 66.232 107.057 66.568C106.961 66.856 106.793 67.336 106.553 68.008L106.121 68.152L105.977 69.16H105.833V68.872H105.545C105.545 68.968 105.593 69.088 105.689 69.232C105.833 69.376 105.929 69.4 105.977 69.304L105.833 70.6H105.545C105.545 70.648 105.593 70.792 105.689 71.032C105.833 71.272 105.929 71.32 105.977 71.176V72.616H105.761L105.977 73.624H105.761C105.761 73.72 105.809 73.84 105.905 73.984C106.001 74.08 106.073 74.176 106.121 74.272V74.92H105.833L105.977 75.928H105.761C105.713 75.976 105.737 76.12 105.833 76.36C105.929 76.6 106.025 76.624 106.121 76.432L105.977 78.304H106.337L106.481 80.104C106.289 80.008 106.193 79.96 106.193 79.96C106.001 79.96 105.905 80.128 105.905 80.464C105.953 80.8 105.977 80.992 105.977 81.04H106.121C106.313 80.896 106.409 80.776 106.409 80.68C106.409 80.584 106.433 80.584 106.481 80.68V81.04C106.481 81.28 106.505 81.472 106.553 81.616C106.601 81.712 106.625 81.808 106.625 81.904C106.625 82.048 106.577 82.168 106.481 82.264C106.385 82.36 106.337 82.504 106.337 82.696H106.481L106.553 82.912V83.2H106.697C106.697 83.68 106.721 84.136 106.769 84.568C106.817 85 106.841 85.432 106.841 85.864C106.841 86.056 106.817 86.272 106.769 86.512C106.769 86.752 106.745 86.992 106.697 87.232H107.129L107.057 88.6C107.057 88.648 107.105 88.864 107.201 89.248C107.345 89.584 107.465 89.728 107.561 89.68V90.616C107.609 90.616 107.633 90.64 107.633 90.688C107.633 90.736 107.609 90.784 107.561 90.832C107.513 90.88 107.489 90.952 107.489 91.048C107.489 91.192 107.609 91.36 107.849 91.552C107.945 91.792 108.065 92.296 108.209 93.064C108.401 93.784 108.473 94.264 108.425 94.504C108.569 94.552 108.833 94.576 109.217 94.576C110.225 94.576 111.377 94.432 112.673 94.144C113.969 93.856 114.905 93.592 115.481 93.352C115.577 93.304 115.697 93.232 115.841 93.136C115.985 93.04 116.009 92.944 115.913 92.848C116.297 92.608 116.801 92.416 117.425 92.272C118.049 92.128 118.457 92.008 118.649 91.912C118.745 91.864 118.793 91.744 118.793 91.552C118.793 91.36 118.817 91.24 118.865 91.192H119.009L119.585 90.4H120.089L120.161 88.816C120.257 88.72 120.377 88.72 120.521 88.816C120.713 88.864 120.833 88.912 120.881 88.96C120.929 88.96 120.953 89.008 120.953 89.104C120.953 89.152 120.977 89.152 121.025 89.104L121.385 90.832H121.241V91.12L121.025 91.552H120.737L121.025 91.912H120.881C120.737 92.248 120.641 92.368 120.593 92.272C120.545 92.128 120.449 92.128 120.305 92.272C120.161 92.416 120.089 92.536 120.089 92.632C120.089 92.728 119.729 92.92 119.009 93.208C119.057 93.256 119.081 93.304 119.081 93.352C119.081 93.448 118.937 93.496 118.649 93.496C118.361 93.448 118.241 93.592 118.289 93.928C117.761 94.408 117.089 94.552 116.273 94.36H115.913V94.288L115.553 94.144L115.193 93.928L115.049 94.072C115.049 94.168 115.121 94.24 115.265 94.288C115.457 94.336 115.625 94.36 115.769 94.36H115.841C115.841 94.408 115.745 94.432 115.553 94.432C115.409 94.432 115.289 94.456 115.193 94.504C115.145 94.552 115.169 94.576 115.265 94.576C115.409 94.576 115.481 94.6 115.481 94.648C115.481 94.696 115.385 94.768 115.193 94.864C115.001 94.96 114.857 95.008 114.761 95.008V94.648H114.257V95.08L112.601 95.224V95.368H112.025V95.224L110.585 95.368C110.585 95.416 110.585 95.464 110.585 95.512C110.633 95.512 110.657 95.536 110.657 95.584C110.657 95.776 110.537 95.872 110.297 95.872C110.057 95.824 109.865 95.848 109.721 95.944L109.865 96.304C109.769 96.256 109.673 96.232 109.577 96.232C109.385 96.232 109.241 96.352 109.145 96.592C109.097 96.832 109.073 97.072 109.073 97.312C109.073 97.504 109.073 97.696 109.073 97.888C109.121 98.032 109.145 98.152 109.145 98.248H109.433C109.673 99.064 109.817 99.688 109.865 100.12C109.961 100.504 110.057 100.984 110.153 101.56C110.201 101.752 110.321 101.968 110.513 102.208C110.705 102.4 110.825 102.424 110.873 102.28L111.161 103.144V103.72H111.305L111.449 104.44L112.025 105.016C111.977 104.92 112.025 104.992 112.169 105.232C112.361 105.472 112.529 105.736 112.673 106.024C112.817 106.312 112.745 106.528 112.457 106.672L111.161 106.456L109.865 105.304V105.16H110.297V105.016L109.721 105.16V105.016L109.577 104.8C109.673 104.8 109.817 104.776 110.009 104.728C110.249 104.68 110.249 104.536 110.009 104.296L108.857 102.784C108.857 103.024 108.809 103.144 108.713 103.144C108.665 103.144 108.593 103 108.497 102.712C108.401 102.376 108.329 102.184 108.281 102.136H108.425C108.521 102.04 108.521 101.896 108.425 101.704L106.697 98.968C106.649 98.92 106.409 98.728 105.977 98.392C105.593 98.008 105.185 97.576 104.753 97.096C104.369 96.616 104.105 96.232 103.961 95.944H103.025L103.169 95.656C102.929 95.56 102.713 95.536 102.521 95.584C102.377 95.584 102.185 95.512 101.945 95.368C101.897 95.32 101.777 95.32 101.585 95.368C101.441 95.416 101.369 95.488 101.369 95.584L99.8568 95.368V95.224L99.3528 95.368V95.224H98.9928V95.08L97.9848 95.368C98.0808 95.416 98.1288 95.44 98.1288 95.44C98.1768 95.44 98.2008 95.44 98.2008 95.44C98.2008 95.488 98.0568 95.44 97.7688 95.296C97.5288 95.152 97.3608 95.056 97.2648 95.008C97.2648 94.96 97.2168 94.96 97.1208 95.008C97.0728 95.008 97.0728 95.032 97.1208 95.08H96.1128V95.008L95.5368 94.864C95.4408 94.864 95.2968 94.864 95.1048 94.864C94.9128 94.864 94.7688 94.912 94.6728 95.008L93.6648 94.648V94.36L92.0808 94.504V94.36H91.6488C91.4568 94.264 91.2648 94.144 91.0728 94C90.9288 93.808 90.7848 93.712 90.6408 93.712C90.5928 93.664 90.4968 93.688 90.3528 93.784C90.2088 93.88 90.1848 94 90.2808 94.144L89.2008 93.784V94.288L88.2648 95.584L87.7608 95.368V96.16H86.9688C86.9208 96.208 86.8248 96.304 86.6808 96.448C86.5848 96.592 86.4888 96.616 86.3928 96.52C86.4888 96.664 86.5368 96.808 86.5368 96.952C86.5368 97.048 86.5368 97.144 86.5368 97.24C86.5368 97.576 86.4408 97.84 86.2488 98.032C86.0568 98.176 85.8888 98.464 85.7448 98.896C85.5528 98.896 85.2888 99.064 84.9528 99.4C84.6648 99.688 84.4248 100 84.2328 100.336C84.0408 100.624 83.9928 100.792 84.0888 100.84V100.984H83.6568C83.6088 101.032 83.6088 101.128 83.6568 101.272C83.7048 101.368 83.7048 101.464 83.6568 101.56C83.6088 101.608 83.4648 101.704 83.2248 101.848C82.9848 101.992 82.9368 102.136 83.0808 102.28C82.8888 102.52 82.6488 102.76 82.3608 103C82.0728 103.288 81.7848 103.48 81.4968 103.576C81.5448 103.624 81.4968 103.648 81.3528 103.648C81.2568 103.696 81.2088 103.768 81.2088 103.864C81.1128 104.152 80.8968 104.44 80.5608 104.728C80.2248 105.016 80.1048 105.304 80.2008 105.592C79.9608 105.784 79.5528 106.12 78.9768 106.6C78.4008 107.128 77.8488 107.608 77.3208 108.04C76.7448 108.472 76.3128 108.688 76.0248 108.688L76.0968 108.76ZM105.761 64.84V65.2H105.977C106.073 65.008 106.169 64.888 106.265 64.84C106.409 64.792 106.433 64.672 106.337 64.48H106.553L106.481 64.12L106.697 63.904V63.544H106.841V63.256H107.057V62.968H107.129V62.68H107.273L107.417 62.104L107.777 61.96V61.744C107.777 61.024 108.137 60.592 108.857 60.448C108.665 60.16 108.545 60.04 108.497 60.088C108.449 60.088 108.425 59.848 108.425 59.368H108.569L108.857 58.072L109.289 58C109.241 57.904 109.193 57.88 109.145 57.928C109.145 57.928 109.121 57.904 109.073 57.856C109.169 57.184 109.241 56.584 109.289 56.056C109.385 55.48 109.433 54.832 109.433 54.112H109.577L109.289 52.816H109.577C109.673 52.72 109.721 52.528 109.721 52.24H109.577V52.528H109.289C109.241 52.288 109.097 51.904 108.857 51.376C108.665 50.848 108.617 50.512 108.713 50.368H108.425V50.08H108.137L107.993 49.648L107.417 49.216V49L107.057 48.784L107.129 48.496C107.129 48.448 107.105 48.448 107.057 48.496C107.009 48.544 107.009 48.592 107.057 48.64C106.769 48.544 106.577 48.496 106.481 48.496V48.64C106.625 48.736 106.697 48.928 106.697 49.216C106.697 49.408 106.673 49.6 106.625 49.792C106.577 49.984 106.553 50.176 106.553 50.368H106.481L106.553 50.656L106.481 50.8H106.553V51.952H106.481V52.96H106.337V53.68H106.121V53.968H105.977C106.121 54.4 106.241 54.832 106.337 55.264C106.241 55.312 106.145 55.264 106.049 55.12C106.001 54.928 105.977 55.024 105.977 55.408C106.217 55.648 106.337 55.912 106.337 56.2C106.337 56.632 106.217 57.112 105.977 57.64C105.785 58.12 105.641 58.504 105.545 58.792H105.833V59.296H106.121L105.977 60.952C105.833 60.952 105.761 60.952 105.761 60.952C105.809 60.904 105.737 60.904 105.545 60.952C105.641 61.048 105.737 61.12 105.833 61.168C105.881 61.312 105.929 61.648 105.977 62.176C106.025 62.656 106.049 63.136 106.049 63.616C106.049 64.384 105.953 64.792 105.761 64.84ZM104.105 94.504C104.201 94.456 104.273 94.456 104.321 94.504C104.369 94.552 104.369 94.6 104.321 94.648H104.681V94.288C104.921 94.336 105.089 94.408 105.185 94.504L105.833 94.288C105.833 94.192 105.809 94.12 105.761 94.072C105.761 93.976 105.761 93.88 105.761 93.784H105.257C105.209 93.544 105.161 93.328 105.113 93.136C105.113 92.944 105.113 92.752 105.113 92.56C105.113 92.272 105.137 92.056 105.185 91.912H105.041V91.552H104.681L104.105 88.528H104.321L104.465 87.88H103.889V87.808H104.465V87.376H104.321V87.664C104.273 87.76 104.225 87.736 104.177 87.592C104.129 87.448 104.105 87.376 104.105 87.376L103.745 87.232C103.745 86.848 103.697 86.464 103.601 86.08C103.505 85.696 103.433 85.312 103.385 84.928H103.745V84.64H103.385V84.064H103.241C103.241 84.064 103.241 84.112 103.241 84.208C103.241 84.304 103.217 84.352 103.169 84.352L103.241 83.056H103.169C103.073 82.864 103.001 82.72 102.953 82.624C102.905 82.528 102.857 82.384 102.809 82.192H103.241L103.169 81.472H102.665C102.665 81.088 102.617 80.704 102.521 80.32C102.473 79.936 102.449 79.552 102.449 79.168L102.665 79.384V78.808H102.593V78.304L102.089 78.16C102.089 77.776 102.065 77.392 102.017 77.008C101.969 76.624 101.921 76.264 101.873 75.928L101.729 76.072L101.153 75.928C101.105 76.072 101.057 76.192 101.009 76.288C100.961 76.384 100.889 76.504 100.793 76.648C100.889 76.648 100.961 76.624 101.009 76.576C101.105 76.528 101.201 76.48 101.297 76.432V76.792H101.009C100.913 76.984 100.769 77.104 100.577 77.152V77.512C100.433 77.512 100.289 77.536 100.145 77.584C100.049 77.632 99.9528 77.68 99.8568 77.728V78.088H100.073V78.448H99.7128C99.7128 78.544 99.7608 78.688 99.8568 78.88H99.5688C99.4728 79.12 99.3768 79.336 99.2808 79.528C99.2328 79.72 99.0648 79.864 98.7768 79.96C98.7768 80.392 98.6088 80.752 98.2728 81.04V80.896L97.8408 80.464C97.8408 80.512 97.7928 80.56 97.6968 80.608C97.6008 80.608 97.5528 80.632 97.5528 80.68C97.5528 80.68 97.6008 80.8 97.6968 81.04H97.8408C97.8408 80.8 97.8888 80.704 97.9848 80.752C97.9368 80.8 97.9368 80.848 97.9848 80.896C98.0328 80.944 98.0568 80.944 98.0568 80.896L98.2728 81.184H97.9848V81.616L97.5528 81.76L97.6968 82.048L97.4088 82.192C97.3128 82.384 97.2408 82.552 97.1928 82.696C97.1448 82.84 96.9768 82.96 96.6888 83.056V83.488H96.4008L96.2568 84.208H95.9688C95.9208 84.496 95.7768 84.736 95.5368 84.928V85.072C95.3928 85.216 95.2008 85.168 94.9608 84.928C94.9128 85.072 94.8888 85.216 94.8888 85.36C94.8888 85.504 94.9128 85.648 94.9608 85.792H94.6728L94.5288 86.08H94.2408C94.1448 86.128 94.1688 86.176 94.3128 86.224C94.4568 86.224 94.5288 86.224 94.5288 86.224V86.512L94.2408 86.368V86.8H93.8088L93.5208 87.52H93.8088L93.3768 87.808C93.3288 87.856 93.3528 87.856 93.4488 87.808C93.5448 87.76 93.5688 87.784 93.5208 87.88L93.2328 88.384H92.9448C92.8488 88.48 92.8968 88.528 93.0888 88.528L92.9448 88.96L92.5128 88.816V88.96H92.8728C92.9688 89.008 92.9448 89.056 92.8008 89.104C92.6568 89.104 92.5608 89.104 92.5128 89.104C92.5128 89.152 92.4648 89.176 92.3688 89.176C92.2728 89.176 92.2248 89.176 92.2248 89.176V89.536C92.0328 89.584 91.8888 89.68 91.7928 89.824C92.3208 89.632 92.9208 89.752 93.5928 90.184C94.3128 90.568 94.9128 90.832 95.3928 90.976V91.552H95.6808V91.192C95.7768 91.24 95.8728 91.288 95.9688 91.336C96.1128 91.336 96.2568 91.36 96.4008 91.408V91.768H96.5448V91.552L98.4168 92.272V92.488L99.5688 92.632V93.064C99.7128 93.064 99.8568 93.064 100.001 93.064C100.145 93.064 100.289 93.04 100.433 92.992C100.433 93.04 100.481 93.16 100.577 93.352C101.201 93.4 101.801 93.52 102.377 93.712C102.953 93.904 103.529 94.048 104.105 94.144V94.504Z" fill="white"/>
<rect id="Rectangle 115" width="152" height="152" rx="76" fill="url(#paint0_linear_134_1123)"/>
</g>
</g>
<defs>
<filter id="filter0_d_134_1123" x="-4" y="0" width="160" height="160" filterUnits="userSpaceOnUse" color-interpolation-filters="sRGB">
<feFlood flood-opacity="0" result="BackgroundImageFix"/>
<feColorMatrix in="SourceAlpha" type="matrix" values="0 0 0 0 0 0 0 0 0 0 0 0 0 0 0 0 0 0 127 0" result="hardAlpha"/>
<feOffset dy="4"/>
<feGaussianBlur stdDeviation="2"/>
<feComposite in2="hardAlpha" operator="out"/>
<feColorMatrix type="matrix" values="0 0 0 0 0 0 0 0 0 0 0 0 0 0 0 0 0 0 0.2 0"/>
<feBlend mode="normal" in2="BackgroundImageFix" result="effect1_dropShadow_134_1123"/>
<feBlend mode="normal" in="SourceGraphic" in2="effect1_dropShadow_134_1123" result="shape"/>
</filter>
<linearGradient id="paint0_linear_134_1123" x1="76" y1="-15" x2="76" y2="158.5" gradientUnits="userSpaceOnUse">
<stop stop-color="white" stop-opacity="0.1"/>
<stop offset="1" stop-color="white" stop-opacity="0"/>
</linearGradient>
<clipPath id="clip0_134_1123">
<rect width="152" height="152" rx="76" fill="white"/>
</clipPath>
</defs>
</svg>
