<svg width="24" height="18" viewBox="0 0 24 18" fill="none" xmlns="http://www.w3.org/2000/svg">
<g id="Projects-normal">
<path id="Vector" d="M6.3816 6.97113L20.1253 6.94445L20.1215 4.86112C20.1195 3.71051 19.2173 2.77954 18.1065 2.7817L11.4022 2.79471L8.71552 0.0221434L2.01127 0.0351581C0.900465 0.0373145 0.00168757 0.971782 0.00376938 2.12239L0.025604 14.1903L1.46817 11.6177L2.18945 10.3314L2.91074 9.04506C3.6265 7.76858 4.95649 6.9739 6.3816 6.97113Z" fill="#AAAEB9"/>
<path id="Vector_2" d="M23.8492 10.3769L20.8243 15.7715C20.5889 16.1913 20.2514 16.5399 19.8454 16.7825C19.4394 17.0251 18.9791 17.1532 18.5104 17.1541C18.5104 17.1541 2.52747 17.1851 1.75133 17.1866C0.97519 17.1882 0.490026 16.317 0.879837 15.6218L1.63607 14.2732L2.3923 12.9245L3.14853 11.5759L3.90476 10.2272C4.14017 9.80743 4.47769 9.45886 4.88369 9.21626C5.28968 8.97367 5.74997 8.84554 6.21867 8.84463L22.9778 8.8121C23.7539 8.81059 24.2391 9.68174 23.8492 10.3769Z" fill="#AAAEB9"/>
</g>
</svg>
