<svg width="24" height="18" viewBox="0 0 24 18" fill="none" xmlns="http://www.w3.org/2000/svg">
<g id="Projects-normal">
<path id="Vector" d="M6.3816 6.97113L20.1253 6.94445L20.1215 4.86112C20.1195 3.71051 19.2173 2.77954 18.1065 2.7817L11.4022 2.79471L8.71552 0.0221434L2.01127 0.0351581C0.900465 0.0373145 0.00168757 0.971782 0.00376938 2.12239L0.025604 14.1903L1.46817 11.6177L2.18945 10.3314L2.91074 9.04506C3.6265 7.76858 4.95649 6.9739 6.3816 6.97113Z" fill="#656A7B"/>
<path id="Vector_2" d="M23.8493 10.377L20.8243 15.7716C20.5889 16.1914 20.2514 16.54 19.8454 16.7825C19.4395 17.0251 18.9792 17.1533 18.5105 17.1542C18.5105 17.1542 2.52751 17.1852 1.75136 17.1867C0.97522 17.1882 0.490057 16.3171 0.879867 15.6219L1.6361 14.2732L2.39233 12.9246L3.14856 11.5759L3.9048 10.2273C4.1402 9.80749 4.47773 9.45892 4.88372 9.21632C5.28971 8.97373 5.75 8.8456 6.2187 8.84469L22.9778 8.81216C23.754 8.81065 24.2391 9.6818 23.8493 10.377Z" fill="#3F424D"/>
</g>
</svg>
