<svg width="43" height="17" viewBox="0 0 43 17" fill="none" xmlns="http://www.w3.org/2000/svg">
<path id="signature-original-removebg 1 (Traced)" fill-rule="evenodd" clip-rule="evenodd" d="M14.6812 0.384136C14.4977 0.66655 14.4792 0.989273 14.5012 3.52416C14.5249 6.25667 14.5186 6.34749 14.3049 6.29142C14.1835 6.25957 14.0661 6.28726 14.0442 6.35317C14.0058 6.46901 13.3122 6.59678 11.9966 6.73045C11.6477 6.7659 10.5316 6.89691 9.51654 7.02167C8.50143 7.14631 6.37322 7.30015 4.78711 7.36339C0.802008 7.52244 0 7.59217 0 7.77949C0 8.02078 0.217316 8.09757 0.882327 8.09086C1.22193 8.0875 1.53037 8.1343 1.56763 8.19499C1.61043 8.2645 1.68483 8.26461 1.76938 8.19523C1.84309 8.13476 3.01621 8.02495 4.37646 7.95116C5.73659 7.87748 6.89378 7.78956 6.94788 7.75597C7.05504 7.68959 11.0681 7.67037 11.1334 7.73605C11.1555 7.75817 10.9061 7.95927 10.5792 8.18295C9.38537 9.00019 8.95258 9.97126 9.39738 10.835C9.86098 11.7354 12.3303 13.376 13.4962 13.5582C14.3588 13.6931 14.419 13.7274 14.419 14.0844C14.419 14.2663 14.5242 14.8753 14.6527 15.4378C14.7812 16.0003 14.912 16.5777 14.9433 16.7212C14.9961 16.9634 15.4429 17.1115 15.4667 16.8949C15.472 16.8472 15.4943 16.6777 15.5161 16.5184C15.5711 16.1175 15.5996 14.0626 15.553 13.8628C15.5114 13.6846 15.7834 13.5938 16.9044 13.4113C18.1494 13.2087 19.1172 12.6348 19.3787 11.944C19.9191 10.5166 18.5492 8.98026 15.9625 8.11263C15.148 7.83937 15.1425 7.79617 15.8494 7.2179C16.8835 6.37193 17.5623 6.33602 17.6027 7.12523C17.6573 8.19106 18.1717 8.35984 18.8746 7.5426C19.4365 6.88915 19.6217 6.88834 19.9545 7.53819C20.5647 8.72971 21.0858 8.63958 21.2784 7.3093C21.3931 6.51812 21.426 6.47607 21.9936 6.39788C23.0927 6.2466 23.0704 6.23304 23.0704 7.05445C23.0704 8.21677 23.6726 8.49259 24.133 7.54097C24.4006 6.98796 24.5043 6.91267 24.6117 7.19346C24.7971 7.67859 25.4461 7.30015 25.7671 6.51939C26.0495 5.83305 26.4779 5.94044 26.7554 6.76717C27.0807 7.73593 27.4641 7.88826 27.6294 7.11446C27.7478 6.56086 27.7471 6.5611 28.2988 6.84154C28.6761 7.03337 29.1864 7.13276 30.3374 7.23829C31.1818 7.31578 31.9296 7.38946 31.9991 7.40208C32.0686 7.41482 32.1255 7.34741 32.1255 7.2523C32.1255 7.0599 31.196 6.85046 29.8304 6.73509C29.0156 6.66628 28.0305 6.31842 28.0305 6.09948C28.0305 5.96094 28.2475 5.94217 30.1069 5.92039C31.4311 5.90487 34.1737 5.791 35.7014 5.68814C36.1455 5.65825 37.3394 5.60589 38.3545 5.57184C42.023 5.44893 43.0969 5.31896 42.9933 5.01048C42.9358 4.83951 42.0783 4.84333 39.2773 5.02728C38.0719 5.1064 36.6704 5.19223 36.1628 5.21795C35.6553 5.24378 34.695 5.29939 34.0288 5.34155C33.3627 5.38383 31.4739 5.45287 29.8316 5.49504L26.8455 5.57172L26.7274 5.31108C26.571 4.966 26.3861 4.98245 25.9294 5.38198C25.3643 5.87638 24.5538 5.97275 24.2952 5.57635C24.0592 5.21459 23.9812 5.2117 23.5695 5.54994C23.3028 5.76911 23.0912 5.8217 22.4071 5.83873C21.4811 5.86178 21.4987 5.87406 21.7511 5.38395C22.0788 4.74742 21.4578 4.42689 21.0084 5.00064C20.8222 5.23822 20.798 5.35835 20.8878 5.59582C21.0311 5.97426 21.157 5.93406 19.5389 6.02581L18.1415 6.10516L18.071 5.7515C17.9783 5.28583 17.8032 5.30286 16.9428 5.86132C16.3889 6.22076 16.1165 6.32467 15.7277 6.32467C15.452 6.32467 15.1876 6.33776 15.14 6.35363C14.9771 6.40819 14.9984 4.4138 15.1822 2.41258C15.3944 0.101373 15.2486 -0.489054 14.6812 0.384136ZM27.3017 6.32849C27.2324 6.51268 27.1678 6.65226 27.158 6.63882C26.997 6.41711 27.0319 6.02349 27.2138 6.00971C27.4027 5.99546 27.4129 6.03264 27.3017 6.32849ZM25.0796 6.16331C25.3069 6.25088 25.3167 6.59816 25.0971 6.78131C24.903 6.94302 24.622 6.54164 24.7305 6.25772C24.8016 6.07168 24.8251 6.06531 25.0796 6.16331ZM23.8589 6.97267C23.6127 7.51757 23.6002 7.5273 23.5579 7.2084C23.4943 6.72895 23.6164 6.34795 23.8491 6.3C24.1433 6.23941 24.1448 6.34019 23.8589 6.97267ZM20.9941 6.48962C20.9941 7.46857 20.5541 8.09433 20.2996 7.47738C20.2195 7.28312 20.0047 6.98344 19.8223 6.81131L19.4907 6.49843L20.0406 6.42974C20.9521 6.31587 20.9941 6.31853 20.9941 6.48962ZM19.1437 6.537C19.1324 6.72165 18.2233 7.61117 18.1149 7.54387C17.9889 7.46568 17.9463 6.64381 18.0622 6.52739C18.1558 6.43333 19.1495 6.44225 19.1437 6.537ZM15.4063 6.96549C15.1209 7.18222 14.9958 7.18106 14.9958 6.96178C14.9958 6.84861 15.1063 6.7893 15.313 6.79173C15.6168 6.79521 15.6207 6.80262 15.4063 6.96549ZM14.0758 7.20099C14.2264 7.59855 14.2261 7.59912 13.9288 7.59716C13.451 7.5938 13.3015 7.41564 13.5475 7.14261C13.8298 6.82926 13.9397 6.84143 14.0758 7.20099ZM12.2108 7.26412C12.0018 7.3971 11.5653 7.39398 11.4821 7.25891C11.4455 7.19925 11.5851 7.13288 11.7925 7.11133C12.2473 7.06395 12.4239 7.12847 12.2108 7.26412ZM12.1692 8.40941C12.3737 8.57981 12.7592 8.38659 12.8617 8.06236C12.9499 7.78354 13.3808 7.74774 13.3808 8.01927C13.3808 8.12294 13.5838 8.5066 13.8321 8.87172L14.2832 9.53559L14.3216 11.3962C14.3652 13.5075 14.3725 13.4872 13.6367 13.294C11.5257 12.7398 9.25653 10.8245 9.57225 9.86376C9.72048 9.4128 10.8845 8.17994 11.1677 8.17403C11.2746 8.17171 11.4919 8.09723 11.6505 8.00838C11.9111 7.86242 11.9424 7.86752 11.9747 8.0619C11.9944 8.18028 12.0819 8.33666 12.1692 8.40941ZM14.3541 8.05031C14.435 8.18202 14.3017 8.87311 14.1952 8.87311C14.1239 8.87311 13.7269 8.13337 13.7269 8.00039C13.7269 7.90054 14.2893 7.94525 14.3541 8.05031ZM15.1226 8.90207C15.129 9.30032 15.1486 9.93882 15.1663 10.3211C15.3001 13.2165 15.2222 13.8884 14.8019 13.4663C14.7018 13.366 14.7126 9.56733 14.8148 8.84415C14.9394 7.96332 15.1082 7.99517 15.1226 8.90207ZM16.9363 8.84728C19.9971 10.3365 19.6032 12.8849 16.2578 13.236C15.4132 13.3247 15.4786 13.5292 15.4267 10.6351L15.3846 8.285L15.738 8.36064C15.9325 8.40235 16.4717 8.62128 16.9363 8.84728ZM15.2265 14.5492C15.2265 15.6018 15.0747 15.756 14.89 14.891C14.6825 13.9193 14.7309 13.6748 15.14 13.6316C15.1876 13.6267 15.2265 14.0395 15.2265 14.5492Z" fill="#3F424D"/>
</svg>
