<svg width="24" height="22" viewBox="0 0 24 22" fill="none" xmlns="http://www.w3.org/2000/svg">
<g id="Skills">
<path id="Vector" d="M24 13.0625C24 11.7864 23.3208 10.6864 22.3208 10.0934C22.5375 9.63793 23.04 7.96639 23.04 7.42499C23.04 7.42499 21.6 9.40498 20.64 10.395C19.68 11.385 17.76 11.385 17.76 11.385C17.76 11.385 16.8 11.385 15.36 10.89C13.92 10.395 12.6667 9.40498 12.6667 9.40498V18.9063C12.6667 20.6164 14.0084 22 15.6667 22C16.9917 22 18.1 21.1106 18.5 19.886C18.6625 19.916 18.8292 19.9375 19 19.9375C20.6583 19.9375 22 18.5539 22 16.8438C22 16.6375 21.9792 16.4356 21.9417 16.2379C23.15 15.7223 24 14.4934 24 13.0625Z" fill="#AAAEB9"/>
<path id="Vector_2" d="M6.09166 2.07109C6.3875 0.880857 7.42083 0 8.66666 0C10.1375 0 11.3333 1.2332 11.3333 2.74999V18.9062C11.3333 20.6164 9.99166 21.9999 8.33333 21.9999C7.00833 21.9999 5.9 21.1105 5.5 19.8859C5.3375 19.916 5.17083 19.9374 5 19.9374C3.34166 19.9374 2 18.5539 2 16.8437C2 16.6375 2.02083 16.4355 2.05833 16.2378C0.849999 15.7222 0 14.4933 0 13.0625C0 11.7863 0.679166 10.6863 1.67917 10.0933C1.46667 9.63787 1.33333 9.13513 1.33333 8.59373C1.33333 7.15858 2.1875 5.92967 3.40416 5.41405C3.35833 5.22069 3.33333 5.01874 3.33333 4.81249C3.33333 3.29569 4.52916 2.06249 6 2.06249C6.03333 2.06249 6.05833 2.07109 6.09166 2.07109Z" fill="#AAAEB9"/>
<path id="Vector_3" d="M18.123 0.649686C17.8752 -0.216562 16.6848 -0.216562 16.437 0.649686L16.377 0.86006C16.34 0.989747 16.2752 1.10924 16.1876 1.20978C16.1 1.31033 15.9916 1.38937 15.8705 1.4411C15.7494 1.49284 15.6186 1.51597 15.4877 1.50879C15.3568 1.50161 15.2291 1.4643 15.114 1.39961L14.928 1.29442C14.1582 0.862535 13.3164 1.73064 13.7358 2.52387L13.8372 2.71631C14.1048 3.22368 13.851 3.85542 13.314 4.01877L13.11 4.08065C12.27 4.33619 12.27 5.56379 13.11 5.81933L13.314 5.8812C13.4397 5.91939 13.5556 5.98611 13.6531 6.07649C13.7506 6.16686 13.8272 6.27859 13.8774 6.40349C13.9276 6.52839 13.95 6.66328 13.9431 6.79828C13.9361 6.93328 13.8999 7.06496 13.8372 7.18367L13.7352 7.37548C13.3164 8.16934 14.1582 9.03744 14.9274 8.60493L15.114 8.50037C15.2291 8.43567 15.3568 8.39836 15.4877 8.39118C15.6186 8.384 15.7494 8.40713 15.8705 8.45887C15.9916 8.51061 16.1 8.58965 16.1876 8.69019C16.2752 8.79073 16.34 8.91023 16.377 9.03991L16.437 9.25029C16.6848 10.1165 17.8752 10.1165 18.123 9.25029L18.183 9.03991C18.22 8.91023 18.2847 8.79073 18.3723 8.69019C18.46 8.58965 18.5683 8.51061 18.6894 8.45887C18.8106 8.40713 18.9414 8.384 19.0723 8.39118C19.2032 8.39836 19.3309 8.43567 19.446 8.50037L19.632 8.60555C20.4018 9.03744 21.2436 8.16934 20.8242 7.3761L20.7228 7.18367C20.66 7.06496 20.6239 6.93328 20.6169 6.79828C20.6099 6.66328 20.6324 6.52839 20.6825 6.40349C20.7327 6.27859 20.8094 6.16686 20.9068 6.07649C21.0043 5.98611 21.1202 5.91939 21.246 5.8812L21.45 5.81933C22.29 5.56379 22.29 4.33619 21.45 4.08065L21.246 4.01877C21.1202 3.98059 21.0043 3.91386 20.9068 3.82349C20.8094 3.73311 20.7327 3.62138 20.6825 3.49648C20.6324 3.37158 20.6099 3.23669 20.6169 3.10169C20.6239 2.96669 20.66 2.83501 20.7228 2.71631L20.8248 2.52449C21.2436 1.73064 20.4018 0.862535 19.6326 1.29504L19.446 1.39961C19.3309 1.4643 19.2032 1.50161 19.0723 1.50879C18.9414 1.51597 18.8106 1.49284 18.6894 1.4411C18.5683 1.38937 18.46 1.31033 18.3723 1.20978C18.2847 1.10924 18.22 0.989747 18.183 0.86006L18.123 0.649686ZM17.28 6.76292C16.8137 6.76292 16.3666 6.57192 16.0369 6.23192C15.7072 5.89193 15.522 5.43081 15.522 4.94999C15.522 4.46917 15.7072 4.00804 16.0369 3.66805C16.3666 3.32806 16.8137 3.13705 17.28 3.13705C17.7461 3.13705 18.1931 3.32799 18.5226 3.66787C18.8522 4.00774 19.0374 4.46871 19.0374 4.94937C19.0374 5.43002 18.8522 5.89099 18.5226 6.23087C18.1931 6.57074 17.7461 6.76168 17.28 6.76168V6.76292Z" fill="#AAAEB9"/>
</g>
</svg>
