<svg width="24" height="23" viewBox="0 0 24 23" fill="none" xmlns="http://www.w3.org/2000/svg">
<g id="Skills">
<path id="Vector" d="M24.0001 13.2511C24.0001 11.9749 23.3209 10.8749 22.3209 10.2819C22.5376 9.82647 23.0401 8.15493 23.0401 7.61353C23.0401 7.61353 21.6001 9.59352 20.6401 10.5835C19.6801 11.5735 17.7601 11.5735 17.7601 11.5735C17.7601 11.5735 16.8001 11.5735 15.3601 11.0785C13.9201 10.5835 12.6667 9.59352 12.6667 9.59352V19.0948C12.6667 20.805 14.0084 22.1885 15.6667 22.1885C16.9917 22.1885 18.1001 21.2991 18.5001 20.0745C18.6626 20.1046 18.8292 20.1261 19.0001 20.1261C20.6584 20.1261 22.0001 18.7425 22.0001 17.0323C22.0001 16.8261 21.9792 16.6241 21.9417 16.4265C23.1501 15.9108 24.0001 14.6819 24.0001 13.2511Z" fill="#3F424D"/>
<path id="Vector_2" d="M6.09166 2.25969C6.3875 1.06946 7.42083 0.188599 8.66666 0.188599C10.1375 0.188599 11.3333 1.4218 11.3333 2.93859V19.0948C11.3333 20.805 9.99166 22.1885 8.33333 22.1885C7.00833 22.1885 5.9 21.2991 5.5 20.0745C5.3375 20.1046 5.17083 20.126 5 20.126C3.34166 20.126 2 18.7425 2 17.0323C2 16.8261 2.02083 16.6241 2.05833 16.4264C0.849999 15.9108 0 14.6819 0 13.2511C0 11.9749 0.679166 10.8749 1.67917 10.2819C1.46667 9.82646 1.33333 9.32373 1.33333 8.78233C1.33333 7.34717 2.1875 6.11827 3.40416 5.60265C3.35833 5.40929 3.33333 5.20734 3.33333 5.00109C3.33333 3.48429 4.52916 2.25109 6 2.25109C6.03333 2.25109 6.05833 2.25969 6.09166 2.25969Z" fill="#656A7B"/>
<path id="Vector_3" d="M18.123 0.838284C17.8752 -0.0279633 16.6848 -0.0279633 16.437 0.838284L16.377 1.04866C16.34 1.17835 16.2752 1.29784 16.1876 1.39838C16.1 1.49893 15.9916 1.57796 15.8705 1.6297C15.7494 1.68144 15.6186 1.70457 15.4877 1.69739C15.3568 1.69021 15.2291 1.6529 15.114 1.58821L14.928 1.48302C14.1582 1.05113 13.3164 1.91924 13.7358 2.71247L13.8372 2.9049C14.1048 3.41228 13.851 4.04402 13.314 4.20737L13.11 4.26924C12.27 4.52479 12.27 5.75238 13.11 6.00793L13.314 6.0698C13.4397 6.10798 13.5556 6.17471 13.6531 6.26508C13.7506 6.35546 13.8272 6.46719 13.8774 6.59209C13.9276 6.71699 13.95 6.85188 13.9431 6.98688C13.9361 7.12188 13.8999 7.25356 13.8372 7.37227L13.7352 7.56408C13.3164 8.35793 14.1582 9.22604 14.9274 8.79353L15.114 8.68896C15.2291 8.62427 15.3568 8.58696 15.4877 8.57978C15.6186 8.5726 15.7494 8.59573 15.8705 8.64747C15.9916 8.69921 16.1 8.77825 16.1876 8.87879C16.2752 8.97933 16.34 9.09883 16.377 9.22851L16.437 9.43889C16.6848 10.3051 17.8752 10.3051 18.123 9.43889L18.183 9.22851C18.22 9.09883 18.2847 8.97933 18.3723 8.87879C18.46 8.77825 18.5683 8.69921 18.6894 8.64747C18.8106 8.59573 18.9414 8.5726 19.0723 8.57978C19.2032 8.58696 19.3309 8.62427 19.446 8.68896L19.632 8.79415C20.4018 9.22604 21.2436 8.35793 20.8242 7.5647L20.7228 7.37227C20.66 7.25356 20.6239 7.12188 20.6169 6.98688C20.6099 6.85188 20.6324 6.71699 20.6825 6.59209C20.7327 6.46719 20.8094 6.35546 20.9068 6.26508C21.0043 6.17471 21.1202 6.10798 21.246 6.0698L21.45 6.00793C22.29 5.75238 22.29 4.52479 21.45 4.26924L21.246 4.20737C21.1202 4.16919 21.0043 4.10246 20.9068 4.01209C20.8094 3.92171 20.7327 3.80998 20.6825 3.68508C20.6324 3.56018 20.6099 3.42529 20.6169 3.29029C20.6239 3.15529 20.66 3.02361 20.7228 2.9049L20.8248 2.71309C21.2436 1.91924 20.4018 1.05113 19.6326 1.48364L19.446 1.58821C19.3309 1.6529 19.2032 1.69021 19.0723 1.69739C18.9414 1.70457 18.8106 1.68144 18.6894 1.6297C18.5683 1.57796 18.46 1.49893 18.3723 1.39838C18.2847 1.29784 18.22 1.17835 18.183 1.04866L18.123 0.838284ZM17.28 6.95152C16.8137 6.95152 16.3666 6.76051 16.0369 6.42052C15.7072 6.08053 15.522 5.61941 15.522 5.13859C15.522 4.65777 15.7072 4.19664 16.0369 3.85665C16.3666 3.51666 16.8137 3.32565 17.28 3.32565C17.7461 3.32565 18.1931 3.51659 18.5226 3.85647C18.8522 4.19634 19.0374 4.65731 19.0374 5.13797C19.0374 5.61862 18.8522 6.07959 18.5226 6.41947C18.1931 6.75934 17.7461 6.95028 17.28 6.95028V6.95152Z" fill="#656A7B"/>
</g>
</svg>
