<svg width="24" height="24" viewBox="0 0 24 24" fill="none" xmlns="http://www.w3.org/2000/svg">
<g id="Slack">
<path id="png-transparent-slack-logo-icon 1 (Traced)" fill-rule="evenodd" clip-rule="evenodd" d="M14.1579 0.287541C13.3333 0.566995 12.7161 1.23454 12.5204 2.05865C12.4232 2.46811 12.4239 9.00613 12.5212 9.41602C13.1094 11.8939 16.6168 11.9421 17.3539 9.48252C17.4511 9.15836 17.478 2.71861 17.3845 2.16771C17.1403 0.728047 15.5656 -0.189493 14.1579 0.287541ZM2.23328 6.29598C0.0345318 6.71679 -0.384664 9.93163 1.63144 10.9114C2.18796 11.1819 2.04046 11.1729 5.94221 11.1729L9.5002 11.1728L9.85281 11.0509C12.2146 10.2346 12.0131 6.80578 9.57356 6.29714C9.29694 6.23946 2.53418 6.23843 2.23328 6.29598ZM1.89905 12.5664C-0.941952 13.1792 -0.46143 17.4259 2.44892 17.4259C4.20066 17.4259 4.90945 16.4422 4.94041 13.9681L4.95874 12.5014L3.56367 12.5048C2.56113 12.5073 2.09277 12.5246 1.89905 12.5664ZM14.2657 12.6121C11.8727 13.2389 11.7614 16.6277 14.1097 17.3643L14.4562 17.473L18.0221 17.47C21.9683 17.4666 21.7649 17.4801 22.3369 17.1833C24.3134 16.1578 23.9053 13.121 21.7223 12.6101C21.3194 12.5158 14.6265 12.5175 14.2657 12.6121Z" fill="#AAAEB9"/>
<path id="png-transparent-slack-logo-icon 1 (Traced)_2" d="M18.9776 9.17945C19.0814 7.1106 19.599 6.28817 20.9837 5.9918C23.4085 5.47285 25.0245 8.46917 23.2457 10.1857C22.6116 10.7976 22.3346 10.8664 20.4342 10.8838L18.8712 10.8981L18.8938 10.649C18.9062 10.512 18.9439 9.85068 18.9776 9.17945Z" fill="#656A7B"/>
<path id="png-transparent-slack-logo-icon 1 (Traced)_3" d="M7.15176 4.59123C5.28393 3.49118 5.69338 0.647688 7.80117 0.0814998C8.84739 -0.199539 10.0055 0.264562 10.5713 1.19161C10.9045 1.73754 10.9163 1.81308 10.9325 3.49208L10.947 4.99542L10.1139 4.97992C7.7812 4.93645 7.72553 4.92917 7.15176 4.59123Z" fill="#656A7B"/>
<path id="png-transparent-slack-logo-icon 1 (Traced)_4" d="M5.98021 14.819C6.12192 13.9353 6.92413 13.1322 7.88746 12.9099C9.15454 12.6175 10.5541 13.4912 10.8426 14.7548C10.9237 15.1097 10.9003 21.8932 10.8169 22.211C10.2407 24.4074 7.14554 24.645 6.14474 22.5698L5.98987 22.2486L5.96615 18.6516C5.95308 16.6684 5.95938 14.9489 5.98021 14.819Z" fill="#656A7B"/>
<path id="png-transparent-slack-logo-icon 1 (Traced)_5" d="M14.011 23.3264C13.0973 22.7196 12.9138 22.1885 12.9126 20.149L12.9119 18.7855L14.389 18.8036C16.2552 18.8264 16.5037 18.8928 17.164 19.5443C19.281 21.6335 16.4946 24.9757 14.011 23.3264Z" fill="#656A7B"/>
</g>
</svg>
