<svg width="250" height="250" viewBox="0 0 250 250" fill="none" xmlns="http://www.w3.org/2000/svg">
<g clip-path="url(#clip0_41_3057)">
<path d="M250 0H0V250H250V0Z" fill="white"/>
<path d="M90.909 15.1514H83.3333V22.7271H90.909V15.1514Z" fill="black"/>
<path d="M106.061 15.1514H98.4849V22.7271H106.061V15.1514Z" fill="black"/>
<path d="M113.636 15.1514H106.061V22.7271H113.636V15.1514Z" fill="black"/>
<path d="M121.212 15.1514H113.636V22.7271H121.212V15.1514Z" fill="black"/>
<path d="M159.091 15.1514H151.515V22.7271H159.091V15.1514Z" fill="black"/>
<path d="M166.667 15.1514H159.091V22.7271H166.667V15.1514Z" fill="black"/>
<path d="M83.3333 22.7271H75.7576V30.3028H83.3333V22.7271Z" fill="black"/>
<path d="M106.061 22.7271H98.4849V30.3028H106.061V22.7271Z" fill="black"/>
<path d="M121.212 22.7271H113.636V30.3028H121.212V22.7271Z" fill="black"/>
<path d="M128.788 22.7271H121.212V30.3028H128.788V22.7271Z" fill="black"/>
<path d="M151.515 22.7271H143.939V30.3028H151.515V22.7271Z" fill="black"/>
<path d="M159.091 22.7271H151.515V30.3028H159.091V22.7271Z" fill="black"/>
<path d="M174.243 22.7271H166.667V30.3028H174.243V22.7271Z" fill="black"/>
<path d="M98.4849 30.3032H90.9092V37.879H98.4849V30.3032Z" fill="black"/>
<path d="M128.788 30.3032H121.212V37.879H128.788V30.3032Z" fill="black"/>
<path d="M143.939 30.3032H136.364V37.879H143.939V30.3032Z" fill="black"/>
<path d="M151.515 30.3032H143.939V37.879H151.515V30.3032Z" fill="black"/>
<path d="M166.667 30.3032H159.091V37.879H166.667V30.3032Z" fill="black"/>
<path d="M174.243 30.3032H166.667V37.879H174.243V30.3032Z" fill="black"/>
<path d="M90.909 37.8789H83.3333V45.4547H90.909V37.8789Z" fill="black"/>
<path d="M113.636 37.8789H106.061V45.4547H113.636V37.8789Z" fill="black"/>
<path d="M128.788 37.8789H121.212V45.4547H128.788V37.8789Z" fill="black"/>
<path d="M136.364 37.8789H128.788V45.4547H136.364V37.8789Z" fill="black"/>
<path d="M143.939 37.8789H136.364V45.4547H143.939V37.8789Z" fill="black"/>
<path d="M166.667 37.8789H159.091V45.4547H166.667V37.8789Z" fill="black"/>
<path d="M174.243 37.8789H166.667V45.4547H174.243V37.8789Z" fill="black"/>
<path d="M90.909 45.4546H83.3333V53.0303H90.909V45.4546Z" fill="black"/>
<path d="M98.4849 45.4546H90.9092V53.0303H98.4849V45.4546Z" fill="black"/>
<path d="M106.061 45.4546H98.4849V53.0303H106.061V45.4546Z" fill="black"/>
<path d="M113.636 45.4546H106.061V53.0303H113.636V45.4546Z" fill="black"/>
<path d="M136.364 45.4546H128.788V53.0303H136.364V45.4546Z" fill="black"/>
<path d="M143.939 45.4546H136.364V53.0303H143.939V45.4546Z" fill="black"/>
<path d="M174.243 45.4546H166.667V53.0303H174.243V45.4546Z" fill="black"/>
<path d="M83.3333 53.0303H75.7576V60.606H83.3333V53.0303Z" fill="black"/>
<path d="M90.909 53.0303H83.3333V60.606H90.909V53.0303Z" fill="black"/>
<path d="M106.061 53.0303H98.4849V60.606H106.061V53.0303Z" fill="black"/>
<path d="M121.212 53.0303H113.636V60.606H121.212V53.0303Z" fill="black"/>
<path d="M128.788 53.0303H121.212V60.606H128.788V53.0303Z" fill="black"/>
<path d="M143.939 53.0303H136.364V60.606H143.939V53.0303Z" fill="black"/>
<path d="M159.091 53.0303H151.515V60.606H159.091V53.0303Z" fill="black"/>
<path d="M166.667 53.0303H159.091V60.606H166.667V53.0303Z" fill="black"/>
<path d="M83.3333 60.606H75.7576V68.1817H83.3333V60.606Z" fill="black"/>
<path d="M98.4849 60.606H90.9092V68.1817H98.4849V60.606Z" fill="black"/>
<path d="M113.636 60.606H106.061V68.1817H113.636V60.606Z" fill="black"/>
<path d="M128.788 60.606H121.212V68.1817H128.788V60.606Z" fill="black"/>
<path d="M143.939 60.606H136.364V68.1817H143.939V60.606Z" fill="black"/>
<path d="M159.091 60.606H151.515V68.1817H159.091V60.606Z" fill="black"/>
<path d="M174.243 60.606H166.667V68.1817H174.243V60.606Z" fill="black"/>
<path d="M83.3333 68.1816H75.7576V75.7574H83.3333V68.1816Z" fill="black"/>
<path d="M98.4849 68.1816H90.9092V75.7574H98.4849V68.1816Z" fill="black"/>
<path d="M106.061 68.1816H98.4849V75.7574H106.061V68.1816Z" fill="black"/>
<path d="M128.788 68.1816H121.212V75.7574H128.788V68.1816Z" fill="black"/>
<path d="M143.939 68.1816H136.364V75.7574H143.939V68.1816Z" fill="black"/>
<path d="M151.515 68.1816H143.939V75.7574H151.515V68.1816Z" fill="black"/>
<path d="M159.091 68.1816H151.515V75.7574H159.091V68.1816Z" fill="black"/>
<path d="M166.667 68.1816H159.091V75.7574H166.667V68.1816Z" fill="black"/>
<path d="M174.243 68.1816H166.667V75.7574H174.243V68.1816Z" fill="black"/>
<path d="M53.0303 75.7578H45.4546V83.3336H53.0303V75.7578Z" fill="black"/>
<path d="M60.606 75.7578H53.0303V83.3336H60.606V75.7578Z" fill="black"/>
<path d="M68.1817 75.7578H60.606V83.3336H68.1817V75.7578Z" fill="black"/>
<path d="M75.7576 75.7578H68.1819V83.3336H75.7576V75.7578Z" fill="black"/>
<path d="M106.061 75.7578H98.4849V83.3336H106.061V75.7578Z" fill="black"/>
<path d="M128.788 75.7578H121.212V83.3336H128.788V75.7578Z" fill="black"/>
<path d="M159.091 75.7578H151.515V83.3336H159.091V75.7578Z" fill="black"/>
<path d="M166.667 75.7578H159.091V83.3336H166.667V75.7578Z" fill="black"/>
<path d="M189.394 75.7578H181.818V83.3336H189.394V75.7578Z" fill="black"/>
<path d="M196.97 75.7578H189.394V83.3336H196.97V75.7578Z" fill="black"/>
<path d="M227.273 75.7578H219.697V83.3336H227.273V75.7578Z" fill="black"/>
<path d="M37.8787 83.3335H30.303V90.9093H37.8787V83.3335Z" fill="black"/>
<path d="M53.0303 83.3335H45.4546V90.9093H53.0303V83.3335Z" fill="black"/>
<path d="M60.606 83.3335H53.0303V90.9093H60.606V83.3335Z" fill="black"/>
<path d="M75.7576 83.3335H68.1819V90.9093H75.7576V83.3335Z" fill="black"/>
<path d="M90.909 83.3335H83.3333V90.9093H90.909V83.3335Z" fill="black"/>
<path d="M106.061 83.3335H98.4849V90.9093H106.061V83.3335Z" fill="black"/>
<path d="M121.212 83.3335H113.636V90.9093H121.212V83.3335Z" fill="black"/>
<path d="M128.788 83.3335H121.212V90.9093H128.788V83.3335Z" fill="black"/>
<path d="M166.667 83.3335H159.091V90.9093H166.667V83.3335Z" fill="black"/>
<path d="M174.243 83.3335H166.667V90.9093H174.243V83.3335Z" fill="black"/>
<path d="M204.545 83.3335H196.97V90.9093H204.545V83.3335Z" fill="black"/>
<path d="M212.121 83.3335H204.545V90.9093H212.121V83.3335Z" fill="black"/>
<path d="M219.697 83.3335H212.121V90.9093H219.697V83.3335Z" fill="black"/>
<path d="M234.848 83.3335H227.273V90.9093H234.848V83.3335Z" fill="black"/>
<path d="M37.8787 90.9092H30.303V98.4849H37.8787V90.9092Z" fill="black"/>
<path d="M45.4547 90.9092H37.8789V98.4849H45.4547V90.9092Z" fill="black"/>
<path d="M53.0303 90.9092H45.4546V98.4849H53.0303V90.9092Z" fill="black"/>
<path d="M68.1817 90.9092H60.606V98.4849H68.1817V90.9092Z" fill="black"/>
<path d="M83.3333 90.9092H75.7576V98.4849H83.3333V90.9092Z" fill="black"/>
<path d="M90.909 90.9092H83.3333V98.4849H90.909V90.9092Z" fill="black"/>
<path d="M106.061 90.9092H98.4849V98.4849H106.061V90.9092Z" fill="black"/>
<path d="M128.788 90.9092H121.212V98.4849H128.788V90.9092Z" fill="black"/>
<path d="M151.515 90.9092H143.939V98.4849H151.515V90.9092Z" fill="black"/>
<path d="M174.243 90.9092H166.667V98.4849H174.243V90.9092Z" fill="black"/>
<path d="M181.818 90.9092H174.242V98.4849H181.818V90.9092Z" fill="black"/>
<path d="M234.848 90.9092H227.273V98.4849H234.848V90.9092Z" fill="black"/>
<path d="M22.7274 98.4849H15.1516V106.061H22.7274V98.4849Z" fill="black"/>
<path d="M30.3031 98.4849H22.7273V106.061H30.3031V98.4849Z" fill="black"/>
<path d="M45.4547 98.4849H37.8789V106.061H45.4547V98.4849Z" fill="black"/>
<path d="M53.0303 98.4849H45.4546V106.061H53.0303V98.4849Z" fill="black"/>
<path d="M60.606 98.4849H53.0303V106.061H60.606V98.4849Z" fill="black"/>
<path d="M83.3333 98.4849H75.7576V106.061H83.3333V98.4849Z" fill="black"/>
<path d="M113.636 98.4849H106.061V106.061H113.636V98.4849Z" fill="black"/>
<path d="M136.364 98.4849H128.788V106.061H136.364V98.4849Z" fill="black"/>
<path d="M151.515 98.4849H143.939V106.061H151.515V98.4849Z" fill="black"/>
<path d="M159.091 98.4849H151.515V106.061H159.091V98.4849Z" fill="black"/>
<path d="M181.818 98.4849H174.242V106.061H181.818V98.4849Z" fill="black"/>
<path d="M189.394 98.4849H181.818V106.061H189.394V98.4849Z" fill="black"/>
<path d="M196.97 98.4849H189.394V106.061H196.97V98.4849Z" fill="black"/>
<path d="M204.545 98.4849H196.97V106.061H204.545V98.4849Z" fill="black"/>
<path d="M227.273 98.4849H219.697V106.061H227.273V98.4849Z" fill="black"/>
<path d="M234.848 98.4849H227.273V106.061H234.848V98.4849Z" fill="black"/>
<path d="M22.7274 106.061H15.1516V113.636H22.7274V106.061Z" fill="black"/>
<path d="M30.3031 106.061H22.7273V113.636H30.3031V106.061Z" fill="black"/>
<path d="M37.8787 106.061H30.303V113.636H37.8787V106.061Z" fill="black"/>
<path d="M68.1817 106.061H60.606V113.636H68.1817V106.061Z" fill="black"/>
<path d="M83.3333 106.061H75.7576V113.636H83.3333V106.061Z" fill="black"/>
<path d="M90.909 106.061H83.3333V113.636H90.909V106.061Z" fill="black"/>
<path d="M106.061 106.061H98.4849V113.636H106.061V106.061Z" fill="black"/>
<path d="M113.636 106.061H106.061V113.636H113.636V106.061Z" fill="black"/>
<path d="M151.515 106.061H143.939V113.636H151.515V106.061Z" fill="black"/>
<path d="M166.667 106.061H159.091V113.636H166.667V106.061Z" fill="black"/>
<path d="M196.97 106.061H189.394V113.636H196.97V106.061Z" fill="black"/>
<path d="M227.273 106.061H219.697V113.636H227.273V106.061Z" fill="black"/>
<path d="M22.7274 113.636H15.1516V121.212H22.7274V113.636Z" fill="black"/>
<path d="M60.606 113.636H53.0303V121.212H60.606V113.636Z" fill="black"/>
<path d="M83.3333 113.636H75.7576V121.212H83.3333V113.636Z" fill="black"/>
<path d="M90.909 113.636H83.3333V121.212H90.909V113.636Z" fill="black"/>
<path d="M113.636 113.636H106.061V121.212H113.636V113.636Z" fill="black"/>
<path d="M121.212 113.636H113.636V121.212H121.212V113.636Z" fill="black"/>
<path d="M128.788 113.636H121.212V121.212H128.788V113.636Z" fill="black"/>
<path d="M136.364 113.636H128.788V121.212H136.364V113.636Z" fill="black"/>
<path d="M143.939 113.636H136.364V121.212H143.939V113.636Z" fill="black"/>
<path d="M151.515 113.636H143.939V121.212H151.515V113.636Z" fill="black"/>
<path d="M159.091 113.636H151.515V121.212H159.091V113.636Z" fill="black"/>
<path d="M174.243 113.636H166.667V121.212H174.243V113.636Z" fill="black"/>
<path d="M181.818 113.636H174.242V121.212H181.818V113.636Z" fill="black"/>
<path d="M189.394 113.636H181.818V121.212H189.394V113.636Z" fill="black"/>
<path d="M204.545 113.636H196.97V121.212H204.545V113.636Z" fill="black"/>
<path d="M219.697 113.636H212.121V121.212H219.697V113.636Z" fill="black"/>
<path d="M227.273 113.636H219.697V121.212H227.273V113.636Z" fill="black"/>
<path d="M234.848 113.636H227.273V121.212H234.848V113.636Z" fill="black"/>
<path d="M22.7274 121.212H15.1516V128.788H22.7274V121.212Z" fill="black"/>
<path d="M45.4547 121.212H37.8789V128.788H45.4547V121.212Z" fill="black"/>
<path d="M60.606 121.212H53.0303V128.788H60.606V121.212Z" fill="black"/>
<path d="M68.1817 121.212H60.606V128.788H68.1817V121.212Z" fill="black"/>
<path d="M98.4849 121.212H90.9092V128.788H98.4849V121.212Z" fill="black"/>
<path d="M121.212 121.212H113.636V128.788H121.212V121.212Z" fill="black"/>
<path d="M128.788 121.212H121.212V128.788H128.788V121.212Z" fill="black"/>
<path d="M136.364 121.212H128.788V128.788H136.364V121.212Z" fill="black"/>
<path d="M143.939 121.212H136.364V128.788H143.939V121.212Z" fill="black"/>
<path d="M151.515 121.212H143.939V128.788H151.515V121.212Z" fill="black"/>
<path d="M159.091 121.212H151.515V128.788H159.091V121.212Z" fill="black"/>
<path d="M174.243 121.212H166.667V128.788H174.243V121.212Z" fill="black"/>
<path d="M204.545 121.212H196.97V128.788H204.545V121.212Z" fill="black"/>
<path d="M212.121 121.212H204.545V128.788H212.121V121.212Z" fill="black"/>
<path d="M227.273 121.212H219.697V128.788H227.273V121.212Z" fill="black"/>
<path d="M234.848 121.212H227.273V128.788H234.848V121.212Z" fill="black"/>
<path d="M22.7274 128.788H15.1516V136.364H22.7274V128.788Z" fill="black"/>
<path d="M60.606 128.788H53.0303V136.364H60.606V128.788Z" fill="black"/>
<path d="M75.7576 128.788H68.1819V136.364H75.7576V128.788Z" fill="black"/>
<path d="M98.4849 128.788H90.9092V136.364H98.4849V128.788Z" fill="black"/>
<path d="M106.061 128.788H98.4849V136.364H106.061V128.788Z" fill="black"/>
<path d="M143.939 128.788H136.364V136.364H143.939V128.788Z" fill="black"/>
<path d="M151.515 128.788H143.939V136.364H151.515V128.788Z" fill="black"/>
<path d="M181.818 128.788H174.242V136.364H181.818V128.788Z" fill="black"/>
<path d="M196.97 128.788H189.394V136.364H196.97V128.788Z" fill="black"/>
<path d="M204.545 128.788H196.97V136.364H204.545V128.788Z" fill="black"/>
<path d="M212.121 128.788H204.545V136.364H212.121V128.788Z" fill="black"/>
<path d="M234.848 128.788H227.273V136.364H234.848V128.788Z" fill="black"/>
<path d="M22.7274 136.364H15.1516V143.94H22.7274V136.364Z" fill="black"/>
<path d="M30.3031 136.364H22.7273V143.94H30.3031V136.364Z" fill="black"/>
<path d="M53.0303 136.364H45.4546V143.94H53.0303V136.364Z" fill="black"/>
<path d="M60.606 136.364H53.0303V143.94H60.606V136.364Z" fill="black"/>
<path d="M68.1817 136.364H60.606V143.94H68.1817V136.364Z" fill="black"/>
<path d="M83.3333 136.364H75.7576V143.94H83.3333V136.364Z" fill="black"/>
<path d="M90.909 136.364H83.3333V143.94H90.909V136.364Z" fill="black"/>
<path d="M113.636 136.364H106.061V143.94H113.636V136.364Z" fill="black"/>
<path d="M121.212 136.364H113.636V143.94H121.212V136.364Z" fill="black"/>
<path d="M128.788 136.364H121.212V143.94H128.788V136.364Z" fill="black"/>
<path d="M136.364 136.364H128.788V143.94H136.364V136.364Z" fill="black"/>
<path d="M143.939 136.364H136.364V143.94H143.939V136.364Z" fill="black"/>
<path d="M151.515 136.364H143.939V143.94H151.515V136.364Z" fill="black"/>
<path d="M166.667 136.364H159.091V143.94H166.667V136.364Z" fill="black"/>
<path d="M174.243 136.364H166.667V143.94H174.243V136.364Z" fill="black"/>
<path d="M181.818 136.364H174.242V143.94H181.818V136.364Z" fill="black"/>
<path d="M189.394 136.364H181.818V143.94H189.394V136.364Z" fill="black"/>
<path d="M196.97 136.364H189.394V143.94H196.97V136.364Z" fill="black"/>
<path d="M212.121 136.364H204.545V143.94H212.121V136.364Z" fill="black"/>
<path d="M22.7274 143.939H15.1516V151.515H22.7274V143.939Z" fill="black"/>
<path d="M30.3031 143.939H22.7273V151.515H30.3031V143.939Z" fill="black"/>
<path d="M37.8787 143.939H30.303V151.515H37.8787V143.939Z" fill="black"/>
<path d="M53.0303 143.939H45.4546V151.515H53.0303V143.939Z" fill="black"/>
<path d="M75.7576 143.939H68.1819V151.515H75.7576V143.939Z" fill="black"/>
<path d="M83.3333 143.939H75.7576V151.515H83.3333V143.939Z" fill="black"/>
<path d="M98.4849 143.939H90.9092V151.515H98.4849V143.939Z" fill="black"/>
<path d="M121.212 143.939H113.636V151.515H121.212V143.939Z" fill="black"/>
<path d="M128.788 143.939H121.212V151.515H128.788V143.939Z" fill="black"/>
<path d="M143.939 143.939H136.364V151.515H143.939V143.939Z" fill="black"/>
<path d="M151.515 143.939H143.939V151.515H151.515V143.939Z" fill="black"/>
<path d="M159.091 143.939H151.515V151.515H159.091V143.939Z" fill="black"/>
<path d="M166.667 143.939H159.091V151.515H166.667V143.939Z" fill="black"/>
<path d="M204.545 143.939H196.97V151.515H204.545V143.939Z" fill="black"/>
<path d="M212.121 143.939H204.545V151.515H212.121V143.939Z" fill="black"/>
<path d="M219.697 143.939H212.121V151.515H219.697V143.939Z" fill="black"/>
<path d="M227.273 143.939H219.697V151.515H227.273V143.939Z" fill="black"/>
<path d="M234.848 143.939H227.273V151.515H234.848V143.939Z" fill="black"/>
<path d="M45.4547 151.515H37.8789V159.091H45.4547V151.515Z" fill="black"/>
<path d="M53.0303 151.515H45.4546V159.091H53.0303V151.515Z" fill="black"/>
<path d="M68.1817 151.515H60.606V159.091H68.1817V151.515Z" fill="black"/>
<path d="M75.7576 151.515H68.1819V159.091H75.7576V151.515Z" fill="black"/>
<path d="M98.4849 151.515H90.9092V159.091H98.4849V151.515Z" fill="black"/>
<path d="M143.939 151.515H136.364V159.091H143.939V151.515Z" fill="black"/>
<path d="M166.667 151.515H159.091V159.091H166.667V151.515Z" fill="black"/>
<path d="M181.818 151.515H174.242V159.091H181.818V151.515Z" fill="black"/>
<path d="M204.545 151.515H196.97V159.091H204.545V151.515Z" fill="black"/>
<path d="M234.848 151.515H227.273V159.091H234.848V151.515Z" fill="black"/>
<path d="M37.8787 159.091H30.303V166.667H37.8787V159.091Z" fill="black"/>
<path d="M60.606 159.091H53.0303V166.667H60.606V159.091Z" fill="black"/>
<path d="M83.3333 159.091H75.7576V166.667H83.3333V159.091Z" fill="black"/>
<path d="M90.909 159.091H83.3333V166.667H90.909V159.091Z" fill="black"/>
<path d="M98.4849 159.091H90.9092V166.667H98.4849V159.091Z" fill="black"/>
<path d="M121.212 159.091H113.636V166.667H121.212V159.091Z" fill="black"/>
<path d="M166.667 159.091H159.091V166.667H166.667V159.091Z" fill="black"/>
<path d="M174.243 159.091H166.667V166.667H174.243V159.091Z" fill="black"/>
<path d="M181.818 159.091H174.242V166.667H181.818V159.091Z" fill="black"/>
<path d="M189.394 159.091H181.818V166.667H189.394V159.091Z" fill="black"/>
<path d="M196.97 159.091H189.394V166.667H196.97V159.091Z" fill="black"/>
<path d="M227.273 159.091H219.697V166.667H227.273V159.091Z" fill="black"/>
<path d="M22.7274 166.667H15.1516V174.242H22.7274V166.667Z" fill="black"/>
<path d="M30.3031 166.667H22.7273V174.242H30.3031V166.667Z" fill="black"/>
<path d="M37.8787 166.667H30.303V174.242H37.8787V166.667Z" fill="black"/>
<path d="M53.0303 166.667H45.4546V174.242H53.0303V166.667Z" fill="black"/>
<path d="M68.1817 166.667H60.606V174.242H68.1817V166.667Z" fill="black"/>
<path d="M83.3333 166.667H75.7576V174.242H83.3333V166.667Z" fill="black"/>
<path d="M90.909 166.667H83.3333V174.242H90.909V166.667Z" fill="black"/>
<path d="M98.4849 166.667H90.9092V174.242H98.4849V166.667Z" fill="black"/>
<path d="M106.061 166.667H98.4849V174.242H106.061V166.667Z" fill="black"/>
<path d="M128.788 166.667H121.212V174.242H128.788V166.667Z" fill="black"/>
<path d="M143.939 166.667H136.364V174.242H143.939V166.667Z" fill="black"/>
<path d="M151.515 166.667H143.939V174.242H151.515V166.667Z" fill="black"/>
<path d="M159.091 166.667H151.515V174.242H159.091V166.667Z" fill="black"/>
<path d="M174.243 166.667H166.667V174.242H174.243V166.667Z" fill="black"/>
<path d="M181.818 166.667H174.242V174.242H181.818V166.667Z" fill="black"/>
<path d="M189.394 166.667H181.818V174.242H189.394V166.667Z" fill="black"/>
<path d="M196.97 166.667H189.394V174.242H196.97V166.667Z" fill="black"/>
<path d="M204.545 166.667H196.97V174.242H204.545V166.667Z" fill="black"/>
<path d="M83.3333 174.242H75.7576V181.818H83.3333V174.242Z" fill="black"/>
<path d="M106.061 174.242H98.4849V181.818H106.061V174.242Z" fill="black"/>
<path d="M128.788 174.242H121.212V181.818H128.788V174.242Z" fill="black"/>
<path d="M143.939 174.242H136.364V181.818H143.939V174.242Z" fill="black"/>
<path d="M159.091 174.242H151.515V181.818H159.091V174.242Z" fill="black"/>
<path d="M174.243 174.242H166.667V181.818H174.243V174.242Z" fill="black"/>
<path d="M204.545 174.242H196.97V181.818H204.545V174.242Z" fill="black"/>
<path d="M227.273 174.242H219.697V181.818H227.273V174.242Z" fill="black"/>
<path d="M234.848 174.242H227.273V181.818H234.848V174.242Z" fill="black"/>
<path d="M83.3333 181.818H75.7576V189.394H83.3333V181.818Z" fill="black"/>
<path d="M98.4849 181.818H90.9092V189.394H98.4849V181.818Z" fill="black"/>
<path d="M106.061 181.818H98.4849V189.394H106.061V181.818Z" fill="black"/>
<path d="M113.636 181.818H106.061V189.394H113.636V181.818Z" fill="black"/>
<path d="M121.212 181.818H113.636V189.394H121.212V181.818Z" fill="black"/>
<path d="M128.788 181.818H121.212V189.394H128.788V181.818Z" fill="black"/>
<path d="M136.364 181.818H128.788V189.394H136.364V181.818Z" fill="black"/>
<path d="M151.515 181.818H143.939V189.394H151.515V181.818Z" fill="black"/>
<path d="M159.091 181.818H151.515V189.394H159.091V181.818Z" fill="black"/>
<path d="M166.667 181.818H159.091V189.394H166.667V181.818Z" fill="black"/>
<path d="M174.243 181.818H166.667V189.394H174.243V181.818Z" fill="black"/>
<path d="M189.394 181.818H181.818V189.394H189.394V181.818Z" fill="black"/>
<path d="M204.545 181.818H196.97V189.394H204.545V181.818Z" fill="black"/>
<path d="M227.273 181.818H219.697V189.394H227.273V181.818Z" fill="black"/>
<path d="M234.848 181.818H227.273V189.394H234.848V181.818Z" fill="black"/>
<path d="M83.3333 189.394H75.7576V196.97H83.3333V189.394Z" fill="black"/>
<path d="M90.909 189.394H83.3333V196.97H90.909V189.394Z" fill="black"/>
<path d="M121.212 189.394H113.636V196.97H121.212V189.394Z" fill="black"/>
<path d="M159.091 189.394H151.515V196.97H159.091V189.394Z" fill="black"/>
<path d="M174.243 189.394H166.667V196.97H174.243V189.394Z" fill="black"/>
<path d="M204.545 189.394H196.97V196.97H204.545V189.394Z" fill="black"/>
<path d="M227.273 189.394H219.697V196.97H227.273V189.394Z" fill="black"/>
<path d="M83.3333 196.97H75.7576V204.545H83.3333V196.97Z" fill="black"/>
<path d="M98.4849 196.97H90.9092V204.545H98.4849V196.97Z" fill="black"/>
<path d="M113.636 196.97H106.061V204.545H113.636V196.97Z" fill="black"/>
<path d="M121.212 196.97H113.636V204.545H121.212V196.97Z" fill="black"/>
<path d="M136.364 196.97H128.788V204.545H136.364V196.97Z" fill="black"/>
<path d="M143.939 196.97H136.364V204.545H143.939V196.97Z" fill="black"/>
<path d="M166.667 196.97H159.091V204.545H166.667V196.97Z" fill="black"/>
<path d="M174.243 196.97H166.667V204.545H174.243V196.97Z" fill="black"/>
<path d="M181.818 196.97H174.242V204.545H181.818V196.97Z" fill="black"/>
<path d="M189.394 196.97H181.818V204.545H189.394V196.97Z" fill="black"/>
<path d="M196.97 196.97H189.394V204.545H196.97V196.97Z" fill="black"/>
<path d="M204.545 196.97H196.97V204.545H204.545V196.97Z" fill="black"/>
<path d="M90.909 204.545H83.3333V212.121H90.909V204.545Z" fill="black"/>
<path d="M98.4849 204.545H90.9092V212.121H98.4849V204.545Z" fill="black"/>
<path d="M106.061 204.545H98.4849V212.121H106.061V204.545Z" fill="black"/>
<path d="M113.636 204.545H106.061V212.121H113.636V204.545Z" fill="black"/>
<path d="M136.364 204.545H128.788V212.121H136.364V204.545Z" fill="black"/>
<path d="M159.091 204.545H151.515V212.121H159.091V204.545Z" fill="black"/>
<path d="M166.667 204.545H159.091V212.121H166.667V204.545Z" fill="black"/>
<path d="M174.243 204.545H166.667V212.121H174.243V204.545Z" fill="black"/>
<path d="M212.121 204.545H204.545V212.121H212.121V204.545Z" fill="black"/>
<path d="M227.273 204.545H219.697V212.121H227.273V204.545Z" fill="black"/>
<path d="M98.4849 212.121H90.9092V219.697H98.4849V212.121Z" fill="black"/>
<path d="M113.636 212.121H106.061V219.697H113.636V212.121Z" fill="black"/>
<path d="M136.364 212.121H128.788V219.697H136.364V212.121Z" fill="black"/>
<path d="M159.091 212.121H151.515V219.697H159.091V212.121Z" fill="black"/>
<path d="M196.97 212.121H189.394V219.697H196.97V212.121Z" fill="black"/>
<path d="M227.273 212.121H219.697V219.697H227.273V212.121Z" fill="black"/>
<path d="M234.848 212.121H227.273V219.697H234.848V212.121Z" fill="black"/>
<path d="M106.061 219.697H98.4849V227.273H106.061V219.697Z" fill="black"/>
<path d="M113.636 219.697H106.061V227.273H113.636V219.697Z" fill="black"/>
<path d="M121.212 219.697H113.636V227.273H121.212V219.697Z" fill="black"/>
<path d="M128.788 219.697H121.212V227.273H128.788V219.697Z" fill="black"/>
<path d="M136.364 219.697H128.788V227.273H136.364V219.697Z" fill="black"/>
<path d="M143.939 219.697H136.364V227.273H143.939V219.697Z" fill="black"/>
<path d="M151.515 219.697H143.939V227.273H151.515V219.697Z" fill="black"/>
<path d="M166.667 219.697H159.091V227.273H166.667V219.697Z" fill="black"/>
<path d="M181.818 219.697H174.242V227.273H181.818V219.697Z" fill="black"/>
<path d="M189.394 219.697H181.818V227.273H189.394V219.697Z" fill="black"/>
<path d="M196.97 219.697H189.394V227.273H196.97V219.697Z" fill="black"/>
<path d="M204.545 219.697H196.97V227.273H204.545V219.697Z" fill="black"/>
<path d="M227.273 219.697H219.697V227.273H227.273V219.697Z" fill="black"/>
<path d="M234.848 219.697H227.273V227.273H234.848V219.697Z" fill="black"/>
<path d="M106.061 227.273H98.4849V234.849H106.061V227.273Z" fill="black"/>
<path d="M128.788 227.273H121.212V234.849H128.788V227.273Z" fill="black"/>
<path d="M159.091 227.273H151.515V234.849H159.091V227.273Z" fill="black"/>
<path d="M166.667 227.273H159.091V234.849H166.667V227.273Z" fill="black"/>
<path d="M174.243 227.273H166.667V234.849H174.243V227.273Z" fill="black"/>
<path d="M181.818 227.273H174.242V234.849H181.818V227.273Z" fill="black"/>
<path d="M227.273 227.273H219.697V234.849H227.273V227.273Z" fill="black"/>
<path d="M60.2274 15.1514H23.1062H15.1516V23.1059V60.2271V68.1817H23.1062H60.2274H68.1819V60.2271V23.1059V15.1514H60.2274ZM60.2274 60.2271H23.1062V23.1059H60.2274V60.2271Z" fill="black"/>
<path d="M226.894 15.1514H189.773H181.818V23.1059V60.2271V68.1817H189.773H226.894H234.848V60.2271V23.1059V15.1514H226.894ZM226.894 60.2271H189.773V23.1059H226.894V60.2271Z" fill="black"/>
<path d="M60.2274 181.818H23.1062H15.1516V189.773V226.894V234.849H23.1062H60.2274H68.1819V226.894V189.773V181.818H60.2274ZM60.2274 226.894H23.1062V189.773H60.2274V226.894Z" fill="black"/>
<path d="M30.3029 53.0305C31.64 45.4698 31.64 37.8675 30.3022 30.3034C34.0916 30.975 37.8927 31.3139 41.6666 31.3139C45.4395 31.3139 49.2395 30.9753 53.0302 30.3032C51.6925 37.8644 51.6925 45.4657 53.0309 53.0305C49.2418 52.3589 45.4404 52.0198 41.6666 52.0198C37.8934 52.0198 34.0929 52.3587 30.3029 53.0305Z" fill="black"/>
<path d="M196.97 53.0305C198.307 45.4698 198.307 37.8675 196.969 30.3034C200.758 30.975 204.559 31.3139 208.333 31.3139C212.106 31.3139 215.906 30.9753 219.697 30.3032C218.359 37.8644 218.359 45.4657 219.698 53.0305C215.909 52.3589 212.107 52.0198 208.333 52.0198C204.56 52.0198 200.76 52.3587 196.97 53.0305Z" fill="black"/>
<path d="M30.3029 219.697C31.64 212.136 31.64 204.534 30.3022 196.97C34.0916 197.642 37.8927 197.98 41.6666 197.98C45.4395 197.98 49.2395 197.642 53.0302 196.97C51.6925 204.531 51.6925 212.132 53.0309 219.697C49.2418 219.025 45.4404 218.686 41.6666 218.686C37.8934 218.686 34.0929 219.025 30.3029 219.697Z" fill="black"/>
</g>
<defs>
<clipPath id="clip0_41_3057">
<rect width="250" height="250" fill="white"/>
</clipPath>
</defs>
</svg>
