<svg width="24" height="24" viewBox="0 0 24 24" fill="none" xmlns="http://www.w3.org/2000/svg">
<g id="What&#39;s App">
<circle id="Ellipse 1" cx="12" cy="12" r="12" fill="#AAAEB9"/>
<path id="Vector" d="M16.9031 7.03437C15.5938 5.72187 13.85 5 11.9969 5C8.17187 5 5.05937 8.1125 5.05937 11.9375C5.05937 13.1594 5.37813 14.3531 5.98438 15.4062L5 19L8.67812 18.0344C9.69063 18.5875 10.8313 18.8781 11.9938 18.8781H11.9969C15.8188 18.8781 19 15.7656 19 11.9406C19 10.0875 18.2125 8.34687 16.9031 7.03437ZM11.9969 17.7094C10.9594 17.7094 9.94375 17.4312 9.05937 16.9062L8.85 16.7812L6.66875 17.3531L7.25 15.225L7.1125 15.0063C6.53437 14.0875 6.23125 13.0281 6.23125 11.9375C6.23125 8.75938 8.81875 6.17188 12 6.17188C13.5406 6.17188 14.9875 6.77187 16.075 7.8625C17.1625 8.95312 17.8313 10.4 17.8281 11.9406C17.8281 15.1219 15.175 17.7094 11.9969 17.7094ZM15.1594 13.3906C14.9875 13.3031 14.1344 12.8844 13.975 12.8281C13.8156 12.7688 13.7 12.7406 13.5844 12.9156C13.4688 13.0906 13.1375 13.4781 13.0344 13.5969C12.9344 13.7125 12.8313 13.7281 12.6594 13.6406C11.6406 13.1313 10.9719 12.7312 10.3 11.5781C10.1219 11.2719 10.4781 11.2937 10.8094 10.6312C10.8656 10.5156 10.8375 10.4156 10.7937 10.3281C10.75 10.2406 10.4031 9.3875 10.2594 9.04063C10.1188 8.70312 9.975 8.75 9.86875 8.74375C9.76875 8.7375 9.65312 8.7375 9.5375 8.7375C9.42188 8.7375 9.23438 8.78125 9.075 8.95312C8.91562 9.12813 8.46875 9.54688 8.46875 10.4C8.46875 11.2531 9.09063 12.0781 9.175 12.1938C9.2625 12.3094 10.3969 14.0594 12.1375 14.8125C13.2375 15.2875 13.6687 15.3281 14.2188 15.2469C14.5531 15.1969 15.2437 14.8281 15.3875 14.4219C15.5312 14.0156 15.5312 13.6687 15.4875 13.5969C15.4469 13.5188 15.3313 13.475 15.1594 13.3906Z" fill="#656A7B"/>
</g>
</svg>
